<svg width="682" height="601" viewBox="0 0 682 601" fill="none" xmlns="http://www.w3.org/2000/svg">
<path d="M571.348 314.846C571.338 322.191 572.843 329.462 575.771 336.214L575.953 336.628C580.905 347.76 589.492 356.929 600.341 362.67C611.19 368.41 623.674 370.391 635.796 368.294C636.126 368.236 636.456 368.176 636.784 368.114C640.181 367.464 643.508 366.494 646.718 365.22C647.24 365.013 647.758 364.798 648.272 364.576C648.623 364.425 648.974 364.269 649.321 364.109C658.833 359.753 666.886 352.802 672.532 344.073C678.177 335.345 681.18 325.204 681.186 314.846C681.186 284.878 656.597 260.584 626.267 260.584C595.936 260.584 571.348 284.878 571.348 314.846Z" fill="#495464"/>
<path opacity="0.2" d="M635.796 368.294C636.126 368.236 636.455 368.176 636.784 368.114C636.998 361.964 637.734 349.341 640.245 336.121C641.618 328.885 643.524 321.468 646.167 314.838C647.073 312.544 648.107 310.302 649.266 308.121C651.937 303.136 655.177 298.94 659.105 296.097L658.527 295.317C655.26 297.683 652.323 301.005 649.717 305.283C648.936 306.564 648.185 307.931 647.465 309.383C646.694 310.937 645.957 312.587 645.257 314.332C644.81 315.443 644.379 316.593 643.962 317.781C642.149 322.939 640.608 328.824 639.338 335.437C639.057 336.898 638.789 338.394 638.535 339.927C636.568 351.802 635.975 362.781 635.796 368.294Z" fill="black"/>
<path opacity="0.2" d="M648.272 364.576C648.623 364.425 648.974 364.27 649.321 364.109C649.661 360.465 650.285 355.944 651.426 351.653C651.925 349.726 652.566 347.837 653.344 346.002C654.646 342.992 656.331 340.433 658.51 338.855L657.931 338.076C655.65 339.727 653.89 342.335 652.53 345.387C650.998 348.826 649.976 352.828 649.295 356.652C648.79 359.492 648.472 362.236 648.272 364.576Z" fill="black"/>
<path opacity="0.2" d="M664.572 296.074C661.872 296.074 659.683 293.912 659.683 291.244C659.683 288.576 661.872 286.414 664.572 286.414C667.272 286.414 669.461 288.576 669.461 291.244C669.461 293.912 667.272 296.074 664.572 296.074Z" fill="black"/>
<path opacity="0.2" d="M662.998 337.655C660.298 337.655 658.109 335.493 658.109 332.825C658.109 330.157 660.298 327.995 662.998 327.995C665.698 327.995 667.887 330.157 667.887 332.825C667.887 335.493 665.698 337.655 662.998 337.655Z" fill="black"/>
<path opacity="0.2" d="M645.162 299.358C646.199 305.137 643.91 310.369 643.91 310.369C643.91 310.369 639.941 306.232 638.904 300.454C637.868 294.675 640.156 289.442 640.156 289.442C640.156 289.442 644.125 293.579 645.162 299.358Z" fill="black"/>
<path opacity="0.2" d="M661.41 313.076C655.831 315.091 650.225 313.798 650.225 313.798C650.225 313.798 653.664 309.236 659.243 307.221C664.822 305.205 670.428 306.499 670.428 306.499C670.428 306.499 666.989 311.06 661.41 313.076Z" fill="black"/>
<path opacity="0.2" d="M662.355 349.897C658.444 351.31 654.51 350.388 654.51 350.388C654.51 350.388 656.915 347.176 660.825 345.763C664.735 344.35 668.67 345.272 668.67 345.272C668.67 345.272 666.265 348.484 662.355 349.897Z" fill="black"/>
<path d="M626.379 326.862C614.554 326.862 604.969 317.391 604.969 305.708C604.969 294.025 614.554 284.554 626.379 284.554C638.203 284.554 647.789 294.025 647.789 305.708C647.789 317.391 638.203 326.862 626.379 326.862Z" fill="#D0CDE1"/>
<path d="M634.742 321.904C634.742 321.904 632.066 334.465 632.066 335.787C632.066 337.109 619.354 343.058 619.354 343.058L607.979 341.075L603.965 329.176C603.965 329.176 610.656 319.26 610.656 315.294L634.742 321.904Z" fill="#D0CDE1"/>
<path d="M575.771 336.214L575.952 336.628C580.905 347.76 589.492 356.929 600.341 362.67C611.19 368.41 623.674 370.391 635.796 368.294C636.126 368.236 636.455 368.177 636.784 368.114C640.181 367.464 643.507 366.495 646.718 365.22C647.24 365.013 647.757 364.798 648.271 364.576C648.622 364.425 648.973 364.27 649.321 364.109C652.473 362.666 655.478 360.931 658.298 358.927L660.836 351.653L659.409 350.577L656.475 348.363L653.344 346.002L652.53 345.387L640.245 336.121L639.338 335.437L632.953 330.621L632.951 330.619C632.951 330.619 626.045 341.736 616.009 338.431C605.973 335.125 606.192 325.647 606.192 325.647L575.771 336.214Z" fill="#2F2E41"/>
<path d="M644.947 288.665C644.947 288.665 638.149 274.113 625.121 277.471C612.092 280.829 604.728 285.866 604.161 290.904C603.595 295.941 604.444 303.497 604.444 303.497C604.444 303.497 605.861 293.142 614.924 295.381C623.988 297.62 638.149 295.941 638.149 295.941L640.415 316.09C640.415 316.09 642.964 312.452 645.797 314.691C648.629 316.93 654.011 293.142 644.947 288.665Z" fill="#2F2E41"/>
<path d="M646.718 365.22C647.24 365.013 647.757 364.798 648.271 364.576C648.622 364.425 648.973 364.269 649.321 364.109C654.534 361.721 659.336 358.541 663.553 354.685C662.06 352.675 660.836 351.653 660.836 351.653H650.8L649.295 356.652L646.718 365.22Z" fill="#2F2E41"/>
<path d="M584.563 335.125L575.953 336.628C578.257 341.814 581.369 346.612 585.176 350.847L584.563 335.125Z" fill="#2F2E41"/>
<path d="M391.946 54.3888C391.937 61.3594 393.292 68.266 395.935 74.729C395.941 74.7435 395.946 74.7563 395.953 74.7707V74.7723C397.729 79.0999 400.066 83.1817 402.905 86.9155C403.453 87.6379 404.018 88.3453 404.6 89.0378C404.813 89.2914 405.029 89.5435 405.245 89.7923C406.358 91.0686 407.529 92.2914 408.758 93.4606C409.044 93.7335 409.333 94.0032 409.625 94.2697C409.694 94.3323 409.762 94.3933 409.83 94.456C411.261 95.7482 412.761 96.9647 414.323 98.1002C415.371 98.8659 416.446 99.5932 417.55 100.282C417.792 100.434 418.035 100.584 418.281 100.731C418.706 100.988 419.136 101.239 419.569 101.484C420.135 101.805 420.707 102.116 421.287 102.417C421.521 102.541 421.756 102.659 421.992 102.778C422.336 102.953 422.682 103.122 423.032 103.287C423.092 103.316 423.152 103.345 423.212 103.372C423.439 103.481 423.67 103.587 423.901 103.693C426.906 105.063 430.031 106.158 433.237 106.967C433.255 106.972 433.271 106.975 433.289 106.98C433.499 107.033 433.71 107.084 433.921 107.134C434.079 107.172 434.238 107.209 434.397 107.244C434.417 107.251 434.437 107.256 434.457 107.259C434.784 107.334 435.111 107.407 435.44 107.472C435.626 107.511 435.811 107.549 435.996 107.586C436.108 107.61 436.222 107.631 436.334 107.652C436.475 107.679 436.615 107.705 436.756 107.732C436.834 107.749 436.912 107.761 436.992 107.774C437.171 107.806 437.35 107.838 437.527 107.869C437.829 107.92 438.134 107.97 438.438 108.015C438.659 108.049 438.878 108.081 439.099 108.111C439.359 108.148 439.619 108.182 439.881 108.214C439.952 108.225 440.024 108.233 440.095 108.241C440.188 108.253 440.281 108.264 440.373 108.275C440.56 108.298 440.747 108.318 440.935 108.338C441.033 108.349 441.129 108.359 441.226 108.368C441.412 108.387 441.597 108.405 441.782 108.421C442.021 108.444 442.26 108.463 442.5 108.482C442.793 108.505 443.083 108.526 443.378 108.543C443.566 108.554 443.755 108.566 443.945 108.575C444.429 108.601 444.913 108.619 445.4 108.631C445.643 108.638 445.886 108.643 446.13 108.646H446.135C446.377 108.649 446.621 108.651 446.864 108.651C449.334 108.652 451.801 108.489 454.249 108.163C456.045 107.925 457.811 107.603 459.549 107.196C459.619 107.18 459.689 107.164 459.757 107.147C459.933 107.106 460.107 107.063 460.281 107.02C460.435 106.981 460.588 106.941 460.742 106.901C464.72 105.878 468.568 104.414 472.213 102.536C472.231 102.526 472.251 102.517 472.268 102.507C472.374 102.452 472.478 102.399 472.582 102.343C472.811 102.224 473.039 102.103 473.266 101.98C474.558 101.279 475.816 100.529 477.042 99.7296C477.357 99.5257 477.669 99.3187 477.978 99.1084C478.077 99.0409 478.175 98.9735 478.272 98.9061C478.374 98.8354 478.477 98.7648 478.578 98.6942C478.846 98.5063 479.112 98.3164 479.377 98.1243C480.474 97.328 481.538 96.4927 482.57 95.6182C486.227 92.5237 489.458 88.9697 492.182 85.0468C493.133 83.679 494.02 82.2673 494.844 80.8118C499.409 72.7367 501.798 63.6383 501.783 54.3888C501.783 24.4211 477.195 0.126831 446.864 0.126831C416.534 0.126831 391.946 24.4211 391.946 54.3888Z" fill="#495464"/>
<path opacity="0.2" d="M438.033 107.146C437.858 107.106 437.684 107.063 437.51 107.02C437.356 106.981 437.203 106.941 437.049 106.901C437.04 106.581 437.029 106.23 437.018 105.849C436.922 102.87 436.696 98.0727 436.163 92.2934C436.134 91.9835 436.105 91.6716 436.075 91.3574C435.885 89.3989 435.663 87.3392 435.396 85.204C435.388 85.1334 435.378 85.0643 435.37 84.9937C435.154 83.2631 434.909 81.4859 434.632 79.6751C434.439 78.4084 434.23 77.1279 434.005 75.8334C433.989 75.7435 433.973 75.652 433.957 75.5621C433.892 75.188 433.825 74.8156 433.757 74.4399C433.567 73.3948 433.363 72.3433 433.151 71.2918C432.402 67.593 431.51 63.8717 430.445 60.2516C429.364 56.4972 428.033 52.8176 426.46 49.237C425.24 46.4555 423.786 43.7797 422.115 41.2374C422.091 41.2005 422.066 41.1652 422.042 41.1283C419.905 37.948 417.463 35.2493 414.675 33.2314L415.253 32.4512C417.925 34.3857 420.375 36.9596 422.604 40.1731C422.615 40.1891 422.625 40.2036 422.636 40.2196C424.313 42.6757 425.776 45.2675 427.01 47.9672C428.663 51.5783 430.058 55.2996 431.183 59.1037C432.249 62.6388 433.205 66.4687 434.051 70.5934C434.348 72.0463 434.632 73.535 434.902 75.0596C434.948 75.3197 434.993 75.5797 435.039 75.8414C435.039 75.8446 435.04 75.8495 435.04 75.8527C435.11 76.254 435.177 76.6553 435.245 77.0615C435.414 78.0841 435.573 79.0987 435.723 80.1053C435.953 81.6561 436.162 83.1802 436.348 84.6774C436.41 85.1719 436.47 85.6626 436.527 86.1496C436.608 86.8367 436.685 87.5147 436.758 88.1836C436.86 89.1147 436.954 90.026 437.039 90.9176L437.063 91.1632C437.076 91.3045 437.089 91.4457 437.102 91.5854C437.762 98.6154 437.968 104.294 438.033 107.146Z" fill="black"/>
<path opacity="0.2" d="M425.578 102.536C425.56 102.526 425.541 102.517 425.523 102.507C425.188 102.335 424.857 102.16 424.525 101.98C424.416 100.699 424.27 99.2914 424.078 97.8112C424.038 97.5062 423.997 97.1964 423.952 96.8849C423.929 96.718 423.905 96.5494 423.88 96.3792C423.688 95.0757 423.461 93.7303 423.188 92.3786C422.078 86.8625 420.236 81.2244 417.176 77.7439C417.012 77.556 416.845 77.3762 416.671 77.2012C416.24 76.7589 415.772 76.3534 415.272 75.9892L415.85 75.2106C416.548 75.7207 417.191 76.3013 417.768 76.9428C417.971 77.1659 418.169 77.3982 418.362 77.6395C421.178 81.1409 422.936 86.3247 424.031 91.4571C424.317 92.796 424.558 94.1333 424.762 95.4353C424.814 95.7756 424.864 96.1127 424.912 96.4466C425.229 98.6525 425.438 100.736 425.578 102.536Z" fill="black"/>
<path opacity="0.2" d="M409.213 33.2091C406.513 33.2091 404.324 31.0465 404.324 28.3787C404.324 25.711 406.513 23.5483 409.213 23.5483C411.913 23.5483 414.102 25.711 414.102 28.3787C414.102 31.0465 411.913 33.2091 409.213 33.2091Z" fill="black"/>
<path opacity="0.2" d="M410.787 74.7898C408.087 74.7898 405.898 72.6272 405.898 69.9595C405.898 67.2918 408.087 65.1292 410.787 65.1292C413.487 65.1292 415.676 67.2918 415.676 69.9595C415.676 72.6272 413.487 74.7898 410.787 74.7898Z" fill="black"/>
<path opacity="0.2" d="M428.619 36.4921C427.582 42.2711 429.871 47.5038 429.871 47.5038C429.871 47.5038 433.84 43.367 434.877 37.5881C435.914 31.8091 433.625 26.5764 433.625 26.5764C433.625 26.5764 429.656 30.7132 428.619 36.4921Z" fill="black"/>
<path opacity="0.2" d="M412.374 50.2103C417.953 52.2259 423.559 50.9324 423.559 50.9324C423.559 50.9324 420.119 46.371 414.541 44.3554C408.962 42.3398 403.356 43.6333 403.356 43.6333C403.356 43.6333 406.795 48.1947 412.374 50.2103Z" fill="black"/>
<path opacity="0.2" d="M411.426 87.0315C415.337 88.4442 419.271 87.5226 419.271 87.5226C419.271 87.5226 416.866 84.3106 412.956 82.8978C409.046 81.4851 405.111 82.4067 405.111 82.4067C405.111 82.4067 407.516 85.6188 411.426 87.0315Z" fill="black"/>
<path d="M430.299 86.2186L430.101 86.3198C430.12 86.5285 430.167 86.657 430.299 86.2186Z" fill="#2F2E41"/>
<path d="M430.038 86.2861C430.036 86.3086 430.033 86.3326 430.032 86.3551L430.102 86.3198C430.1 86.2989 430.098 86.2764 430.095 86.254C430.079 85.9731 430.098 85.6408 430.038 86.2861Z" fill="#2F2E41"/>
<path d="M451.139 78.606C436.404 78.606 424.458 66.8033 424.458 52.2441C424.458 37.6848 436.404 25.8822 451.139 25.8822C465.875 25.8822 477.82 37.6848 477.82 52.2441C477.82 66.8033 465.875 78.606 451.139 78.606Z" fill="#2F2E41"/>
<path d="M448.946 77.5312C440.022 77.5312 432.788 70.3837 432.788 61.5666C432.788 52.7496 440.022 45.6021 448.946 45.6021C457.869 45.6021 465.104 52.7496 465.104 61.5666C465.104 70.3837 457.869 77.5312 448.946 77.5312Z" fill="#D0CDE1"/>
<path d="M412.052 92.1651L412.071 92.1699L415.829 93.0609L423.654 94.9167L424.722 95.1703L436.622 97.991L437.633 98.2318L466.504 105.077C468.456 104.34 470.363 103.491 472.215 102.536C472.233 102.526 472.252 102.517 472.27 102.507C472.376 102.452 472.48 102.399 472.584 102.343C472.813 102.224 473.041 102.103 473.268 101.98C474.56 101.279 475.818 100.529 477.044 99.7296C477.359 99.5257 477.671 99.3186 477.98 99.1083C478.079 99.0409 478.177 98.9735 478.274 98.9061C478.376 98.8354 478.479 98.7648 478.579 98.6941C478.848 98.5063 479.114 98.3163 479.379 98.1242C476.574 93.0881 469.896 89.7409 463.219 87.9092C458.178 86.5253 457.07 81.9773 457.166 77.9301C457.19 77.007 457.27 76.086 457.403 75.1721C457.607 73.7174 457.931 72.2817 458.372 70.8793L442.213 71.4123L440.546 75.2074C440.591 75.6242 440.606 76.0438 440.59 76.4628C440.463 79.5756 438.518 81.5888 436.118 82.8875C435.806 83.0561 435.486 83.2134 435.161 83.3595C431.226 85.1271 426.594 85.2475 426.594 85.2475C425.183 85.0934 423.758 85.1198 422.354 85.3261C422.013 85.3775 421.682 85.439 421.36 85.5107C419.482 85.9255 417.707 86.7101 416.143 87.8177C415.545 88.2377 414.98 88.7008 414.451 89.2031C413.512 90.0718 412.704 91.0693 412.052 92.1651Z" fill="#D0CDE1"/>
<path d="M409.625 94.2696C409.693 94.3322 409.761 94.3932 409.829 94.4558C411.261 95.7481 412.76 96.9645 414.322 98.1C415.37 98.8658 416.445 99.593 417.549 100.282C417.791 100.434 418.035 100.584 418.28 100.731C418.706 100.988 419.135 101.239 419.568 101.484C420.134 101.805 420.706 102.116 421.286 102.417C421.52 102.54 421.755 102.659 421.991 102.778C422.335 102.953 422.681 103.122 423.031 103.287C423.091 103.316 423.151 103.345 423.211 103.372L423.898 102.809L415.826 93.0608L414.203 91.1006C414.203 91.1006 413.555 91.1006 412.068 92.1698C411.246 92.774 410.47 93.4361 409.745 94.1508C409.706 94.1909 409.665 94.2295 409.625 94.2696Z" fill="#D0CDE1"/>
<path d="M409.741 94.1605C409.763 94.2613 409.793 94.3601 409.832 94.4559C411.263 95.7482 412.763 96.9646 414.325 98.1001C415.68 98.5827 417.085 98.9128 418.515 99.0842C418.515 99.0842 418.393 99.6878 418.283 100.731C418.708 100.988 419.138 101.239 419.571 101.484C420.137 101.805 420.709 102.116 421.289 102.417C421.523 102.541 421.758 102.659 421.994 102.778C422.338 102.953 422.684 103.122 423.034 103.287C423.094 103.316 423.154 103.345 423.214 103.372C423.442 103.481 423.672 103.587 423.903 103.693C426.908 105.063 430.033 106.158 433.239 106.967C433.257 106.971 433.273 106.975 433.291 106.979C433.501 107.032 433.712 107.084 433.923 107.134C434.081 107.172 434.24 107.209 434.399 107.244C434.419 107.251 434.439 107.255 434.459 107.259C434.786 107.334 435.113 107.406 435.442 107.472C435.628 107.511 435.813 107.549 435.998 107.586C436.11 107.61 436.224 107.631 436.336 107.652C436.477 107.679 436.617 107.705 436.758 107.732C436.836 107.748 436.914 107.761 436.994 107.774C437.173 107.806 437.352 107.838 437.529 107.869C437.831 107.92 438.136 107.97 438.44 108.015C438.661 108.049 438.88 108.081 439.101 108.111C439.361 108.148 439.621 108.182 439.883 108.214C439.954 108.225 440.026 108.233 440.097 108.241C440.19 108.252 440.283 108.264 440.375 108.275C440.562 108.297 440.749 108.318 440.938 108.338C441.035 108.349 441.131 108.358 441.228 108.368C441.414 108.387 441.599 108.405 441.784 108.421C442.023 108.444 442.262 108.463 442.502 108.482C442.795 108.505 443.085 108.525 443.38 108.543C443.568 108.554 443.757 108.566 443.947 108.575C444.431 108.601 444.915 108.619 445.402 108.631C445.645 108.638 445.888 108.643 446.132 108.646H446.137C446.379 108.649 446.623 108.651 446.866 108.651C449.336 108.652 451.803 108.489 454.251 108.163C456.047 107.925 457.813 107.603 459.551 107.196C459.621 107.18 459.691 107.164 459.759 107.146C459.935 107.106 460.109 107.063 460.283 107.02C460.437 106.981 460.59 106.941 460.744 106.901C464.722 105.878 468.57 104.414 472.215 102.536C472.233 102.526 472.253 102.516 472.27 102.507C472.376 102.452 472.48 102.399 472.584 102.343C463.665 100.29 449.572 97.0518 437.342 94.2777C436.999 94.2006 436.658 94.1236 436.32 94.0465C431.803 93.0223 427.572 92.0687 423.992 91.2708C423.622 91.1889 423.259 91.1087 422.904 91.03C419.058 90.1759 416.071 89.5274 414.451 89.2031C414.015 89.1045 413.573 89.0279 413.129 88.9735L409.748 94.1509L409.741 94.1605Z" fill="#2F2E41"/>
<path d="M475.552 41.0264C471.163 41.0264 467.605 37.5107 467.605 33.1739C467.605 28.8371 471.163 25.3214 475.552 25.3214C479.942 25.3214 483.5 28.8371 483.5 33.1739C483.5 37.5107 479.942 41.0264 475.552 41.0264Z" fill="#2F2E41"/>
<path d="M426.732 38.7828C422.343 38.7828 418.785 35.2672 418.785 30.9304C418.785 26.5936 422.343 23.0779 426.732 23.0779C431.121 23.0779 434.68 26.5936 434.68 30.9304C434.68 35.2672 431.121 38.7828 426.732 38.7828Z" fill="#2F2E41"/>
<path d="M435.248 27.5649C435.248 25.6282 434.523 23.7599 433.214 22.3191C431.904 20.8782 430.101 19.9664 428.152 19.759C429.262 19.6392 430.385 19.7518 431.448 20.0895C432.511 20.4271 433.49 20.9823 434.321 21.7188C435.152 22.4552 435.817 23.3565 436.272 24.3638C436.728 25.3711 436.963 26.4618 436.963 27.5649C436.963 28.6681 436.728 29.7588 436.272 30.7661C435.817 31.7734 435.152 32.6747 434.321 33.4111C433.49 34.1476 432.511 34.7027 431.448 35.0404C430.385 35.3781 429.262 35.4907 428.152 35.3709C430.101 35.1635 431.904 34.2517 433.214 32.8108C434.523 31.37 435.248 29.5017 435.248 27.5649Z" fill="#2F2E41"/>
<path d="M484.432 39.5256C485.804 38.142 486.61 36.3064 486.695 34.3715C486.78 32.4366 486.138 30.5389 484.893 29.0431C485.771 29.725 486.493 30.582 487.013 31.5581C487.533 32.5343 487.839 33.6078 487.911 34.7086C487.983 35.8095 487.82 36.913 487.431 37.9472C487.043 38.9814 486.438 39.9232 485.657 40.7111C484.876 41.4991 483.935 42.1155 482.896 42.5203C481.858 42.9251 480.744 43.1091 479.629 43.0603C478.514 43.0116 477.421 42.7312 476.423 42.2374C475.424 41.7436 474.543 41.0475 473.835 40.1945C475.374 41.3939 477.307 41.9891 479.263 41.8657C481.219 41.7422 483.06 40.9088 484.432 39.5256Z" fill="#2F2E41"/>
<path d="M451.142 39.9045C460.547 39.9045 468.172 44.2991 468.172 49.7202C468.172 52.1457 466.639 54.3626 464.109 56.0752L460.831 53.728L461.722 57.4051C461.352 57.5745 460.975 57.7384 460.581 57.89L455.683 52.2442V59.18C454.181 59.4178 452.663 59.5367 451.142 59.5358C441.736 59.5358 434.111 55.1412 434.111 49.7202C434.111 44.2991 441.736 39.9045 451.142 39.9045Z" fill="#2F2E41"/>
<path d="M434.677 30.9302C434.677 30.9302 435.912 36.5391 428.199 38.7827L434.677 30.9302Z" fill="#2F2E41"/>
<path d="M468.173 31.9512C468.173 31.9512 465.335 38.2218 473.85 41.0262L468.173 31.9512Z" fill="#2F2E41"/>
<path d="M463.963 67.8346C463.247 67.6365 463.056 66.0993 463.537 64.4012C464.019 62.703 464.989 61.487 465.705 61.685C466.421 61.8831 466.612 63.4203 466.131 65.1185C465.65 66.8166 464.679 68.0326 463.963 67.8346Z" fill="#D0CDE1"/>
<path d="M431.174 62.1809C431.064 60.4208 431.577 58.9574 432.319 58.9122C433.062 58.867 433.752 60.2573 433.862 62.0173C433.972 63.7774 433.459 65.2408 432.717 65.286C431.974 65.3312 431.284 63.941 431.174 62.1809Z" fill="#D0CDE1"/>
<path d="M265.634 464.971C119.035 464.971 0.193542 457.689 0.193542 448.706C0.193542 439.723 119.035 432.441 265.634 432.441C412.233 432.441 531.074 439.723 531.074 448.706C531.074 457.689 412.233 464.971 265.634 464.971Z" fill="#F4F4F2"/>
<path d="M466.526 409.524H467.895V425.746H466.526V409.524Z" fill="#495464"/>
<path opacity="0.1" d="M466.526 409.524H467.895V425.746H466.526V409.524Z" fill="black"/>
<path d="M63.3809 281.014H64.75V303.242H63.3809V281.014Z" fill="#495464"/>
<path d="M63.3809 314.894H64.75V326.949H63.3809V314.894Z" fill="#495464"/>
<path opacity="0.1" d="M63.3809 281.014H64.75V303.242H63.3809V281.014Z" fill="black"/>
<path opacity="0.1" d="M63.3809 314.894H64.75V326.949H63.3809V314.894Z" fill="black"/>
<path d="M88.7709 184.618H442.513C453.893 184.618 463.117 194.299 463.117 206.242V423.562C463.117 435.504 453.893 445.186 442.513 445.186H88.7709C77.3917 445.186 68.1671 435.504 68.1671 423.562V206.242C68.1671 194.299 77.3917 184.618 88.7709 184.618Z" fill="#495464"/>
<path opacity="0.2" d="M88.7709 184.618H442.513C453.893 184.618 463.117 194.299 463.117 206.242V423.562C463.117 435.504 453.893 445.186 442.513 445.186H88.7709C77.3917 445.186 68.1671 435.504 68.1671 423.562V206.242C68.1671 194.299 77.3917 184.618 88.7709 184.618Z" fill="black"/>
<path opacity="0.2" d="M132.081 275.353C117.965 275.353 106.521 263.343 106.521 248.527C106.521 233.712 117.965 221.702 132.081 221.702C146.197 221.702 157.641 233.712 157.641 248.527C157.641 263.343 146.197 275.353 132.081 275.353Z" fill="black"/>
<path d="M165.067 275.353C150.951 275.353 139.508 263.343 139.508 248.527C139.508 233.712 150.951 221.702 165.067 221.702C179.183 221.702 190.627 233.712 190.627 248.527C190.627 263.343 179.183 275.353 165.067 275.353Z" fill="#495464"/>
<path d="M354.99 275.353H415.871C420.77 275.353 424.742 279.522 424.742 284.664V326.432C424.742 331.574 420.77 335.743 415.871 335.743H354.99C350.091 335.743 346.119 331.574 346.119 326.432V284.664C346.119 279.522 350.091 275.353 354.99 275.353Z" fill="#495464"/>
<path opacity="0.3" d="M354.99 275.353H415.871C420.77 275.353 424.742 279.522 424.742 284.664V326.432C424.742 331.574 420.77 335.743 415.871 335.743H354.99C350.091 335.743 346.119 331.574 346.119 326.432V284.664C346.119 279.522 350.091 275.353 354.99 275.353Z" fill="white"/>
<path d="M312.866 215.121H418.458C421.929 215.121 424.742 218.071 424.742 221.709C424.742 225.347 421.929 228.297 418.458 228.297H312.866C309.395 228.297 306.582 225.347 306.582 221.709C306.582 218.071 309.395 215.121 312.866 215.121Z" fill="#495464"/>
<path opacity="0.3" d="M312.866 215.121H418.458C421.929 215.121 424.742 218.071 424.742 221.709C424.742 225.347 421.929 228.297 418.458 228.297H312.866C309.395 228.297 306.582 225.347 306.582 221.709C306.582 218.071 309.395 215.121 312.866 215.121Z" fill="white"/>
<path d="M368.037 365.715H415.529C420.617 365.715 424.742 370.044 424.742 375.385V384.422C424.742 389.763 420.617 394.092 415.529 394.092H368.037C362.949 394.092 358.824 389.763 358.824 384.422V375.385C358.824 370.044 362.949 365.715 368.037 365.715Z" fill="#495464"/>
<path opacity="0.3" d="M368.037 365.715H415.529C420.617 365.715 424.742 370.044 424.742 375.385V384.422C424.742 389.763 420.617 394.092 415.529 394.092H368.037C362.949 394.092 358.824 389.763 358.824 384.422V375.385C358.824 370.044 362.949 365.715 368.037 365.715Z" fill="white"/>
<path d="M283.947 365.715H331.439C336.527 365.715 340.652 370.044 340.652 375.385V384.422C340.652 389.763 336.527 394.092 331.439 394.092H283.947C278.859 394.092 274.734 389.763 274.734 384.422V375.385C274.734 370.044 278.859 365.715 283.947 365.715Z" fill="#495464"/>
<path opacity="0.3" d="M283.947 365.715H331.439C336.527 365.715 340.652 370.044 340.652 375.385V384.422C340.652 389.763 336.527 394.092 331.439 394.092H283.947C278.859 394.092 274.734 389.763 274.734 384.422V375.385C274.734 370.044 278.859 365.715 283.947 365.715Z" fill="white"/>
<path d="M199.846 365.715H247.337C252.426 365.715 256.551 370.044 256.551 375.385V384.422C256.551 389.763 252.426 394.092 247.337 394.092H199.846C194.757 394.092 190.632 389.763 190.632 384.422V375.385C190.632 370.044 194.757 365.715 199.846 365.715Z" fill="#495464"/>
<path opacity="0.3" d="M199.846 365.715H247.337C252.426 365.715 256.551 370.044 256.551 375.385V384.422C256.551 389.763 252.426 394.092 247.337 394.092H199.846C194.757 394.092 190.632 389.763 190.632 384.422V375.385C190.632 370.044 194.757 365.715 199.846 365.715Z" fill="white"/>
<path d="M115.756 365.715H163.247C168.336 365.715 172.461 370.044 172.461 375.385V384.422C172.461 389.763 168.336 394.092 163.247 394.092H115.756C110.667 394.092 106.542 389.763 106.542 384.422V375.385C106.542 370.044 110.667 365.715 115.756 365.715Z" fill="#495464"/>
<path opacity="0.3" d="M115.756 365.715H163.247C168.336 365.715 172.461 370.044 172.461 375.385V384.422C172.461 389.763 168.336 394.092 163.247 394.092H115.756C110.667 394.092 106.542 389.763 106.542 384.422V375.385C106.542 370.044 110.667 365.715 115.756 365.715Z" fill="white"/>
<path d="M72.5023 546.364C72.4937 553.335 73.8482 560.241 76.4912 566.704C76.4977 566.719 76.5026 566.731 76.5091 566.746V566.747C78.2857 571.075 80.6227 575.157 83.4617 578.891C84.0092 579.613 84.5741 580.32 85.1564 581.013C85.3692 581.267 85.5853 581.519 85.8014 581.767C86.9144 583.044 88.0854 584.266 89.3143 585.436C89.6002 585.709 89.8894 585.978 90.1819 586.245C90.2502 586.307 90.3184 586.368 90.3866 586.431C91.818 587.723 93.3176 588.94 94.8792 590.075C95.9272 590.841 97.0029 591.568 98.1061 592.257C98.3482 592.41 98.5919 592.559 98.8373 592.706C99.263 592.963 99.6925 593.214 100.126 593.459C100.691 593.78 101.264 594.091 101.843 594.392C102.077 594.516 102.313 594.635 102.548 594.753C102.893 594.928 103.239 595.097 103.588 595.262C103.648 595.291 103.708 595.32 103.769 595.347C103.996 595.457 104.227 595.562 104.458 595.668C107.462 597.038 110.587 598.133 113.794 598.942C113.812 598.947 113.828 598.95 113.846 598.955C114.055 599.008 114.267 599.059 114.478 599.109C114.635 599.147 114.795 599.184 114.954 599.22C114.973 599.226 114.994 599.231 115.014 599.234C115.341 599.309 115.667 599.382 115.997 599.447C116.182 599.486 116.367 599.525 116.553 599.561C116.665 599.586 116.778 599.606 116.891 599.627C117.032 599.655 117.172 599.68 117.313 599.708C117.391 599.724 117.469 599.736 117.549 599.749C117.727 599.781 117.906 599.814 118.083 599.844C118.385 599.895 118.691 599.945 118.995 599.99C119.216 600.024 119.435 600.056 119.656 600.086C119.916 600.123 120.176 600.157 120.438 600.189C120.509 600.2 120.581 600.208 120.652 600.216C120.745 600.228 120.837 600.239 120.93 600.25C121.117 600.273 121.304 600.294 121.492 600.313C121.59 600.324 121.685 600.334 121.783 600.343C121.968 600.363 122.153 600.38 122.339 600.396C122.577 600.419 122.816 600.438 123.057 600.457C123.349 600.48 123.64 600.501 123.934 600.518C124.123 600.53 124.311 600.541 124.501 600.55C124.985 600.576 125.47 600.594 125.957 600.607C126.199 600.613 126.443 600.618 126.687 600.621H126.691C126.934 600.624 127.177 600.626 127.421 600.626C129.891 600.627 132.358 600.464 134.806 600.138C136.601 599.9 138.368 599.578 140.106 599.171C140.176 599.155 140.246 599.139 140.314 599.122C140.489 599.081 140.663 599.038 140.837 598.995C140.991 598.956 141.144 598.916 141.299 598.876C145.277 597.853 149.125 596.389 152.77 594.511C152.788 594.501 152.807 594.492 152.825 594.482C152.931 594.427 153.035 594.374 153.139 594.318C153.368 594.2 153.596 594.079 153.823 593.955C155.114 593.254 156.373 592.504 157.599 591.705C157.914 591.501 158.226 591.294 158.535 591.083C158.634 591.016 158.731 590.949 158.829 590.881C158.931 590.811 159.033 590.74 159.134 590.669C159.402 590.481 159.669 590.291 159.934 590.099C161.03 589.303 162.095 588.468 163.126 587.593C166.783 584.499 170.015 580.945 172.739 577.022C173.689 575.654 174.576 574.242 175.4 572.787C179.965 564.712 182.355 555.613 182.34 546.364C182.34 516.396 157.751 492.102 127.421 492.102C97.0906 492.102 72.5023 516.396 72.5023 546.364Z" fill="#495464"/>
<path opacity="0.2" d="M118.59 599.121C118.414 599.081 118.241 599.038 118.067 598.995C117.912 598.956 117.76 598.916 117.605 598.876C117.597 598.556 117.586 598.205 117.574 597.824C117.478 594.845 117.253 590.048 116.72 584.268C116.69 583.959 116.661 583.647 116.632 583.333C116.442 581.374 116.219 579.314 115.953 577.179C115.945 577.108 115.935 577.039 115.927 576.969C115.711 575.238 115.465 573.461 115.189 571.65C114.996 570.383 114.787 569.103 114.562 567.808C114.546 567.719 114.529 567.627 114.513 567.537C114.448 567.163 114.382 566.791 114.313 566.415C114.123 565.37 113.92 564.318 113.707 563.267C112.958 559.568 112.066 555.847 111.002 552.227C109.921 548.472 108.589 544.793 107.016 541.212C105.796 538.431 104.343 535.755 102.671 533.212C102.647 533.175 102.623 533.14 102.598 533.103C100.462 529.923 98.0196 527.224 95.2314 525.206L95.8099 524.426C98.4811 526.361 100.931 528.935 103.161 532.148C103.172 532.164 103.182 532.179 103.193 532.195C104.869 534.651 106.333 537.242 107.567 539.942C109.22 543.553 110.614 547.275 111.74 551.079C112.805 554.614 113.761 558.444 114.607 562.568C114.905 564.021 115.189 565.51 115.459 567.035C115.504 567.295 115.55 567.555 115.595 567.816C115.595 567.82 115.597 567.825 115.597 567.828C115.667 568.229 115.733 568.63 115.802 569.037C115.971 570.059 116.13 571.074 116.279 572.08C116.51 573.631 116.719 575.155 116.905 576.653C116.967 577.147 117.026 577.638 117.084 578.125C117.165 578.812 117.242 579.49 117.314 580.159C117.417 581.09 117.51 582.001 117.595 582.893L117.62 583.138C117.633 583.28 117.646 583.421 117.659 583.56C118.318 590.59 118.525 596.269 118.59 599.121Z" fill="black"/>
<path opacity="0.2" d="M106.133 594.511C106.115 594.501 106.095 594.492 106.078 594.482C105.743 594.31 105.411 594.135 105.08 593.956C104.971 592.674 104.825 591.266 104.633 589.786C104.592 589.481 104.552 589.171 104.506 588.86C104.484 588.693 104.459 588.524 104.435 588.354C104.243 587.051 104.016 585.705 103.743 584.354C102.633 578.838 100.79 573.199 97.7309 569.719C97.5668 569.531 97.3995 569.351 97.2256 569.176C96.7948 568.734 96.3268 568.329 95.8267 567.964L96.4051 567.186C97.1032 567.696 97.7458 568.276 98.3224 568.918C98.5255 569.141 98.7237 569.373 98.917 569.615C101.733 573.116 103.491 578.3 104.586 583.432C104.872 584.771 105.112 586.108 105.317 587.41C105.369 587.751 105.419 588.088 105.467 588.422C105.783 590.628 105.993 592.711 106.133 594.511Z" fill="black"/>
<path opacity="0.2" d="M89.7694 525.184C87.0694 525.184 84.8806 523.021 84.8806 520.354C84.8806 517.686 87.0694 515.523 89.7694 515.523C92.4694 515.523 94.6582 517.686 94.6582 520.354C94.6582 523.021 92.4694 525.184 89.7694 525.184Z" fill="black"/>
<path opacity="0.2" d="M91.3436 566.765C88.6435 566.765 86.4547 564.602 86.4547 561.935C86.4547 559.267 88.6435 557.104 91.3436 557.104C94.0436 557.104 96.2324 559.267 96.2324 561.935C96.2324 564.602 94.0436 566.765 91.3436 566.765Z" fill="black"/>
<path opacity="0.2" d="M109.176 528.467C108.139 534.246 110.428 539.479 110.428 539.479C110.428 539.479 114.397 535.342 115.434 529.563C116.47 523.784 114.182 518.552 114.182 518.552C114.182 518.552 110.212 522.688 109.176 528.467Z" fill="black"/>
<path opacity="0.2" d="M92.9306 542.185C98.5093 544.201 104.115 542.907 104.115 542.907C104.115 542.907 100.676 538.346 95.0974 536.33C89.5186 534.315 83.9127 535.608 83.9127 535.608C83.9127 535.608 87.3518 540.17 92.9306 542.185Z" fill="black"/>
<path opacity="0.2" d="M91.983 579.007C95.8933 580.419 99.8281 579.498 99.8281 579.498C99.8281 579.498 97.4231 576.286 93.5129 574.873C89.6026 573.46 85.6677 574.382 85.6677 574.382C85.6677 574.382 88.0727 577.594 91.983 579.007Z" fill="black"/>
<path d="M110.855 578.194L110.657 578.295C110.677 578.504 110.724 578.632 110.855 578.194Z" fill="#2F2E41"/>
<path d="M110.593 578.261C110.591 578.284 110.588 578.308 110.586 578.33L110.656 578.295C110.655 578.274 110.653 578.252 110.65 578.229C110.634 577.948 110.653 577.616 110.593 578.261Z" fill="#2F2E41"/>
<path d="M131.696 570.581C116.961 570.581 105.015 558.778 105.015 544.219C105.015 529.66 116.961 517.857 131.696 517.857C146.432 517.857 158.377 529.66 158.377 544.219C158.377 558.778 146.432 570.581 131.696 570.581Z" fill="#2F2E41"/>
<path d="M129.502 569.506C120.578 569.506 113.344 562.359 113.344 553.542C113.344 544.725 120.578 537.577 129.502 537.577C138.426 537.577 145.66 544.725 145.66 553.542C145.66 562.359 138.426 569.506 129.502 569.506Z" fill="#D0CDE1"/>
<path d="M92.6082 584.14L92.6277 584.145L96.3858 585.036L104.211 586.892L105.278 587.145L117.179 589.966L118.189 590.207L147.061 597.052C149.012 596.315 150.919 595.466 152.772 594.511C152.79 594.501 152.809 594.492 152.827 594.482C152.933 594.427 153.037 594.374 153.141 594.318C153.37 594.199 153.598 594.079 153.825 593.955C155.116 593.254 156.375 592.504 157.601 591.705C157.916 591.501 158.228 591.294 158.537 591.083C158.636 591.016 158.733 590.949 158.831 590.881C158.933 590.811 159.035 590.74 159.136 590.669C159.404 590.481 159.671 590.291 159.936 590.099C157.131 585.063 150.453 581.716 143.775 579.884C138.735 578.5 137.627 573.952 137.723 569.905C137.747 568.982 137.826 568.061 137.96 567.147C138.164 565.693 138.487 564.257 138.928 562.854L122.77 563.387L121.103 567.182C121.148 567.599 121.163 568.019 121.146 568.438C121.02 571.551 119.075 573.564 116.675 574.863C116.363 575.031 116.043 575.189 115.718 575.335C111.783 577.102 107.15 577.223 107.15 577.223C105.74 577.068 104.315 577.095 102.911 577.301C102.57 577.353 102.238 577.414 101.917 577.486C100.038 577.901 98.264 578.685 96.6994 579.793C96.1018 580.213 95.5365 580.676 95.008 581.178C94.0686 582.047 93.2604 583.044 92.6082 584.14Z" fill="#D0CDE1"/>
<path d="M90.181 586.245C90.2493 586.307 90.3175 586.368 90.3858 586.431C91.8171 587.723 93.3167 588.94 94.8784 590.075C95.9264 590.841 97.002 591.568 98.1053 592.257C98.3474 592.409 98.5911 592.559 98.8365 592.706C99.2622 592.963 99.6917 593.214 100.125 593.459C100.69 593.78 101.263 594.091 101.842 594.392C102.076 594.516 102.312 594.635 102.548 594.753C102.892 594.928 103.238 595.097 103.587 595.262C103.648 595.291 103.708 595.32 103.768 595.347L104.455 594.784L96.383 585.036L94.7598 583.076C94.7598 583.076 94.1115 583.076 92.6248 584.145C91.803 584.749 91.0265 585.411 90.3013 586.126C90.2623 586.166 90.2217 586.205 90.181 586.245Z" fill="#D0CDE1"/>
<path d="M90.2958 586.136C90.3176 586.236 90.3481 586.335 90.3868 586.431C91.8181 587.723 93.3177 588.94 94.8794 590.075C96.2343 590.558 97.64 590.888 99.0698 591.059C99.0698 591.059 98.9479 591.663 98.8374 592.706C99.2631 592.963 99.6926 593.214 100.126 593.459C100.691 593.78 101.264 594.091 101.843 594.392C102.077 594.516 102.313 594.634 102.548 594.753C102.893 594.928 103.239 595.097 103.588 595.262C103.648 595.291 103.709 595.32 103.769 595.347C103.996 595.456 104.227 595.562 104.458 595.668C107.462 597.038 110.588 598.133 113.794 598.942C113.812 598.947 113.828 598.95 113.846 598.955C114.055 599.008 114.267 599.059 114.478 599.109C114.635 599.147 114.795 599.184 114.954 599.219C114.974 599.226 114.994 599.231 115.014 599.234C115.341 599.309 115.667 599.382 115.997 599.447C116.182 599.486 116.368 599.524 116.553 599.561C116.665 599.585 116.779 599.606 116.891 599.627C117.032 599.654 117.172 599.68 117.313 599.707C117.391 599.724 117.469 599.736 117.549 599.749C117.727 599.781 117.906 599.813 118.083 599.844C118.386 599.895 118.691 599.945 118.995 599.99C119.216 600.024 119.435 600.056 119.656 600.086C119.916 600.123 120.176 600.157 120.438 600.189C120.509 600.2 120.581 600.208 120.652 600.216C120.745 600.228 120.837 600.239 120.93 600.25C121.117 600.273 121.304 600.293 121.492 600.313C121.59 600.324 121.686 600.334 121.783 600.343C121.968 600.362 122.153 600.38 122.339 600.396C122.578 600.419 122.816 600.438 123.057 600.457C123.349 600.48 123.64 600.501 123.934 600.518C124.123 600.529 124.311 600.541 124.501 600.55C124.986 600.576 125.47 600.594 125.957 600.606C126.199 600.613 126.443 600.618 126.687 600.621H126.692C126.934 600.624 127.177 600.626 127.421 600.626C129.891 600.627 132.358 600.464 134.806 600.138C136.601 599.9 138.368 599.578 140.106 599.171C140.176 599.155 140.246 599.139 140.314 599.121C140.489 599.081 140.663 599.038 140.837 598.995C140.992 598.956 141.144 598.916 141.299 598.876C145.277 597.853 149.125 596.389 152.77 594.511C152.788 594.501 152.807 594.492 152.825 594.482C152.931 594.427 153.035 594.374 153.139 594.318C144.22 592.265 130.126 589.027 117.896 586.253C117.554 586.176 117.213 586.099 116.874 586.022C112.357 584.997 108.126 584.044 104.547 583.246C104.177 583.164 103.814 583.084 103.458 583.005C99.6125 582.151 96.626 581.502 95.0061 581.178C94.5695 581.08 94.128 581.003 93.6835 580.949L90.3023 586.126L90.2958 586.136Z" fill="#2F2E41"/>
<path d="M156.107 533.001C151.718 533.001 148.16 529.486 148.16 525.149C148.16 520.812 151.718 517.297 156.107 517.297C160.496 517.297 164.055 520.812 164.055 525.149C164.055 529.486 160.496 533.001 156.107 533.001Z" fill="#2F2E41"/>
<path d="M107.289 530.758C102.9 530.758 99.3413 527.242 99.3413 522.905C99.3413 518.569 102.9 515.053 107.289 515.053C111.678 515.053 115.236 518.569 115.236 522.905C115.236 527.242 111.678 530.758 107.289 530.758Z" fill="#2F2E41"/>
<path d="M115.803 519.54C115.803 517.603 115.078 515.735 113.768 514.294C112.459 512.853 110.656 511.941 108.707 511.734C109.817 511.614 110.94 511.727 112.003 512.064C113.066 512.402 114.045 512.957 114.876 513.694C115.707 514.43 116.372 515.331 116.827 516.339C117.282 517.346 117.518 518.437 117.518 519.54C117.518 520.643 117.282 521.734 116.827 522.741C116.372 523.748 115.707 524.65 114.876 525.386C114.045 526.123 113.066 526.678 112.003 527.016C110.94 527.353 109.817 527.466 108.707 527.346C110.656 527.139 112.459 526.227 113.768 524.786C115.078 523.345 115.803 521.477 115.803 519.54Z" fill="#2F2E41"/>
<path d="M164.989 531.501C166.361 530.117 167.166 528.281 167.251 526.347C167.336 524.412 166.695 522.514 165.45 521.018C166.327 521.7 167.05 522.557 167.57 523.533C168.09 524.509 168.396 525.583 168.468 526.684C168.54 527.784 168.376 528.888 167.988 529.922C167.6 530.956 166.995 531.898 166.214 532.686C165.432 533.474 164.492 534.091 163.453 534.495C162.414 534.9 161.301 535.084 160.186 535.035C159.07 534.987 157.978 534.706 156.979 534.212C155.981 533.719 155.099 533.023 154.391 532.169C155.93 533.369 157.864 533.964 159.82 533.841C161.776 533.717 163.617 532.884 164.989 531.501Z" fill="#2F2E41"/>
<path d="M131.696 531.88C141.102 531.88 148.727 536.274 148.727 541.695C148.727 544.121 147.194 546.338 144.664 548.05L141.385 545.703L142.277 549.38C141.907 549.549 141.529 549.713 141.135 549.865L136.238 544.219V551.155C134.736 551.393 133.217 551.512 131.696 551.511C122.291 551.511 114.666 547.116 114.666 541.695C114.666 536.274 122.291 531.88 131.696 531.88Z" fill="#2F2E41"/>
<path d="M115.234 522.905C115.234 522.905 116.468 528.514 108.755 530.758L115.234 522.905Z" fill="#2F2E41"/>
<path d="M148.73 523.926C148.73 523.926 145.891 530.197 154.406 533.001L148.73 523.926Z" fill="#2F2E41"/>
<path d="M144.52 559.81C143.804 559.612 143.613 558.074 144.094 556.376C144.575 554.678 145.546 553.462 146.262 553.66C146.978 553.858 147.169 555.395 146.687 557.094C146.206 558.792 145.236 560.008 144.52 559.81Z" fill="#D0CDE1"/>
<path d="M111.731 554.156C111.621 552.396 112.134 550.932 112.876 550.887C113.618 550.842 114.309 552.232 114.419 553.992C114.528 555.752 114.015 557.216 113.273 557.261C112.531 557.306 111.84 555.916 111.731 554.156Z" fill="#D0CDE1"/>
<path d="M9.34422 122.216C9.33442 129.562 10.8393 136.832 13.767 143.584L13.949 143.998C18.9013 155.13 27.4885 164.299 38.3373 170.04C49.1862 175.78 61.67 177.761 73.7925 175.664C74.1223 175.606 74.4516 175.547 74.7803 175.484C78.1773 174.834 81.5037 173.865 84.7145 172.59C85.236 172.383 85.7538 172.168 86.2678 171.946C86.6187 171.795 86.9697 171.64 87.3174 171.479C96.8292 167.123 104.882 160.172 110.528 151.444C116.174 142.715 119.176 132.575 119.182 122.216C119.182 92.2485 94.5933 67.9542 64.2629 67.9542C33.9325 67.9542 9.34422 92.2485 9.34422 122.216Z" fill="#495464"/>
<path opacity="0.2" d="M73.7919 175.664C74.1218 175.606 74.4511 175.546 74.7798 175.484C74.9943 169.334 75.7303 156.711 78.2407 143.491C79.6136 136.255 81.5196 128.838 84.1631 122.208C85.0688 119.914 86.1033 117.671 87.2617 115.491C89.9329 110.506 93.1728 106.31 97.1016 103.467L96.5231 102.687C93.2556 105.053 90.319 108.375 87.7134 112.653C86.9318 113.934 86.1812 115.301 85.4614 116.753C84.6896 118.307 83.9535 119.957 83.2532 121.702C82.8064 122.813 82.3747 123.963 81.9583 125.151C80.145 130.309 78.6035 136.194 77.334 142.807C77.0529 144.268 76.7854 145.764 76.5314 147.297C74.5637 159.172 73.9707 170.151 73.7919 175.664Z" fill="black"/>
<path opacity="0.2" d="M86.2679 171.946C86.6189 171.795 86.9699 171.64 87.3176 171.479C87.6572 167.835 88.2811 163.314 89.4217 159.023C89.9213 157.096 90.5626 155.207 91.3406 153.372C92.6421 150.362 94.327 147.803 96.5059 146.225L95.9274 145.446C93.6462 147.097 91.8865 149.705 90.5266 152.757C88.9944 156.196 87.9724 160.198 87.2916 164.022C86.7863 166.862 86.4678 169.606 86.2679 171.946Z" fill="black"/>
<path opacity="0.2" d="M102.568 103.445C99.8681 103.445 97.6793 101.282 97.6793 98.6142C97.6793 95.9465 99.8681 93.7838 102.568 93.7838C105.268 93.7838 107.457 95.9465 107.457 98.6142C107.457 101.282 105.268 103.445 102.568 103.445Z" fill="black"/>
<path opacity="0.2" d="M100.994 145.025C98.2939 145.025 96.1051 142.863 96.1051 140.195C96.1051 137.527 98.2939 135.365 100.994 135.365C103.694 135.365 105.883 137.527 105.883 140.195C105.883 142.863 103.694 145.025 100.994 145.025Z" fill="black"/>
<path opacity="0.2" d="M83.1582 106.728C84.195 112.507 81.9064 117.739 81.9064 117.739C81.9064 117.739 77.937 113.603 76.9002 107.824C75.8635 102.045 78.1521 96.8119 78.1521 96.8119C78.1521 96.8119 82.1215 100.949 83.1582 106.728Z" fill="black"/>
<path opacity="0.2" d="M99.4059 120.446C93.8271 122.461 88.2212 121.168 88.2212 121.168C88.2212 121.168 91.6603 116.606 97.2391 114.591C102.818 112.575 108.424 113.869 108.424 113.869C108.424 113.869 104.985 118.43 99.4059 120.446Z" fill="black"/>
<path opacity="0.2" d="M100.351 157.267C96.4405 158.68 92.5056 157.758 92.5056 157.758C92.5056 157.758 94.9106 154.546 98.8209 153.133C102.731 151.721 106.666 152.642 106.666 152.642C106.666 152.642 104.261 155.854 100.351 157.267Z" fill="black"/>
<path d="M64.3749 134.232C52.5504 134.232 42.9647 124.761 42.9647 113.078C42.9647 101.395 52.5504 91.9241 64.3749 91.9241C76.1995 91.9241 85.7852 101.395 85.7852 113.078C85.7852 124.761 76.1995 134.232 64.3749 134.232Z" fill="#D0CDE1"/>
<path d="M72.7402 129.274C72.7402 129.274 70.064 141.835 70.064 143.157C70.064 144.479 57.3517 150.429 57.3517 150.429L45.9775 148.445L41.9631 136.546C41.9631 136.546 48.6538 126.63 48.6538 122.664L72.7402 129.274Z" fill="#D0CDE1"/>
<path d="M13.7665 143.584L13.9485 143.998C18.9009 155.13 27.4881 164.299 38.3369 170.04C49.1858 175.78 61.6696 177.761 73.792 175.664C74.1219 175.607 74.4512 175.547 74.7799 175.485C78.1769 174.834 81.5033 173.865 84.714 172.59C85.2356 172.383 85.7534 172.168 86.2673 171.946C86.6183 171.795 86.9693 171.64 87.317 171.479C90.4687 170.036 93.4745 168.301 96.2941 166.297L98.832 159.023L97.4054 157.947L94.471 155.733L91.34 153.372L90.526 152.757L78.2408 143.491L77.3341 142.807L70.9486 137.991L70.947 137.989C70.947 137.989 64.0415 149.106 54.005 145.801C43.9686 142.495 44.1879 133.017 44.1879 133.017L13.7665 143.584Z" fill="#2F2E41"/>
<path d="M82.9432 96.0351C82.9432 96.0351 76.1455 81.483 63.1167 84.8411C50.0878 88.1993 42.7237 93.2366 42.1573 98.2739C41.5908 103.311 42.4405 110.867 42.4405 110.867C42.4405 110.867 43.8567 100.513 52.9202 102.751C61.9837 104.99 76.1455 103.311 76.1455 103.311L78.4114 123.46C78.4114 123.46 80.9605 119.822 83.7929 122.061C86.6252 124.3 92.0067 100.513 82.9432 96.0351Z" fill="#2F2E41"/>
<path d="M84.7161 172.59C85.2376 172.383 85.7554 172.168 86.2694 171.946C86.6203 171.795 86.9713 171.64 87.319 171.479C92.5316 169.091 97.3336 165.911 101.551 162.055C100.058 160.045 98.8341 159.023 98.8341 159.023H88.7976L87.293 164.022L84.7161 172.59Z" fill="#2F2E41"/>
<path d="M22.5593 142.495L13.9495 143.998C16.2536 149.184 19.3654 153.982 23.1719 158.217L22.5593 142.495Z" fill="#2F2E41"/>
</svg>
