<svg width="600" height="600" viewBox="0 0 600 600" fill="none" xmlns="http://www.w3.org/2000/svg">
<path d="M565.2 192.84C561.851 183.601 558.001 174.552 553.668 165.732C515.628 88.356 444.828 35.892 357.672 22.104C353.92 21.504 350.152 20.98 346.368 20.532C275.232 12 175.644 22.644 135.036 88.404C113.952 122.556 122.604 165.624 100.236 198.804C71.2799 241.872 34.0559 263.388 27.1679 330.6C22.0919 380.052 24.4559 433.5 59.4239 472.944C100.632 519.444 171.348 535.452 231.756 526.524C290.388 517.872 342.876 488.916 394.152 461.724C442.824 435.912 498.552 417.168 537.936 377.724C587.664 327.888 587.628 255.036 565.2 192.84Z" fill="#495464"/>
<path opacity="0.7" d="M565.2 192.84C561.851 183.601 558.001 174.552 553.668 165.732C515.628 88.356 444.828 35.892 357.672 22.104C353.92 21.504 350.152 20.98 346.368 20.532C275.232 12 175.644 22.644 135.036 88.404C113.952 122.556 122.604 165.624 100.236 198.804C71.2799 241.872 34.0559 263.388 27.1679 330.6C22.0919 380.052 24.4559 433.5 59.4239 472.944C100.632 519.444 171.348 535.452 231.756 526.524C290.388 517.872 342.876 488.916 394.152 461.724C442.824 435.912 498.552 417.168 537.936 377.724C587.664 327.888 587.628 255.036 565.2 192.84Z" fill="white"/>
<path d="M312 580.8C455.815 580.8 572.4 573.547 572.4 564.6C572.4 555.653 455.815 548.4 312 548.4C168.185 548.4 51.5996 555.653 51.5996 564.6C51.5996 573.547 168.185 580.8 312 580.8Z" fill="#263238"/>
<g opacity="0.2">
<path opacity="0.2" d="M458.545 458.52C458.545 453.144 461.305 450.12 466.453 450.12C471.601 450.12 474.361 453.108 474.361 458.52V475.68C474.361 481.056 471.601 484.08 466.453 484.08C461.305 484.08 458.545 481.092 458.545 475.68V458.52ZM463.765 476.052C463.765 478.368 464.737 479.34 466.453 479.34C468.169 479.34 469.141 478.368 469.141 476.052V458.148C469.141 455.832 468.097 454.86 466.453 454.86C464.809 454.86 463.765 455.832 463.765 458.148V476.052ZM487.045 450.528H491.905L471.301 502.8H466.501L487.045 450.528ZM484.441 477.6C484.441 472.224 487.201 469.2 492.349 469.2C497.497 469.2 500.257 472.188 500.257 477.6V494.76C500.257 500.136 497.497 503.16 492.349 503.16C487.201 503.16 484.441 500.172 484.441 494.76V477.6ZM489.661 495.132C489.661 497.448 490.633 498.42 492.349 498.42C494.065 498.42 495.037 497.448 495.037 495.132V477.252C495.037 474.936 493.993 473.964 492.349 473.964C490.705 473.964 489.661 474.936 489.661 477.252V495.132Z" stroke="black" stroke-miterlimit="10"/>
</g>
<g opacity="0.2">
<path opacity="0.2" d="M474.516 366C474.516 358.38 478.428 354.144 485.724 354.144C493.02 354.144 496.944 358.38 496.944 366V390.324C496.944 397.944 493.032 402.18 485.724 402.18C478.416 402.18 474.516 397.944 474.516 390.324V366ZM481.92 390.852C481.92 394.14 483.3 395.508 485.724 395.508C488.148 395.508 489.54 394.14 489.54 390.852V365.472C489.54 362.184 488.052 360.816 485.724 360.816C483.396 360.816 481.92 362.184 481.92 365.472V390.852ZM514.92 354.672H521.796L492.6 428.724H485.724L514.92 354.672ZM511.224 393.072C511.224 385.464 515.136 381.228 522.432 381.228C529.728 381.228 533.652 385.464 533.652 393.072V417.408C533.652 425.028 529.728 429.252 522.432 429.252C515.136 429.252 511.224 425.028 511.224 417.408V393.072ZM518.628 417.936C518.628 421.212 520.008 422.592 522.432 422.592C524.856 422.592 526.248 421.212 526.248 417.936V392.544C526.248 389.268 524.76 387.888 522.432 387.888C520.104 387.888 518.628 389.268 518.628 392.544V417.936Z" stroke="black" stroke-miterlimit="10"/>
</g>
<g opacity="0.2">
<path opacity="0.2" d="M87.7676 99.5041C87.7676 94.2721 90.4556 91.3561 95.4716 91.3561C100.488 91.3561 103.2 94.2721 103.2 99.5041V116.22C103.2 121.452 100.512 124.356 95.4956 124.356C90.4796 124.356 87.7916 121.452 87.7916 116.22L87.7676 99.5041ZM92.8556 116.58C92.8556 118.836 93.8036 119.784 95.4716 119.784C97.1396 119.784 98.0876 118.836 98.0876 116.58V99.1321C98.0876 96.8881 97.0676 95.9401 95.4716 95.9401C93.8756 95.9401 92.8556 96.8881 92.8556 99.1321V116.58ZM115.536 91.7161H120.264L100.2 142.608H95.4716L115.536 91.7161ZM112.992 118.116C112.992 112.884 115.68 109.98 120.696 109.98C125.712 109.98 128.4 112.872 128.4 118.104V134.832C128.4 140.064 125.712 142.968 120.696 142.968C115.68 142.968 112.992 140.064 112.992 134.832V118.116ZM118.08 135.204C118.08 137.46 119.016 138.396 120.696 138.396C122.376 138.396 123.312 137.46 123.312 135.204V117.744C123.312 115.488 122.292 114.552 120.696 114.552C119.1 114.552 118.08 115.488 118.08 117.744V135.204Z" stroke="black" stroke-miterlimit="10"/>
</g>
<g opacity="0.2">
<path opacity="0.2" d="M317.473 48.336C317.473 43.104 320.161 40.188 325.177 40.188C330.193 40.188 332.881 43.104 332.881 48.336V65.052C332.881 70.284 330.193 73.188 325.177 73.188C320.161 73.188 317.473 70.284 317.473 65.052V48.336ZM322.561 65.412C322.561 67.668 323.509 68.616 325.177 68.616C326.845 68.616 327.793 67.668 327.793 65.412V48C327.793 45.756 326.773 44.808 325.177 44.808C323.581 44.808 322.561 45.756 322.561 48V65.412ZM345.241 40.548H349.969L329.905 91.44H325.201L345.241 40.548ZM342.697 66.948C342.697 61.716 345.385 58.812 350.401 58.812C355.417 58.812 358.105 61.716 358.105 66.948V83.664C358.105 88.896 355.417 91.8 350.401 91.8C345.385 91.8 342.697 88.896 342.697 83.664V66.948ZM347.785 84C347.785 86.256 348.733 87.192 350.401 87.192C352.069 87.192 353.017 86.256 353.017 84V66.576C353.017 64.32 351.997 63.384 350.401 63.384C348.805 63.384 347.785 64.32 347.785 66.576V84Z" stroke="black" stroke-miterlimit="10"/>
</g>
<g opacity="0.2">
<path opacity="0.2" d="M513.768 166.8C513.768 164.04 515.184 162.504 517.824 162.504C520.464 162.504 521.892 164.04 521.892 166.8V175.62C521.892 178.38 520.476 179.916 517.824 179.916C515.172 179.916 513.768 178.38 513.768 175.62V166.8ZM516.444 175.812C516.444 177.012 516.948 177.492 517.824 177.492C518.7 177.492 519.216 177 519.216 175.812V166.608C519.216 165.408 518.676 164.916 517.824 164.916C516.972 164.916 516.444 165.42 516.444 166.608V175.812ZM528.444 162.696H530.94L520.356 189.54H517.86L528.444 162.696ZM527.112 176.616C527.112 173.856 528.528 172.32 531.168 172.32C533.808 172.32 535.236 173.856 535.236 176.616V185.436C535.236 188.196 533.82 189.732 531.168 189.732C528.516 189.732 527.112 188.196 527.112 185.436V176.616ZM529.788 185.628C529.788 186.828 530.292 187.308 531.168 187.308C532.044 187.308 532.548 186.816 532.548 185.628V176.4C532.548 175.2 532.02 174.708 531.168 174.708C530.316 174.708 529.788 175.212 529.788 176.4V185.628Z" stroke="black" stroke-miterlimit="10"/>
</g>
<g opacity="0.2">
<path opacity="0.2" d="M487.717 153.684V149.424H495.085V153.684C501.481 154.992 504.757 159.912 504.757 167.688V169.5H496.237V167.1C496.237 162.996 494.593 161.448 491.725 161.448C488.857 161.448 487.225 162.996 487.225 167.1C487.225 178.884 504.829 179.46 504.829 195.84C504.829 203.628 501.481 208.62 495.085 209.928V214.104H487.717V210C481.249 208.692 477.973 203.7 477.973 195.912V192H486.493V196.5C486.493 200.592 488.293 202.068 491.161 202.068C494.029 202.068 495.829 200.592 495.829 196.5C495.829 184.704 478.213 184.128 478.213 167.7C478.213 159.996 481.405 155.076 487.717 153.684Z" stroke="black" stroke-miterlimit="10"/>
</g>
<g opacity="0.2">
<path opacity="0.2" d="M65.22 202.68V195.024H78.42V202.68C89.892 205.08 95.772 213.852 95.772 227.82V231.06H80.52V226.8C80.52 219.444 77.568 216.648 72.42 216.648C67.272 216.648 64.332 219.444 64.332 226.8C64.332 247.98 95.952 249 95.952 278.4C95.952 292.368 89.952 301.344 78.456 303.696V311.196H65.256V303.72C53.64 301.32 47.748 292.392 47.748 278.424V271.356H63.012V279.444C63.012 286.8 66.252 289.452 71.412 289.452C76.572 289.452 79.812 286.8 79.812 279.444C79.812 258.264 48.192 257.244 48.192 227.844C48.156 213.996 53.892 205.2 65.22 202.68Z" stroke="black" stroke-miterlimit="10"/>
</g>
<g opacity="0.2">
<path opacity="0.2" d="M68.1963 392.64V389.736H73.2003V392.64C77.5443 393.528 79.7643 396.864 79.7643 402.156V403.356H73.9923V401.748C73.9923 398.964 72.8763 397.896 70.9203 397.896C68.9643 397.896 67.8603 398.964 67.8603 401.748C67.8603 409.764 79.8603 410.148 79.8603 421.284C79.8603 426.576 77.5803 429.972 73.2363 430.884V433.716H68.1963V430.884C63.7923 429.984 61.5723 426.588 61.5723 421.284V418.62H67.3563V421.68C67.3563 424.464 68.5563 425.46 70.5363 425.46C72.5163 425.46 73.7043 424.464 73.7043 421.68C73.7043 413.664 61.7043 413.28 61.7043 402.132C61.7403 396.924 63.9123 393.6 68.1963 392.64Z" stroke="black" stroke-miterlimit="10"/>
</g>
<g opacity="0.2">
<path opacity="0.2" d="M190.092 471.336V468.432H195.096V471.336C199.44 472.224 201.672 475.56 201.672 480.852V482.052H195.876V480.444C195.876 477.66 194.76 476.592 192.816 476.592C190.872 476.592 189.756 477.66 189.756 480.444C189.756 488.46 201.756 488.844 201.756 499.98C201.756 505.272 199.476 508.668 195.132 509.58V512.4H190.128V509.568C185.724 508.668 183.492 505.272 183.492 499.968V497.304H189.288V500.4C189.288 503.184 190.488 504.192 192.468 504.192C194.448 504.192 195.6 503.184 195.6 500.4C195.6 492.384 183.6 492 183.6 480.852C183.6 475.62 185.796 472.284 190.092 471.336Z" stroke="black" stroke-miterlimit="10"/>
</g>
<g opacity="0.2">
<path opacity="0.2" d="M193.56 56.5199V53.6279H198.576V56.5199C202.92 57.4079 205.14 60.7559 205.14 66.0479V67.2479H199.356V65.6519C199.356 62.8679 198.24 61.8119 196.296 61.8119C194.352 61.8119 193.224 62.8679 193.224 65.6519C193.224 73.6679 205.224 74.0519 205.224 85.1999C205.224 90.4919 202.944 93.8879 198.6 94.7999V97.6439H193.56V94.7999C189.168 93.9119 186.936 90.5159 186.936 85.1999V82.5239H192.732V85.5959C192.732 88.3799 193.932 89.3759 195.9 89.3759C197.868 89.3759 199.08 88.3799 199.08 85.5959C199.08 77.5679 187.08 77.1959 187.08 66.0479C187.104 60.8039 189.276 57.4679 193.56 56.5199Z" stroke="black" stroke-miterlimit="10"/>
</g>
<path d="M429.252 78.0601H237.192C227.569 78.0601 219.768 85.861 219.768 95.4841V503.436C219.768 513.059 227.569 520.86 237.192 520.86H429.252C438.875 520.86 446.676 513.059 446.676 503.436V95.4841C446.676 85.861 438.875 78.0601 429.252 78.0601Z" fill="#263238"/>
<path d="M340.116 506.46C340.118 504.933 339.667 503.44 338.821 502.17C337.975 500.899 336.77 499.909 335.361 499.323C333.951 498.737 332.399 498.582 330.902 498.879C329.404 499.175 328.028 499.909 326.948 500.988C325.867 502.066 325.131 503.441 324.833 504.938C324.534 506.435 324.686 507.987 325.27 509.398C325.853 510.809 326.842 512.014 328.112 512.863C329.381 513.711 330.873 514.164 332.4 514.164C334.444 514.164 336.405 513.353 337.851 511.908C339.298 510.464 340.112 508.504 340.116 506.46V506.46Z" stroke="white" stroke-linecap="round" stroke-linejoin="round"/>
<path opacity="0.3" d="M362.592 78.0601H237.192C232.57 78.0601 228.139 79.8958 224.871 83.1634C221.603 86.4311 219.768 90.8629 219.768 95.484V442.284L362.592 78.0601Z" fill="white"/>
<path d="M436.583 108.132H229.859V494.58H436.583V108.132Z" fill="white" stroke="#263238" stroke-linecap="round" stroke-linejoin="round"/>
<path d="M429.538 112.14H412.402V121.536H429.538V112.14Z" stroke="#263238" stroke-width="0.821067" stroke-linecap="round" stroke-linejoin="round"/>
<path d="M425.77 112.14H412.402V121.536H425.77V112.14Z" fill="#263238" stroke="#263238" stroke-width="0.725073" stroke-linecap="round" stroke-linejoin="round"/>
<path d="M431.928 114.768H429.516V118.908H431.928V114.768Z" fill="#263238" stroke="#263238" stroke-width="0.725073" stroke-linecap="round" stroke-linejoin="round"/>
<path d="M237.66 115.056H234.516V120.444H237.66V115.056Z" fill="#263238" stroke="#263238" stroke-width="0.883086" stroke-linecap="round" stroke-linejoin="round"/>
<path d="M242.591 113.16H239.447V120.444H242.591V113.16Z" fill="#263238" stroke="#263238" stroke-width="0.883086" stroke-linecap="round" stroke-linejoin="round"/>
<path d="M247.535 110.928H244.391V120.444H247.535V110.928Z" fill="#263238" stroke="#263238" stroke-width="0.883086" stroke-linecap="round" stroke-linejoin="round"/>
<path d="M431.699 126.768H233.195V141.696H431.699V126.768Z" fill="#495464"/>
<path d="M256.115 256.044V163.716C256.115 161.1 257.154 158.591 259.004 156.741C260.854 154.891 263.363 153.852 265.979 153.852H398.915C401.531 153.852 404.04 154.891 405.89 156.741C407.74 158.591 408.779 161.1 408.779 163.716V195.6" stroke="#263238" stroke-miterlimit="10" stroke-linecap="round"/>
<path d="M256.115 274.668V263.808" stroke="#263238" stroke-miterlimit="10" stroke-linecap="round"/>
<path d="M408.779 206.4V444.024H256.115V287.076" stroke="#263238" stroke-miterlimit="10" stroke-linecap="round"/>
<path d="M288.756 358.5C288.756 358.5 288.084 305.7 293.436 287.592C295.74 279.945 300.419 273.23 306.794 268.419C313.169 263.608 320.91 260.951 328.896 260.832C342.276 260.832 367.02 271.536 373.716 297.624C380.412 323.712 375.048 356.496 374.388 359.844C373.728 363.192 366.36 372.552 365.016 354.492C363.672 336.432 366.36 294.288 361.008 282.24C355.656 270.192 340.272 261.504 326.208 264.852C312.144 268.2 304.8 274.212 302.136 291.6C299.472 308.988 304.812 349.128 301.464 357.816C298.116 366.504 290.1 370.548 288.756 358.5Z" fill="#263238"/>
<path d="M241.764 330.912C241.764 330.912 287.916 326.904 342.108 326.904C396.3 326.904 421.704 330.24 422.4 333.6C423.096 336.96 415.044 380.4 415.044 384.444C415.044 388.488 415.044 444.648 413.7 448.044C412.356 451.44 406.344 454.044 403.668 454.728C400.992 455.412 260.52 456.732 256.5 456.732C252.48 456.732 249.144 452.724 249.144 448.704C249.144 444.684 251.148 400.548 247.812 384.492C244.476 368.436 241.764 330.912 241.764 330.912Z" fill="#495464" stroke="#263238" stroke-linecap="round" stroke-linejoin="round"/>
<path d="M291.263 352.992C291.263 352.992 290.591 300.192 295.943 282.084C298.246 274.436 302.925 267.72 309.3 262.909C315.675 258.098 323.417 255.441 331.403 255.324C344.783 255.324 369.527 266.028 376.223 292.116C382.919 318.204 377.555 350.976 376.883 354.324C376.211 357.672 368.855 367.032 367.523 348.972C366.191 330.912 368.855 288.768 363.515 276.732C358.175 264.696 342.767 255.996 328.715 259.332C314.663 262.668 307.307 268.704 304.631 286.092C301.955 303.48 307.307 343.62 303.959 352.32C300.611 361.02 292.595 365.028 291.263 352.992Z" fill="#495464" stroke="#263238" stroke-linecap="round" stroke-linejoin="round"/>
<path d="M254.471 331.584C254.471 331.584 251.123 367.032 251.123 380.412C251.123 393.791 250.451 402.491 250.451 402.491" fill="#495464"/>
<path d="M254.471 331.584C254.471 331.584 251.123 367.032 251.123 380.412C251.123 393.791 250.451 402.491 250.451 402.491" stroke="#263238" stroke-linecap="round" stroke-linejoin="round"/>
<path d="M411 332.256C411 332.256 412.344 367.704 412.344 388.44Z" fill="#495464"/>
<path d="M411 332.256C411 332.256 412.344 367.704 412.344 388.44" stroke="#263238" stroke-linecap="round" stroke-linejoin="round"/>
<path d="M288.588 166.944V164.544H292.68V166.944C296.28 167.676 298.056 170.412 298.056 174.744V175.74H293.316V174.42C293.316 172.14 292.416 171.276 290.82 171.276C289.224 171.276 288.312 172.14 288.312 174.42C288.312 180.984 298.104 181.296 298.104 190.416C298.104 194.736 296.232 197.52 292.68 198.252V200.568H288.588V198.252C284.988 197.52 283.164 194.736 283.164 190.416V188.22H287.904V190.728C287.904 193.008 288.9 193.824 290.496 193.824C292.092 193.824 293.088 193.008 293.088 190.728C293.088 184.164 283.296 183.852 283.296 174.744C283.296 170.46 285.072 167.724 288.588 166.944Z" fill="#263238"/>
<path d="M300.299 188.184L309.407 166.584H314.867V188.184H317.267V192.732H314.867V198.516H309.947V192.732H300.347L300.299 188.184ZM309.899 188.184V176.184L304.847 188.184H309.899Z" fill="#263238"/>
<path d="M319.115 174.288C319.115 169.176 321.803 166.26 326.723 166.26C331.643 166.26 334.331 169.176 334.331 174.288V190.872C334.331 195.972 331.643 198.888 326.723 198.888C321.803 198.888 319.115 195.972 319.115 190.872V174.288ZM324.119 191.184C324.119 193.464 325.127 194.328 326.723 194.328C328.319 194.328 329.315 193.464 329.315 191.184V174C329.315 171.72 328.319 170.856 326.723 170.856C325.127 170.856 324.119 171.72 324.119 174V191.184Z" fill="#263238"/>
<path d="M342.396 193.692V198.492H337.596V193.692H342.396Z" fill="#263238"/>
<path d="M360.756 190.596C360.756 195.972 358.296 198.888 353.1 198.888C348.18 198.888 345.636 195.972 345.636 190.872V190.044H350.436V191.184C350.436 193.464 351.432 194.328 353.028 194.328C354.804 194.328 355.8 193.464 355.8 190.416V184.584C355.401 185.468 354.744 186.211 353.915 186.714C353.086 187.218 352.124 187.458 351.156 187.404C347.472 187.404 345.6 184.812 345.6 180.12V174.288C345.6 169.176 348.288 166.26 353.208 166.26C358.128 166.26 360.816 169.176 360.816 174.288L360.756 190.596ZM355.74 179.7V174C355.74 171.72 354.744 170.904 353.148 170.904C351.552 170.904 350.556 171.72 350.556 174V179.736C350.556 182.016 351.552 182.88 353.148 182.88C354.744 182.88 355.74 181.98 355.74 179.7Z" fill="#263238"/>
<path d="M378.804 190.596C378.804 195.972 376.344 198.888 371.148 198.888C366.228 198.888 363.672 195.972 363.672 190.872V190.044H368.4V191.184C368.4 193.464 369.408 194.328 371.004 194.328C372.78 194.328 373.776 193.464 373.776 190.416V184.584C373.378 185.468 372.72 186.211 371.892 186.714C371.063 187.218 370.1 187.458 369.132 187.404C365.436 187.404 363.576 184.812 363.576 180.12V174.288C363.576 169.176 366.264 166.26 371.184 166.26C376.104 166.26 378.792 169.176 378.792 174.288L378.804 190.596ZM373.788 179.7V174C373.788 171.72 372.792 170.904 371.196 170.904C369.6 170.904 368.592 171.72 368.592 174V179.736C368.592 182.016 369.6 182.88 371.196 182.88C372.792 182.88 373.788 181.98 373.788 179.7Z" fill="#263238"/>
<path d="M302.676 216.072C302.676 211.788 304.8 209.016 309.084 209.016C313.368 209.016 315.54 211.788 315.54 216.072V230.58C315.54 234.828 313.416 237.636 309.084 237.636C304.752 237.636 302.676 234.828 302.676 230.58V216.072ZM305.76 230.748C305.76 233.304 306.84 234.792 309.084 234.792C311.328 234.792 312.42 233.304 312.42 230.748V215.916C312.42 213.384 311.376 211.86 309.084 211.86C306.792 211.86 305.76 213.384 305.76 215.916V230.748Z" fill="#263238"/>
<path d="M321.275 237.36H318.467V209.304H322.439L328.931 229.584V209.304H331.703V237.36H328.451L321.251 214.668L321.275 237.36Z" fill="#263238"/>
<path d="M334.908 237.36V209.304H338.028V234.504H346.056V237.348L334.908 237.36Z" fill="#263238"/>
<path d="M350.903 227.292L344.975 209.292H348.215L352.583 223.08L356.999 209.292H359.999L353.999 227.292V237.36H350.915L350.903 227.292Z" fill="#263238"/>
<path d="M423.402 461.064C430.836 442.731 421.999 421.843 403.666 414.41C385.333 406.976 364.445 415.813 357.012 434.146C349.579 452.479 358.415 473.367 376.748 480.8C395.081 488.233 415.969 479.397 423.402 461.064Z" fill="#263238"/>
<path d="M373.416 424.416C376.56 424.416 378.216 426.3 378.216 429.588V430.236H375.12V429.384C375.12 427.908 374.532 427.356 373.512 427.356C372.492 427.356 371.892 427.908 371.892 429.384C371.892 433.608 378.204 434.4 378.204 440.268C378.204 443.556 376.56 445.44 373.404 445.44C370.248 445.44 368.604 443.556 368.604 440.268V439.008H371.652V440.472C371.652 441.936 372.3 442.476 373.32 442.476C374.34 442.476 375 441.936 375 440.472C375 436.248 368.687 435.456 368.687 429.588C368.663 426.3 370.284 424.416 373.416 424.416Z" fill="white"/>
<path d="M390.503 445.2H387.239L386.687 441.468H382.727L382.163 445.2H379.199L382.487 424.656H387.215L390.503 445.2ZM383.135 438.684H386.243L384.695 428.292L383.135 438.684Z" fill="white"/>
<path d="M396.144 441.42L398.604 424.62H401.568L398.4 445.2H393.6L390.432 424.656H393.684L396.144 441.42Z" fill="white"/>
<path d="M406.296 433.308H410.724V436.248H406.296V442.248H411.876V445.2H403.068V424.656H411.876V427.596H406.296V433.308Z" fill="white"/>
<path d="M375.372 452.796C374.34 452.796 373.704 453.36 373.704 454.824V457.02H370.644V455.028C370.644 451.74 372.288 449.868 375.444 449.868C378.6 449.868 380.244 451.74 380.244 455.028C380.244 461.484 373.824 463.896 373.824 467.268C373.812 467.416 373.812 467.564 373.824 467.712H379.932V470.64H370.596V468.12C370.596 462.12 376.992 461.076 376.992 455.148C377.04 453.3 376.404 452.796 375.372 452.796Z" fill="white"/>
<path d="M382.008 455.028C382.008 451.74 383.736 449.868 386.904 449.868C390.072 449.868 391.812 451.74 391.812 455.028V465.708C391.812 468.996 390.072 470.88 386.904 470.88C383.736 470.88 382.008 468.996 382.008 465.708V455.028ZM385.236 465.912C385.236 467.388 385.884 467.94 386.904 467.94C387.924 467.94 388.584 467.388 388.584 465.912V454.8C388.584 453.336 387.936 452.772 386.904 452.772C385.872 452.772 385.2 453.36 385.2 454.8L385.236 465.912Z" fill="white"/>
<path d="M393.721 453.24C393.721 451.128 394.801 449.952 396.829 449.952C398.857 449.952 399.937 451.152 399.937 453.24V459.984C399.937 462.096 398.857 463.272 396.829 463.272C394.801 463.272 393.721 462.072 393.721 459.984V453.24ZM395.773 460.14C395.773 461.04 396.157 461.424 396.829 461.424C397.501 461.424 397.885 461.04 397.885 460.14V453.096C397.885 452.184 397.477 451.8 396.829 451.8C396.181 451.8 395.773 452.184 395.773 453.096V460.14ZM404.929 450.096H406.801L398.701 470.64H396.793L404.929 450.096ZM403.909 460.752C403.909 458.64 404.989 457.464 407.017 457.464C409.045 457.464 410.125 458.664 410.125 460.752V467.496C410.125 469.608 409.045 470.784 407.017 470.784C404.989 470.784 403.909 469.584 403.909 467.496V460.752ZM405.961 467.652C405.961 468.552 406.345 468.936 407.017 468.936C407.689 468.936 408.073 468.552 408.073 467.652V460.608C408.073 459.696 407.665 459.312 407.017 459.312C406.369 459.312 405.961 459.696 405.961 460.608V467.652Z" fill="white"/>
<path d="M194.401 190.476C194.401 190.476 200.401 214.476 196.405 220.92C192.409 227.364 180.937 230.148 179.929 234.384C178.921 238.62 177.937 244.872 181.933 246.384C183.711 247.116 185.545 247.702 187.417 248.136C187.417 248.136 183.433 251.88 175.945 252.12C168.457 252.36 161.221 251.376 158.725 242.64C156.229 233.904 153.745 233.664 157.981 227.424C162.217 221.184 170.209 208.968 175.693 203.976C181.177 198.984 185.425 189.012 189.913 188.256C194.401 187.5 194.401 190.476 194.401 190.476Z" fill="#263238" stroke="#263238" stroke-miterlimit="10" stroke-linecap="round"/>
<path d="M180.432 293.016L172.944 300.216L163.464 293.724C163.464 293.724 159.228 293.976 160.476 298.716C161.724 303.456 162.972 307.704 162.972 307.704L175.44 312L187.92 307.764C187.92 307.764 184.176 302.52 182.928 301.272C181.68 300.024 183.18 293.268 180.432 293.016Z" fill="white" stroke="#263238" stroke-miterlimit="10" stroke-linecap="round"/>
<path d="M170.184 426.756C170.184 426.756 167.544 452.112 166.752 454.488C165.96 456.864 164.904 478.488 159.624 494.364C154.344 510.24 143.508 545.076 143.508 545.076C144.515 549.103 146.511 552.816 149.316 555.876C154.116 561.156 165.696 568.812 164.376 570.132C163.056 571.452 162.264 571.716 153.816 571.716C145.368 571.716 141.66 570.66 137.7 568.548C133.74 566.436 132.9 565.38 128.988 564.588C125.076 563.796 122.64 562.188 122.904 559.572C123.168 556.956 126.6 547.68 128.196 543.72C129.792 539.76 131.1 530.784 131.892 522.324C132.684 513.864 133.476 500.148 133.476 500.148C133.476 500.148 138.276 473.196 141.396 461.58C144.516 449.964 145.62 446.784 145.62 443.088C145.62 439.392 143.22 430.416 143.22 430.416L170.184 426.756Z" fill="white" stroke="#263238" stroke-miterlimit="10" stroke-linecap="round"/>
<path d="M169.319 430.668L153.191 441.684L153.587 431.064L169.319 430.668Z" fill="#263238" stroke="#263238" stroke-miterlimit="10" stroke-linecap="round"/>
<path d="M149.316 555.912C147.052 553.394 145.299 550.46 144.156 547.272C143.282 547.136 142.388 547.286 141.605 547.699C140.823 548.112 140.194 548.766 139.812 549.564C137.7 553.008 137.7 554.592 137.7 554.592C137.7 554.592 129.528 551.688 125.7 550.392C124.521 553.382 123.59 556.465 122.916 559.608C122.652 562.248 125.028 563.832 129 564.624C132.972 565.416 133.8 566.472 137.712 568.584C141.624 570.696 145.368 571.752 153.828 571.752C162.288 571.752 163.068 571.488 164.388 570.168C165.708 568.848 154.08 561.192 149.316 555.912Z" fill="#495464" stroke="#263238" stroke-miterlimit="10" stroke-linecap="round"/>
<path d="M153.817 571.752C162.217 571.752 163.057 571.488 164.377 570.168C164.677 569.868 164.305 569.244 163.501 568.392C161.647 569.007 159.725 569.39 157.777 569.532C152.005 569.964 140.221 567.612 134.449 564.828C130.852 563.135 127.047 561.924 123.133 561.228C123.793 562.932 125.893 564.048 128.989 564.66C132.949 565.452 133.789 566.508 137.701 568.62C141.613 570.732 145.357 571.752 153.817 571.752Z" fill="white" stroke="#263238" stroke-miterlimit="10" stroke-linecap="round"/>
<path d="M115.776 427.284C115.776 427.284 125.808 456.336 126.576 457.92C127.344 459.504 117.864 475.092 116.544 491.196C115.224 507.3 111.264 536.628 109.416 545.076C107.568 553.524 105.456 559.08 107.304 561.456C109.152 563.832 117.6 574.392 125.52 578.892C133.44 583.392 135.036 582.06 134.508 576.78C133.98 571.5 126.108 560.4 124.464 554.328C122.82 548.256 123.408 542.964 123.408 538.476C123.408 533.988 129.492 513.912 137.94 499.116C146.388 484.32 152.208 472.176 153.264 464.256C154.32 456.336 153 443.652 153 437.58V427.284H115.776Z" fill="white" stroke="#263238" stroke-miterlimit="10" stroke-linecap="round"/>
<path d="M134.534 576.78C134.006 571.488 126.134 560.4 124.49 554.328C123.945 552.201 123.603 550.027 123.47 547.836C122.69 547.344 121.454 547.26 119.473 548.244C114.193 550.896 113.401 554.064 113.401 554.064L108.853 547.62C107.197 554.652 105.673 559.332 107.329 561.456C109.177 563.856 117.626 574.392 125.546 578.892C133.466 583.392 135.062 582.06 134.534 576.78Z" fill="#495464" stroke="#263238" stroke-miterlimit="10" stroke-linecap="round"/>
<path d="M134.617 578.652C132.577 579.636 130.645 579.12 128.029 578.1C125.089 576.96 112.429 564.768 106.621 559.02C106.593 559.875 106.841 560.717 107.329 561.42C109.177 563.82 117.625 574.356 125.545 578.856C132.421 582.78 134.521 582.3 134.617 578.652Z" fill="white" stroke="#263238" stroke-miterlimit="10" stroke-linecap="round"/>
<path d="M132.002 180.252C132.002 180.252 121.022 195.72 112.802 210.684C104.582 225.648 105.314 230.148 109.814 237.084L128.774 228.108C128.774 228.108 133.754 205.152 140.498 192.684C147.242 180.216 158.21 171.972 150.47 173.964C142.73 175.956 136.034 177.012 132.002 180.252Z" fill="#263238" stroke="#263238" stroke-miterlimit="10" stroke-linecap="round"/>
<path d="M122.557 226.152L121.885 226.44C115.416 229.371 109.743 233.806 105.337 239.376C98.353 248.604 107.509 302.76 107.737 305.256C107.965 307.752 106.189 309.708 103.189 317.196C100.189 324.684 88.789 339.996 90.349 362.1C91.273 374.784 100.981 404.28 104.221 412.26C107.08 418.701 110.347 424.954 114.001 430.98C114.001 430.98 118.801 432.72 137.449 435.216C148.888 436.637 160.495 434.733 170.881 429.732C170.881 429.732 177.121 401.04 177.361 381.084C177.601 361.128 174.385 345 170.893 336.516C167.401 328.032 166.345 313.776 166.345 313.776L163.753 296.256C163.753 296.256 172.741 286.032 173.737 280.788C175.213 273 173.989 269.316 170.737 262.584C167.485 255.852 160.765 237.132 160.009 235.884C159.253 234.636 157.729 235.2 148.801 224.4C139.873 213.6 122.557 226.152 122.557 226.152Z" fill="#495464" stroke="#263238" stroke-miterlimit="10" stroke-linecap="round"/>
<path d="M138.828 299.076C139.896 299.076 141.012 299.004 142.164 298.884" stroke="#263238" stroke-miterlimit="10" stroke-linecap="round"/>
<path d="M119.605 291.252C119.605 291.252 123.709 296.724 132.661 298.452" stroke="#263238" stroke-miterlimit="10" stroke-linecap="round"/>
<path d="M150.793 402.54C151.117 404.304 151.357 406.068 151.501 407.808Z" fill="#495464"/>
<path d="M150.793 402.54C151.117 404.304 151.357 406.068 151.501 407.808" stroke="#263238" stroke-miterlimit="10" stroke-linecap="round"/>
<path d="M135.6 366.144C135.6 366.144 146.112 382.404 150.096 399.3Z" fill="#495464"/>
<path d="M135.6 366.144C135.6 366.144 146.112 382.404 150.096 399.3" stroke="#263238" stroke-miterlimit="10" stroke-linecap="round"/>
<path d="M146.4 373.968C147.288 375.576 148.116 377.172 148.8 378.708Z" fill="#495464"/>
<path d="M146.4 373.968C147.288 375.576 148.116 377.172 148.8 378.708" stroke="#263238" stroke-miterlimit="10" stroke-linecap="round"/>
<path d="M134.965 356.232C134.965 356.232 139.765 362.76 144.193 370.116Z" fill="#495464"/>
<path d="M134.965 356.232C134.965 356.232 139.765 362.76 144.193 370.116" stroke="#263238" stroke-miterlimit="10" stroke-linecap="round"/>
<path d="M111.108 233.304C108.974 235.118 107.039 237.153 105.336 239.376C101.112 244.968 102.192 267.684 103.752 285.276C105.636 284.076 113.628 278.64 115.824 273.804C118.308 268.32 121.308 256.092 120.06 247.86C119.1 241.56 113.64 235.716 111.108 233.304Z" fill="white" stroke="#263238" stroke-miterlimit="10" stroke-linecap="round"/>
<path d="M164.221 251.604C164.029 249.72 160.297 239.46 158.473 234.54C157.057 233.436 154.369 231.12 148.753 224.412C139.765 213.684 122.557 226.152 122.557 226.152L121.885 226.44C118.676 227.887 115.6 229.614 112.693 231.6C112.993 231.888 115.093 233.364 115.417 233.688C120.217 238.296 124.621 250.02 124.621 250.02C124.621 250.02 132.649 255.696 136.141 258.192C139.633 260.688 150.541 272.592 150.541 272.592C150.541 272.592 164.473 254.1 164.221 251.604Z" fill="white" stroke="#263238" stroke-miterlimit="10" stroke-linecap="round"/>
<path d="M192.409 193.2C192.409 193.2 191.209 207.168 189.661 210.66C188.113 214.152 186.421 215.46 184.681 215.904C182.941 216.348 181.177 220.14 181.429 222.636C181.681 225.132 181.429 228.876 180.229 229.128L175.237 230.124C175.237 230.124 166.765 237.612 164.269 238.104C161.773 238.596 155.533 235.116 152.785 231.372C150.036 227.628 150.793 227.376 150.793 218.4C150.793 209.424 159.025 200.4 165.265 196.944C171.505 193.488 192.409 193.2 192.409 193.2Z" fill="white" stroke="#263238" stroke-miterlimit="10" stroke-linecap="round"/>
<path d="M177.193 216.672C177.193 216.672 172.453 218.676 169.213 214.932" stroke="#263238" stroke-miterlimit="10" stroke-linecap="round"/>
<path d="M179.185 212.184C175.907 210.406 172.097 209.873 168.457 210.684" stroke="#263238" stroke-miterlimit="10" stroke-linecap="round"/>
<path d="M164.221 225.408C164.221 225.408 164.473 229.644 170.953 231.144" stroke="#263238" stroke-miterlimit="10" stroke-linecap="round"/>
<path d="M155.233 202.704C155.233 202.704 171.205 201.204 182.185 197.964C193.165 194.724 196.645 193.968 196.645 189.228C196.645 184.488 188.173 174.012 177.445 168.528C166.717 163.044 156.481 163.284 142.765 171.516C129.049 179.748 116.365 199.956 123.301 204.456C130.237 208.956 155.233 202.704 155.233 202.704Z" fill="#263238" stroke="#263238" stroke-miterlimit="10" stroke-linecap="round"/>
<path d="M170.701 183.996C170.701 183.996 154.993 211.692 153.241 218.172C151.489 224.652 153.493 235.632 158.725 238.884C163.957 242.136 165.925 241.872 165.925 241.872C165.925 241.872 165.925 246.108 159.193 249.36C152.461 252.612 143.977 253.596 133.249 247.86C122.521 242.124 119.317 235.2 118.561 227.4C117.805 219.6 121.561 207 132.037 195.72" fill="#263238"/>
<path d="M170.701 183.996C170.701 183.996 154.993 211.692 153.241 218.172C151.489 224.652 153.493 235.632 158.725 238.884C163.957 242.136 165.925 241.872 165.925 241.872C165.925 241.872 165.925 246.108 159.193 249.36C152.461 252.612 143.977 253.596 133.249 247.86C122.521 242.124 119.317 235.2 118.561 227.4C117.805 219.6 121.561 207 132.037 195.72" stroke="#263238" stroke-miterlimit="10" stroke-linecap="round"/>
<path d="M169.956 318L184.932 316.128C185.576 316.046 186.178 315.769 186.66 315.336L197.712 305.352C197.785 305.28 197.834 305.188 197.852 305.088C197.87 304.987 197.856 304.884 197.812 304.791C197.769 304.699 197.698 304.623 197.609 304.573C197.52 304.523 197.418 304.501 197.316 304.512L164.22 309.516L155.232 319.992L169.956 318Z" fill="#263238" stroke="#263238" stroke-miterlimit="10" stroke-linecap="round"/>
<path d="M110.845 235.2C110.845 235.2 105.217 235.464 99.3127 246.732C94.3927 256.104 88.8727 303.948 88.1287 309.432C87.3847 314.916 86.3767 318.912 88.6327 319.416C90.8887 319.92 112.633 322.656 122.557 322.656C132.481 322.656 148.249 322.908 148.249 322.908C148.249 322.908 160.477 327.144 162.469 327.144C164.461 327.144 170.209 324.396 172.453 323.148C174.697 321.9 178.693 317.412 178.693 317.412C178.693 317.412 170.701 317.916 169.957 317.916C169.213 317.916 164.221 315.168 162.973 314.424C161.725 313.68 157.237 310.932 161.773 310.932C166.309 310.932 169.261 310.932 170.509 310.176C171.757 309.42 175.993 307.44 172.993 307.188C169.993 306.936 169.753 308.688 166.009 307.692C162.265 306.696 159.781 307.44 156.529 307.932C153.277 308.424 149.545 311.184 145.801 312.432C142.057 313.68 134.077 313.428 124.597 309.18C115.117 304.932 109.129 301.98 109.129 301.98L118.357 258.78" fill="white"/>
<path d="M110.845 235.2C110.845 235.2 105.217 235.464 99.3127 246.732C94.3927 256.104 88.8727 303.948 88.1287 309.432C87.3847 314.916 86.3767 318.912 88.6327 319.416C90.8887 319.92 112.633 322.656 122.557 322.656C132.481 322.656 148.249 322.908 148.249 322.908C148.249 322.908 160.477 327.144 162.469 327.144C164.461 327.144 170.209 324.396 172.453 323.148C174.697 321.9 178.693 317.412 178.693 317.412C178.693 317.412 170.701 317.916 169.957 317.916C169.213 317.916 164.221 315.168 162.973 314.424C161.725 313.68 157.237 310.932 161.773 310.932C166.309 310.932 169.261 310.932 170.509 310.176C171.757 309.42 175.993 307.44 172.993 307.188C169.993 306.936 169.753 308.688 166.009 307.692C162.265 306.696 159.781 307.44 156.529 307.932C153.277 308.424 149.545 311.184 145.801 312.432C142.057 313.68 134.077 313.428 124.597 309.18C115.117 304.932 109.129 301.98 109.129 301.98L118.357 258.78" stroke="#263238" stroke-miterlimit="10" stroke-linecap="round"/>
<path d="M179.437 298.26C179.437 298.26 175.441 306.492 178.237 307.98C181.033 309.468 181.477 304.74 183.229 299.496C184.981 294.252 185.473 290.772 182.473 291.768C181.626 292.027 180.849 292.476 180.202 293.082C179.556 293.687 179.056 294.432 178.741 295.26" fill="white"/>
<path d="M179.437 298.26C179.437 298.26 175.441 306.492 178.237 307.98C181.033 309.468 181.477 304.74 183.229 299.496C184.981 294.252 185.473 290.772 182.473 291.768C181.626 292.027 180.849 292.476 180.202 293.082C179.556 293.687 179.056 294.432 178.741 295.26" stroke="#263238" stroke-miterlimit="10" stroke-linecap="round"/>
</svg>
