<svg width="600" height="600" viewBox="0 0 600 600" fill="none" xmlns="http://www.w3.org/2000/svg">
<path d="M399.013 76.596C372.829 91.572 354.361 116.76 331.981 136.98C304.145 162.031 270.265 179.401 233.677 187.38C203.677 193.872 172.333 193.968 143.425 204.18C87.0246 223.968 48.3966 282.696 47.4246 342.408C46.4526 402.12 80.4246 460.008 130.357 492.744C147.362 503.899 165.979 512.377 185.557 517.884C222.277 528.216 261.217 527.76 299.161 523.812C364.705 516.984 433.417 479.76 474.733 427.284C493.149 403.83 508.715 378.271 521.101 351.144C541.563 306.539 553.185 258.391 555.325 209.364C557.065 167.364 555.325 120.804 522.001 90.192C488.677 59.58 438.073 54.24 399.013 76.596Z" fill="#495464"/>
<path opacity="0.7" d="M399.013 76.596C372.829 91.572 354.361 116.76 331.981 136.98C304.145 162.031 270.265 179.401 233.677 187.38C203.677 193.872 172.333 193.968 143.425 204.18C87.0246 223.968 48.3966 282.696 47.4246 342.408C46.4526 402.12 80.4246 460.008 130.357 492.744C147.362 503.899 165.979 512.377 185.557 517.884C222.277 528.216 261.217 527.76 299.161 523.812C364.705 516.984 433.417 479.76 474.733 427.284C493.149 403.83 508.715 378.271 521.101 351.144C541.563 306.539 553.185 258.391 555.325 209.364C557.065 167.364 555.325 120.804 522.001 90.192C488.677 59.58 438.073 54.24 399.013 76.596Z" fill="#495464"/>
<path d="M330.12 557.46C448.969 557.46 545.316 531.51 545.316 499.5C545.316 467.49 448.969 441.54 330.12 441.54C211.27 441.54 114.924 467.49 114.924 499.5C114.924 531.51 211.27 557.46 330.12 557.46Z" fill="#495464"/>
<path opacity="0.5" d="M330.12 557.46C448.969 557.46 545.316 531.51 545.316 499.5C545.316 467.49 448.969 441.54 330.12 441.54C211.27 441.54 114.924 467.49 114.924 499.5C114.924 531.51 211.27 557.46 330.12 557.46Z" fill="white"/>
<path d="M356.351 81.96H103.355C97.4237 81.96 92.6152 86.7685 92.6152 92.7V234.528C92.6152 240.46 97.4237 245.268 103.355 245.268H356.351C362.283 245.268 367.091 240.46 367.091 234.528V92.7C367.091 86.7685 362.283 81.96 356.351 81.96Z" fill="white"/>
<path d="M367.091 92.7V96.948H92.6152V92.7C92.6152 89.846 93.7448 87.108 95.7572 85.0844C97.7697 83.0607 100.501 81.9158 103.355 81.9H356.399C357.811 81.9047 359.208 82.1881 360.51 82.7338C361.812 83.2795 362.994 84.077 363.987 85.0803C364.981 86.0837 365.766 87.2732 366.299 88.5808C366.831 89.8883 367.101 91.2881 367.091 92.7Z" fill="#495464"/>
<path d="M356.351 81.96H103.355C97.4237 81.96 92.6152 86.7685 92.6152 92.7V234.528C92.6152 240.46 97.4237 245.268 103.355 245.268H356.351C362.283 245.268 367.091 240.46 367.091 234.528V92.7C367.091 86.7685 362.283 81.96 356.351 81.96Z" stroke="#263238" stroke-linecap="round" stroke-linejoin="round"/>
<path d="M367.091 92.7V96.948H92.6152V92.7C92.6152 89.846 93.7448 87.108 95.7572 85.0844C97.7697 83.0607 100.501 81.9158 103.355 81.9H356.399C357.811 81.9047 359.208 82.1881 360.51 82.7338C361.812 83.2795 362.994 84.077 363.987 85.0803C364.981 86.0837 365.766 87.2732 366.299 88.5808C366.831 89.8883 367.101 91.2881 367.091 92.7V92.7Z" stroke="#263238" stroke-linecap="round" stroke-linejoin="round"/>
<path d="M123.443 89.448C123.446 89.992 123.286 90.5245 122.986 90.978C122.685 91.4314 122.257 91.7855 121.755 91.9954C121.253 92.2052 120.7 92.2613 120.167 92.1567C119.633 92.052 119.142 91.7912 118.756 91.4074C118.371 91.0235 118.108 90.5339 118.001 90.0005C117.894 89.4671 117.948 88.914 118.155 88.4112C118.363 87.9083 118.715 87.4784 119.167 87.176C119.619 86.8735 120.151 86.712 120.695 86.712C121.422 86.712 122.119 86.9999 122.634 87.5126C123.149 88.0254 123.44 88.7213 123.443 89.448Z" fill="#263238"/>
<path d="M137.783 89.448C137.785 89.992 137.626 90.5245 137.326 90.978C137.025 91.4314 136.597 91.7855 136.095 91.9954C135.593 92.2052 135.04 92.2613 134.506 92.1567C133.973 92.052 133.482 91.7912 133.096 91.4074C132.711 91.0235 132.448 90.5339 132.341 90.0005C132.234 89.4671 132.288 88.914 132.495 88.4112C132.703 87.9083 133.055 87.4784 133.507 87.176C133.959 86.8735 134.491 86.712 135.035 86.712C135.762 86.712 136.459 86.9999 136.974 87.5126C137.489 88.0254 137.78 88.7213 137.783 89.448Z" fill="#263238"/>
<path d="M149.375 92.196C150.893 92.196 152.123 90.9657 152.123 89.448C152.123 87.9303 150.893 86.7 149.375 86.7C147.857 86.7 146.627 87.9303 146.627 89.448C146.627 90.9657 147.857 92.196 149.375 92.196Z" fill="#263238"/>
<path d="M190.919 108.84H113.315C110.869 108.84 108.887 110.822 108.887 113.268V150.6C108.887 153.046 110.869 155.028 113.315 155.028H190.919C193.364 155.028 195.347 153.046 195.347 150.6V113.268C195.347 110.822 193.364 108.84 190.919 108.84Z" stroke="#263238" stroke-linecap="round" stroke-linejoin="round"/>
<path d="M113.975 149.22H188.939" stroke="#263238" stroke-linecap="round" stroke-linejoin="round"/>
<path d="M128.243 140.4H119.543V149.1H128.243V140.4Z" fill="#495464" stroke="#263238" stroke-miterlimit="10"/>
<path d="M140.975 128.964H132.275V149.22H140.975V128.964Z" fill="#495464" stroke="#263238" stroke-miterlimit="10"/>
<path d="M155.315 132.444H146.615V149.424H155.315V132.444Z" fill="#495464" stroke="#263238" stroke-miterlimit="10"/>
<path d="M170.387 115.536H161.688V148.836H170.387V115.536Z" fill="#495464" stroke="#263238" stroke-miterlimit="10"/>
<path d="M185.448 115.8H176.748V149.1H185.448V115.8Z" fill="#495464" stroke="#263238" stroke-miterlimit="10"/>
<path d="M302.543 157.416C315.977 157.416 326.867 146.526 326.867 133.092C326.867 119.658 315.977 108.768 302.543 108.768C289.109 108.768 278.219 119.658 278.219 133.092C278.219 146.526 289.109 157.416 302.543 157.416Z" fill="#495464" stroke="#263238" stroke-miterlimit="10"/>
<path d="M304.536 148.26V150.756H300.456V148.26C298.78 147.855 297.298 146.878 296.264 145.498C295.23 144.119 294.71 142.422 294.792 140.7V139.572L299.412 139.068V140.268C299.412 142.584 300.612 143.988 302.496 143.988C302.904 144.022 303.316 143.967 303.702 143.827C304.087 143.687 304.438 143.465 304.73 143.177C305.022 142.888 305.248 142.54 305.392 142.156C305.537 141.772 305.597 141.361 305.568 140.952C305.568 138.732 303.492 136.824 301.044 134.796C298.14 132.396 295.248 129.54 295.248 125.508C295.248 121.476 297.144 118.752 300.456 117.936V115.428H304.536V117.912C307.884 118.692 309.828 121.512 309.828 125.532V126.348L305.208 126.84V126C305.208 123.6 304.26 122.28 302.58 122.28C300.9 122.28 299.952 123.324 299.952 125.316C299.952 127.536 302.088 129.396 304.488 131.472C307.344 133.872 310.284 136.728 310.284 140.76C310.354 142.485 309.817 144.18 308.767 145.551C307.717 146.921 306.22 147.88 304.536 148.26Z" fill="#263238"/>
<path d="M106.871 178.62H113.975" stroke="#263238" stroke-linecap="round" stroke-linejoin="round"/>
<path d="M106.871 192.348H113.975" stroke="#263238" stroke-linecap="round" stroke-linejoin="round"/>
<path d="M106.871 206.088H113.975" stroke="#263238" stroke-linecap="round" stroke-linejoin="round"/>
<path d="M106.871 219.816H113.975" stroke="#263238" stroke-linecap="round" stroke-linejoin="round"/>
<path d="M129.635 230.184V224.664" stroke="#263238" stroke-linecap="round" stroke-linejoin="round"/>
<path d="M140.891 230.184V224.664" stroke="#263238" stroke-linecap="round" stroke-linejoin="round"/>
<path d="M152.146 230.184V224.664" stroke="#263238" stroke-linecap="round" stroke-linejoin="round"/>
<path d="M163.416 230.184V224.664" stroke="#263238" stroke-linecap="round" stroke-linejoin="round"/>
<path d="M174.672 230.184V224.664" stroke="#263238" stroke-linecap="round" stroke-linejoin="round"/>
<path d="M185.928 230.184V224.664" stroke="#263238" stroke-linecap="round" stroke-linejoin="round"/>
<path d="M197.184 230.184V224.664" stroke="#263238" stroke-linecap="round" stroke-linejoin="round"/>
<path d="M208.451 230.184V224.664" stroke="#263238" stroke-linecap="round" stroke-linejoin="round"/>
<path d="M219.707 230.184V224.664" stroke="#263238" stroke-linecap="round" stroke-linejoin="round"/>
<path d="M230.963 230.184V224.664" stroke="#263238" stroke-linecap="round" stroke-linejoin="round"/>
<path d="M242.219 230.184V224.664" stroke="#263238" stroke-linecap="round" stroke-linejoin="round"/>
<path d="M253.488 230.184V224.664" stroke="#263238" stroke-linecap="round" stroke-linejoin="round"/>
<path d="M264.742 230.184V224.664" stroke="#263238" stroke-linecap="round" stroke-linejoin="round"/>
<path d="M276 230.184V224.664" stroke="#263238" stroke-linecap="round" stroke-linejoin="round"/>
<path d="M287.256 230.184V224.664" stroke="#263238" stroke-linecap="round" stroke-linejoin="round"/>
<path d="M298.092 230.184V224.664" stroke="#263238" stroke-linecap="round" stroke-linejoin="round"/>
<path d="M308.928 230.184V224.664" stroke="#263238" stroke-linecap="round" stroke-linejoin="round"/>
<path d="M319.752 230.184V224.664" stroke="#263238" stroke-linecap="round" stroke-linejoin="round"/>
<path d="M348.407 170.22V223.572C348.407 227.232 344.687 230.184 340.103 230.184H115.199C113.829 230.233 112.467 229.964 111.218 229.4C109.97 228.836 108.868 227.992 107.999 226.932C107.248 225.97 106.827 224.792 106.799 223.572V170.22C106.799 166.62 110.519 163.608 115.103 163.608H340.103C344.687 163.608 348.407 166.56 348.407 170.22Z" stroke="#495464" stroke-linecap="round" stroke-linejoin="round"/>
<path d="M279.96 66.888L208.163 163.608L180.707 200.592L150.707 181.488L113.999 230.184H113.471C112.321 230.185 111.189 229.885 110.19 229.315C109.19 228.745 108.356 227.923 107.771 226.932L149.015 172.2L179.015 191.268L199.547 163.668L274.415 62.868L279.96 66.888Z" fill="#263238"/>
<path d="M261.742 68.112L288.13 52.116L280.834 79.788L276.178 66.984L261.742 68.112Z" fill="#263238"/>
<path d="M511.477 372.624H89.4485L42.1445 414.684" stroke="#263238" stroke-linecap="round" stroke-linejoin="round"/>
<path d="M89.7129 343.176V261.396" stroke="#263238" stroke-linecap="round" stroke-linejoin="round"/>
<path d="M89.7129 367.872V352.056" stroke="#263238" stroke-linecap="round" stroke-linejoin="round"/>
<path d="M486.073 173.664C486.073 173.664 486.073 168.72 479.149 161.808C472.225 154.896 467.785 150.936 467.785 150.936C467.785 150.936 464.317 162.3 470.749 169.224C475.474 174.101 480.6 178.573 486.073 182.592V173.664Z" fill="white"/>
<path d="M476.029 204.54C476.029 204.54 476.029 199.596 469.105 192.672C462.181 185.748 457.741 181.8 457.741 181.8C457.741 181.8 454.285 193.164 460.705 200.088C465.436 204.963 470.561 209.438 476.029 213.468V204.54Z" fill="white"/>
<path d="M485.629 182.088C485.629 182.088 486.157 177.168 493.765 171.012C501.373 164.856 506.221 161.412 506.221 161.412C506.221 161.412 508.453 173.112 501.337 179.28C496.124 183.621 490.556 187.518 484.693 190.932L485.629 182.088Z" fill="white"/>
<path d="M473.498 218.544C473.498 218.544 474.542 213.744 482.75 208.392C490.958 203.04 496.13 200.136 496.13 200.136C496.13 200.136 497.126 211.98 489.434 217.404C483.796 221.172 477.851 224.46 471.662 227.232L473.498 218.544Z" fill="white"/>
<path d="M475.789 258.276C475.789 258.276 475.789 253.332 482.701 246.42C489.613 239.508 494.065 235.548 494.065 235.548C494.065 235.548 497.533 246.924 491.101 253.836C486.384 258.72 481.262 263.196 475.789 267.216V258.276Z" fill="white"/>
<path d="M475.67 267.984C475.67 267.984 476.366 263.088 470.498 255.264C464.63 247.44 460.802 242.88 460.802 242.88C460.802 242.88 455.786 253.68 461.15 261.408C465.137 266.897 469.577 272.043 474.422 276.792L475.67 267.984Z" fill="white"/>
<path d="M468.842 296.724C468.842 296.724 468.842 291.792 475.766 284.868C482.69 277.944 487.13 274.068 487.13 274.068C487.13 274.068 490.598 285.432 484.166 292.344C479.442 297.226 474.316 301.701 468.842 305.724V296.724Z" fill="white"/>
<path d="M473.461 322.8C473.461 322.8 472.261 318 477.169 309.6C482.077 301.2 485.413 296.22 485.413 296.22C485.413 296.22 491.629 306.348 487.177 314.664C483.838 320.574 480.008 326.194 475.729 331.464L473.461 322.8Z" fill="white"/>
<path d="M486.697 172.44C486.348 177.583 485.715 182.703 484.801 187.776C482.065 201.912 475.201 211.032 472.489 223.776C469.777 236.52 477.613 252.996 475.513 269.376C473.413 285.756 467.017 294.888 468.817 305.832C470.617 316.776 480.217 346.392 480.217 346.392" stroke="#263238" stroke-width="1.17749" stroke-linecap="round" stroke-linejoin="round"/>
<path d="M485.568 185.376L493.02 179.64" stroke="#263238" stroke-width="1.17749" stroke-linecap="round" stroke-linejoin="round"/>
<path d="M485.905 178.788L482.797 173.232" stroke="#263238" stroke-width="1.17749" stroke-linecap="round" stroke-linejoin="round"/>
<path d="M472.908 223.2C472.908 223.2 479.148 218.508 485.568 213.828" stroke="#263238" stroke-width="1.17749" stroke-linecap="round" stroke-linejoin="round"/>
<path d="M476.03 213.408C476.03 213.408 470.822 203.208 464.93 196.44" stroke="#263238" stroke-width="1.17749" stroke-linecap="round" stroke-linejoin="round"/>
<path d="M476.029 265.308C479.605 258.742 484.111 252.727 489.409 247.452" stroke="#263238" stroke-width="1.17749" stroke-linecap="round" stroke-linejoin="round"/>
<path d="M474.816 272.244C472.903 267.779 470.623 263.481 468 259.392C464.4 254.016 463.824 253.32 463.824 253.32" stroke="#263238" stroke-width="1.17749" stroke-linecap="round" stroke-linejoin="round"/>
<path d="M468.842 305.82C470.426 301.891 472.308 298.088 474.47 294.444C476.628 291.051 479.061 287.841 481.742 284.844" stroke="#263238" stroke-width="1.17749" stroke-linecap="round" stroke-linejoin="round"/>
<path d="M475.717 331.404C475.355 327.654 476.001 323.876 477.589 320.46C480.193 315.432 483.133 308.832 484.357 306.24" stroke="#263238" stroke-width="1.17749" stroke-linecap="round" stroke-linejoin="round"/>
<path d="M440.761 239.688C440.761 239.688 440.221 236.604 443.809 231.504C447.397 226.404 449.809 223.44 449.809 223.44C449.809 223.44 453.205 230.184 449.929 235.224C447.495 238.791 444.766 242.147 441.769 245.256L440.761 239.688Z" fill="white"/>
<path d="M450.41 258C450.41 258 449.87 254.892 453.458 249.804C457.046 244.716 459.458 241.752 459.458 241.752C459.458 241.752 462.854 248.508 459.578 253.536C457.147 257.105 454.417 260.461 451.418 263.568L450.41 258Z" fill="white"/>
<path d="M441.949 244.92C441.949 244.92 441.109 241.896 435.649 238.92C430.189 235.944 426.793 234.24 426.793 234.24C426.793 234.24 426.661 241.764 431.809 244.92C435.548 247.077 439.462 248.915 443.509 250.416L441.949 244.92Z" fill="white"/>
<path d="M453.517 266.46C453.517 266.46 452.317 263.544 446.605 261.108C440.893 258.672 437.305 257.388 437.305 257.388C437.305 257.388 437.965 264.912 443.401 267.48C447.347 269.23 451.434 270.647 455.617 271.716L453.517 266.46Z" fill="white"/>
<path d="M456.397 291.6C456.397 291.6 455.857 288.504 450.769 284.916C445.681 281.328 442.453 279.324 442.453 279.324C442.453 279.324 441.517 286.848 446.305 290.472C449.794 293.007 453.491 295.243 457.357 297.156L456.397 291.6Z" fill="white"/>
<path d="M457.513 297.708C457.513 297.708 456.541 294.72 459.373 289.176C462.205 283.632 464.173 280.356 464.173 280.356C464.173 280.356 468.493 286.548 465.973 292.008C464.051 295.883 461.811 299.591 459.277 303.096L457.513 297.708Z" fill="white"/>
<path d="M466.2 322.704C466.2 322.704 466.56 319.584 471.432 315.708C476.304 311.832 479.412 309.708 479.412 309.708C479.412 309.708 480.78 317.148 476.208 321.06C472.869 323.791 469.309 326.239 465.564 328.38L466.2 322.704Z" fill="white"/>
<path d="M464.916 315C464.916 315 464.376 311.892 459.288 308.304C454.2 304.716 450.984 302.724 450.984 302.724C450.984 302.724 450.048 310.248 454.824 313.872C458.319 316.405 462.02 318.641 465.888 320.556L464.916 315Z" fill="white"/>
<path d="M464.846 331.848C464.846 331.848 465.122 328.704 461.102 323.952C457.082 319.2 454.478 316.428 454.478 316.428C454.478 316.428 451.67 323.448 455.378 328.188C458.116 331.531 461.127 334.641 464.378 337.488L464.846 331.848Z" fill="white"/>
<path d="M440.221 238.968C441.002 242.159 441.959 245.303 443.089 248.388C446.329 256.944 451.609 261.924 454.705 269.628C457.801 277.332 454.705 288.504 457.765 298.548C460.825 308.592 465.865 313.596 465.901 320.688C465.937 327.78 463.201 347.376 463.201 347.376" stroke="#263238" stroke-width="1.17749" stroke-linecap="round" stroke-linejoin="round"/>
<path d="M442.345 246.972L437.053 244.2" stroke="#263238" stroke-width="1.17749" stroke-linecap="round" stroke-linejoin="round"/>
<path d="M441.408 242.88L442.764 239.064" stroke="#263238" stroke-width="1.17749" stroke-linecap="round" stroke-linejoin="round"/>
<path d="M454.393 269.304C454.393 269.304 449.965 267.048 445.441 264.804" stroke="#263238" stroke-width="1.17749" stroke-linecap="round" stroke-linejoin="round"/>
<path d="M451.369 263.568C452.671 259.46 454.388 255.496 456.493 251.736" stroke="#263238" stroke-width="1.17749" stroke-linecap="round" stroke-linejoin="round"/>
<path d="M457.009 296.064C454.057 292.336 450.581 289.054 446.689 286.32" stroke="#263238" stroke-width="1.17749" stroke-linecap="round" stroke-linejoin="round"/>
<path d="M458.521 300.288C459.222 297.29 460.174 294.355 461.366 291.516C463.034 287.736 463.322 287.244 463.322 287.244" stroke="#263238" stroke-width="1.17749" stroke-linecap="round" stroke-linejoin="round"/>
<path d="M465.674 326.04C467.391 323.907 469.294 321.931 471.362 320.136C472.678 319.161 473.914 318.081 475.058 316.908" stroke="#263238" stroke-width="1.17749" stroke-linecap="round" stroke-linejoin="round"/>
<path d="M465.902 320.688C464.468 318.399 462.863 316.221 461.102 314.172C459.379 312.29 457.505 310.552 455.498 308.976" stroke="#263238" stroke-width="1.17749" stroke-linecap="round" stroke-linejoin="round"/>
<path d="M464.401 337.488C464.21 335.086 463.381 332.779 462.001 330.804C459.817 327.924 457.201 324.108 456.217 322.608" stroke="#263238" stroke-width="1.17749" stroke-linecap="round" stroke-linejoin="round"/>
<path d="M487.417 381.168H455.905C455.278 381.168 454.677 380.924 454.228 380.486C453.78 380.049 453.52 379.454 453.504 378.828L448.98 343.956H494.245L489.721 378.828C489.706 379.438 489.459 380.019 489.031 380.454C488.603 380.888 488.026 381.144 487.417 381.168Z" fill="white"/>
<path d="M493.884 349.848H449.028C448.095 349.851 447.198 349.484 446.534 348.827C445.871 348.171 445.495 347.278 445.488 346.344C445.504 345.412 445.88 344.522 446.538 343.862C447.196 343.202 448.084 342.823 449.016 342.804H493.884C494.349 342.802 494.809 342.893 495.238 343.069C495.667 343.246 496.058 343.505 496.387 343.833C496.716 344.161 496.977 344.55 497.155 344.979C497.333 345.408 497.424 345.868 497.424 346.332C497.423 346.795 497.33 347.254 497.151 347.681C496.972 348.109 496.711 348.497 496.382 348.823C496.054 349.15 495.664 349.408 495.235 349.584C494.807 349.76 494.348 349.85 493.884 349.848Z" fill="white"/>
<path d="M392.76 210.372C392.758 220.22 389.42 229.778 383.29 237.486C377.159 245.193 368.599 250.597 359.004 252.816H358.872C357.732 253.068 356.592 253.296 355.416 253.464C353.352 253.758 351.271 253.906 349.188 253.908C337.798 253.867 326.877 249.368 318.763 241.375C310.65 233.381 305.989 222.528 305.779 211.14C305.569 199.753 309.826 188.735 317.639 180.448C325.452 172.16 336.199 167.261 347.58 166.8C347.976 166.8 348.396 166.8 348.78 166.8C348.907 166.788 349.036 166.788 349.164 166.8C349.311 166.788 349.46 166.788 349.608 166.8C355.486 166.838 361.294 168.084 366.672 170.46C374.428 173.858 381.026 179.443 385.659 186.531C390.293 193.619 392.76 201.904 392.76 210.372Z" fill="#495464"/>
<path opacity="0.4" d="M366.696 170.472C316.38 167.856 316.14 223.716 316.14 223.716C316.14 223.716 308.46 205.488 321 185.316C328.008 174.024 340.2 169.044 349.632 166.836C355.509 166.866 361.317 168.104 366.696 170.472Z" fill="white"/>
<path d="M392.76 210.372C392.76 220.245 389.406 229.824 383.25 237.542C377.093 245.26 368.498 250.658 358.872 252.852C355.696 253.583 352.447 253.949 349.188 253.944C337.632 254.157 326.465 249.771 318.143 241.751C309.82 233.73 305.025 222.732 304.812 211.176C304.599 199.62 308.985 188.453 317.006 180.13C325.026 171.808 336.024 167.013 347.58 166.8C348.108 166.8 348.648 166.8 349.188 166.8C360.743 166.803 371.824 171.395 379.995 179.565C388.165 187.736 392.757 198.817 392.76 210.372V210.372Z" stroke="#263238" stroke-linecap="round" stroke-linejoin="round"/>
<path d="M392.76 210.372C392.759 220.245 389.406 229.824 383.249 237.542C377.093 245.26 368.498 250.658 358.872 252.852C358.344 252.852 357.804 252.852 357.264 252.852C346.569 252.824 336.257 248.864 328.292 241.726C320.327 234.588 315.264 224.771 314.068 214.142C312.872 203.514 315.626 192.817 321.805 184.087C327.985 175.357 337.158 169.205 347.58 166.8C348.108 166.8 348.648 166.8 349.188 166.8C360.743 166.803 371.824 171.395 379.994 179.565C388.165 187.736 392.757 198.817 392.76 210.372V210.372Z" stroke="#263238" stroke-linecap="round" stroke-linejoin="round"/>
<path d="M364.201 237.6L365.329 242.208L357.793 244.044L356.665 239.448C349.921 239.448 344.509 235.068 342.781 228.036L342.265 225.948L350.581 222.936L351.109 225.108C352.153 229.38 354.973 231.432 358.489 230.568C359.26 230.448 359.997 230.162 360.647 229.729C361.298 229.297 361.847 228.729 362.256 228.064C362.666 227.399 362.926 226.653 363.02 225.877C363.113 225.102 363.037 224.315 362.797 223.572C361.789 219.468 357.085 216.9 351.637 214.248C345.193 211.128 338.545 207.168 336.721 199.716C334.945 192.444 337.177 186.384 342.925 183.384L341.797 178.776L349.321 176.94L350.449 181.536C356.989 181.44 361.861 185.748 363.649 193.188L364.021 194.7L355.717 197.712L355.297 196.044C354.193 191.52 351.865 189.612 348.769 190.368C345.673 191.124 344.389 193.488 345.289 197.16C346.297 201.264 351.061 203.736 356.449 206.496C362.821 209.724 369.541 213.576 371.365 221.016C373.201 228.18 370.273 234.564 364.201 237.6Z" stroke="#263238" stroke-miterlimit="10"/>
<path opacity="0.3" d="M364.201 237.6L365.329 242.208L357.793 244.044L356.665 239.448C349.921 239.448 344.509 235.068 342.781 228.036L342.265 225.948L350.581 222.936L351.109 225.108C352.153 229.38 354.973 231.432 358.489 230.568C359.26 230.448 359.997 230.162 360.647 229.729C361.298 229.297 361.847 228.729 362.256 228.064C362.666 227.399 362.926 226.653 363.02 225.877C363.113 225.102 363.037 224.315 362.797 223.572C361.789 219.468 357.085 216.9 351.637 214.248C345.193 211.128 338.545 207.168 336.721 199.716C334.945 192.444 337.177 186.384 342.925 183.384L341.797 178.776L349.321 176.94L350.449 181.536C356.989 181.44 361.861 185.748 363.649 193.188L364.021 194.7L355.717 197.712L355.297 196.044C354.193 191.52 351.865 189.612 348.769 190.368C345.673 191.124 344.389 193.488 345.289 197.16C346.297 201.264 351.061 203.736 356.449 206.496C362.821 209.724 369.541 213.576 371.365 221.016C373.201 228.18 370.273 234.564 364.201 237.6Z" fill="black"/>
<path d="M326.916 247.835L336.12 247.416" stroke="#263238" stroke-linecap="round" stroke-linejoin="round"/>
<path d="M322.488 244.776L330.516 244.092" stroke="#263238" stroke-linecap="round" stroke-linejoin="round"/>
<path d="M318.889 241.548L326.917 240.864" stroke="#263238" stroke-linecap="round" stroke-linejoin="round"/>
<path d="M317.785 180.156H324.661" stroke="#263238" stroke-linecap="round" stroke-linejoin="round"/>
<path d="M321.18 176.987L328.032 176.676" stroke="#263238" stroke-linecap="round" stroke-linejoin="round"/>
<path d="M325.477 173.808L332.701 173.124" stroke="#263238" stroke-linecap="round" stroke-linejoin="round"/>
<path opacity="0.3" d="M359.004 252.816H358.872C355.696 253.547 352.447 253.913 349.188 253.908C337.798 253.867 326.877 249.368 318.763 241.375C310.65 233.381 305.989 222.528 305.779 211.14C305.569 199.753 309.826 188.735 317.639 180.448C325.452 172.16 336.199 167.261 347.58 166.8C347.976 166.8 348.396 166.8 348.78 166.8C338.16 170.148 320.34 178.704 315.576 196.548C308.844 221.904 324 250.692 359.004 252.816Z" fill="black"/>
<path opacity="0.1" d="M392.76 210.372C392.758 220.22 389.42 229.778 383.29 237.486C377.16 245.193 368.599 250.597 359.004 252.816H358.872C357.732 253.068 356.592 253.296 355.416 253.464L366.696 170.436C374.452 173.839 381.048 179.429 385.677 186.522C390.306 193.614 392.767 201.902 392.76 210.372Z" fill="black"/>
<path d="M417.48 141.78C414.03 146.653 409.03 150.213 403.296 151.878C397.562 153.543 391.432 153.215 385.908 150.948L385.752 150.876C384.933 150.516 384.132 150.115 383.352 149.676C382.472 149.203 381.622 148.673 380.808 148.092C375.493 144.032 371.916 138.106 370.801 131.511C369.686 124.916 371.116 118.144 374.802 112.563C378.488 106.981 384.155 103.007 390.658 101.443C397.161 99.8786 404.016 100.841 409.836 104.136L410.424 104.508C410.7 104.664 410.964 104.856 411.24 105.048C411.516 105.24 412.044 105.636 412.44 105.948C417.686 110.155 421.128 116.206 422.065 122.865C423.001 129.524 421.362 136.289 417.48 141.78Z" fill="#495464"/>
<path opacity="0.4" d="M377.713 142.14C377.713 142.14 373.405 129.456 379.129 120.12C386.329 108.42 397.357 103.08 412.369 105.96C412.369 105.96 404.233 100.464 390.613 104.364C376.993 108.264 369.685 127.008 377.713 142.14Z" fill="white"/>
<path d="M417.48 141.791C414.026 146.66 409.024 150.215 403.29 151.876C397.556 153.537 391.429 153.205 385.908 150.935C384.085 150.191 382.354 149.24 380.748 148.103C375.399 144 371.822 138.006 370.751 131.35C369.68 124.694 371.197 117.88 374.989 112.306C378.781 106.732 384.562 102.82 391.146 101.373C397.73 99.9246 404.619 101.05 410.4 104.519C410.664 104.675 410.94 104.855 411.204 105.047C416.899 109.094 420.758 115.235 421.934 122.122C423.111 129.01 421.509 136.083 417.48 141.791Z" stroke="#263238" stroke-linecap="round" stroke-linejoin="round"/>
<path d="M417.479 141.792C414.026 146.661 409.024 150.216 403.29 151.877C397.556 153.538 391.429 153.206 385.907 150.936L385.103 150.408C379.89 146.629 376.237 141.075 374.833 134.791C373.429 128.507 374.369 121.927 377.477 116.288C380.586 110.649 385.648 106.341 391.711 104.173C397.774 102.006 404.421 102.129 410.399 104.52C410.663 104.676 410.939 104.856 411.203 105.048C416.899 109.095 420.758 115.236 421.934 122.123C423.111 129.011 421.509 136.084 417.479 141.792Z" stroke="#263238" stroke-linecap="round" stroke-linejoin="round"/>
<path d="M393.853 145.296L392.809 147.96L388.441 146.244L389.485 143.568C387.864 142.427 386.69 140.758 386.165 138.847C385.64 136.936 385.795 134.901 386.605 133.092L387.085 131.892L392.245 133.296L391.753 134.568C390.781 137.04 391.441 139.032 393.481 139.836C393.904 140.047 394.368 140.163 394.841 140.177C395.314 140.19 395.784 140.101 396.219 139.915C396.654 139.729 397.043 139.45 397.359 139.099C397.676 138.748 397.913 138.332 398.053 137.88C398.989 135.48 397.561 132.588 395.797 129.384C393.709 125.592 391.813 121.32 393.505 117C395.197 112.68 398.389 110.568 402.265 111.096L403.321 108.432L407.677 110.148L406.633 112.8C409.897 115.032 410.797 118.8 409.105 123.18L408.757 124.044L403.597 122.64L403.981 121.668C405.013 119.052 404.533 117.288 402.781 116.58C401.029 115.872 399.529 116.58 398.689 118.728C397.753 121.128 399.253 123.984 400.945 127.224C402.973 131.052 404.941 135.3 403.249 139.608C402.607 141.513 401.311 143.13 399.591 144.171C397.871 145.213 395.838 145.611 393.853 145.296V145.296Z" stroke="#263238" stroke-miterlimit="10"/>
<path opacity="0.3" d="M393.853 145.296L392.809 147.96L388.441 146.244L389.485 143.568C387.864 142.427 386.69 140.758 386.165 138.847C385.64 136.936 385.795 134.901 386.605 133.092L387.085 131.892L392.245 133.296L391.753 134.568C390.781 137.04 391.441 139.032 393.481 139.836C393.904 140.047 394.368 140.163 394.841 140.177C395.314 140.19 395.784 140.101 396.219 139.915C396.654 139.729 397.043 139.45 397.359 139.099C397.676 138.748 397.913 138.332 398.053 137.88C398.989 135.48 397.561 132.588 395.797 129.384C393.709 125.592 391.813 121.32 393.505 117C395.197 112.68 398.389 110.568 402.265 111.096L403.321 108.432L407.677 110.148L406.633 112.8C409.897 115.032 410.797 118.8 409.105 123.18L408.757 124.044L403.597 122.64L403.981 121.668C405.013 119.052 404.533 117.288 402.781 116.58C401.029 115.872 399.529 116.58 398.689 118.728C397.753 121.128 399.253 123.984 400.945 127.224C402.973 131.052 404.941 135.3 403.249 139.608C402.607 141.513 401.311 143.13 399.591 144.171C397.871 145.213 395.838 145.611 393.853 145.296Z" fill="black"/>
<path opacity="0.3" d="M409.776 104.147C402.576 102.863 393.456 102.155 388.536 105.347C379.5 111.143 373.872 118.451 373.956 130.295C374.04 142.139 385.104 150.443 385.104 150.443L385.752 150.911C383.987 150.174 382.309 149.244 380.748 148.139C375.432 144.079 371.855 138.153 370.741 131.558C369.626 124.963 371.056 118.191 374.741 112.61C378.427 107.028 384.094 103.054 390.597 101.49C397.101 99.9256 403.955 100.888 409.776 104.183V104.147Z" fill="black"/>
<path opacity="0.1" d="M417.48 141.78C414.029 146.653 409.029 150.213 403.295 151.878C397.561 153.543 391.431 153.215 385.908 150.948L385.752 150.876C384.932 150.516 384.131 150.115 383.352 149.676L412.368 105.96C417.621 110.157 421.075 116.2 422.025 122.857C422.975 129.513 421.349 136.281 417.48 141.78Z" fill="black"/>
<path d="M403.895 479.712C392.726 493.148 379.41 504.643 364.487 513.732C359.838 516.514 355.029 519.022 350.087 521.244C315.995 536.568 277.139 537.564 240.803 528.756C164.399 510.24 123.863 442.8 118.715 367.932C117.335 347.7 114.239 325.848 122.435 306.6C130.631 287.352 147.203 275.4 165.947 267.096C179.555 261.036 194.255 256.968 207.611 253.644C231.782 247.673 257.277 250.304 279.719 261.084C295.427 268.536 306.611 281.484 319.823 292.392C321.223 293.544 322.631 294.692 324.047 295.836C337.394 306.578 351.423 316.443 366.047 325.368C388.259 338.916 410.999 351.696 425.195 374.448C447.839 410.712 428.735 450.192 403.895 479.712Z" fill="#495464"/>
<path opacity="0.4" d="M403.895 479.712C392.726 493.148 379.41 504.643 364.487 513.732C359.838 516.514 355.029 519.022 350.087 521.244C315.995 536.568 277.139 537.564 240.803 528.756C164.399 510.24 123.863 442.8 118.715 367.932C117.335 347.7 114.239 325.848 122.435 306.6C130.631 287.352 147.203 275.4 165.947 267.096C179.555 261.036 194.255 256.968 207.611 253.644C231.782 247.673 257.277 250.304 279.719 261.084C295.427 268.536 306.611 281.484 319.823 292.392C321.223 293.544 322.631 294.692 324.047 295.836C337.394 306.578 351.423 316.443 366.047 325.368C388.259 338.916 410.999 351.696 425.195 374.448C447.839 410.712 428.735 450.192 403.895 479.712Z" fill="white"/>
<path d="M323.999 295.836C322.583 294.7 321.175 293.548 319.775 292.38C306.575 281.448 295.367 268.536 279.671 261.084C257.228 250.309 231.734 247.679 207.563 253.644C175.799 261.528 136.403 273.672 122.363 306.612C114.167 325.812 117.263 347.7 118.655 367.932C123.863 442.8 164.399 510.24 240.803 528.756C282.371 538.836 327.203 536.076 364.487 513.732C379.41 504.643 392.726 493.148 403.895 479.712C428.735 450.192 447.839 410.712 425.219 374.448C411.035 351.648 388.295 338.916 366.071 325.368C351.422 316.446 337.369 306.581 323.999 295.836V295.836Z" stroke="#263238" stroke-miterlimit="10"/>
<path d="M208.258 429.336C201.897 431.261 195.724 433.759 189.814 436.8" stroke="#263238" stroke-linecap="round" stroke-linejoin="round"/>
<path d="M247.2 421.92C237.907 422.724 228.684 424.188 219.6 426.3" stroke="#263238" stroke-linecap="round" stroke-linejoin="round"/>
<path d="M239.099 420C239.099 420 203.243 399.144 159.971 415.86" stroke="#263238" stroke-linecap="round" stroke-linejoin="round"/>
<path opacity="0.1" d="M403.896 479.712C392.726 493.148 379.41 504.643 364.488 513.732C359.838 516.514 355.03 519.022 350.088 521.244C346.186 520.049 342.353 518.643 338.604 517.032C316.212 507.432 297.42 491.196 279.06 475.188C267.984 465.588 256.728 455.748 243.468 449.424C225.537 440.945 205.137 439.265 186.06 444.696C195.927 433.56 209.341 426.179 224.028 423.804C214.548 415.176 201.36 411.552 188.544 411.324C175.728 411.096 168.672 412.668 156.144 415.476C160.332 407.772 171.444 400.8 180.216 401.004C171.877 400.893 163.551 400.304 155.28 399.24C143.964 397.416 138.9 384.096 137.208 372.768C132.528 341.568 137.268 308.34 154.296 281.82C157.667 276.53 161.567 271.597 165.936 267.096C179.544 261.036 194.244 256.968 207.6 253.644C231.771 247.673 257.266 250.304 279.708 261.084C295.416 268.536 306.6 281.484 319.812 292.392C321.212 293.544 322.62 294.692 324.036 295.836C337.382 306.578 351.412 316.443 366.036 325.368C388.248 338.916 410.988 351.696 425.184 374.448C447.84 410.712 428.736 450.192 403.896 479.712Z" fill="black"/>
<path d="M416.4 478.8C423.129 484.393 430.168 489.602 437.484 494.4C451.752 495.36 445.356 512.604 445.356 512.604L433.14 520.464C433.14 520.464 412.224 503.844 400.8 498.456C389.376 493.068 416.4 478.8 416.4 478.8Z" fill="white"/>
<path opacity="0.3" d="M315.011 297.24C315.011 297.24 313.055 277.884 309.935 272.448L262.559 262.8V259.128C262.559 259.128 263.651 252.744 253.091 248.748C242.531 244.752 220.523 249.948 214.847 254.244C209.171 258.54 211.247 265.932 211.247 265.932C211.247 265.932 192.167 275.568 183.599 279.24C176.585 282.476 169.748 286.081 163.115 290.04C163.115 290.04 159.227 334.536 159.995 344.868C160.763 355.2 159.371 364.92 160.259 370.644C161.147 376.368 161.843 379.62 167.843 384.492C173.843 389.364 179.303 396.492 195.035 389.424L192.839 387.684L296.399 352.8L315.011 297.24Z" fill="black"/>
<path d="M315.011 297.24C315.011 297.24 313.055 277.884 309.935 272.448L262.559 262.8V259.128C262.559 259.128 263.651 252.744 253.091 248.748C242.531 244.752 220.523 249.948 214.847 254.244C209.171 258.54 211.247 265.932 211.247 265.932C211.247 265.932 192.167 275.568 183.599 279.24C176.585 282.476 169.748 286.081 163.115 290.04C163.115 290.04 159.227 334.536 159.995 344.868C160.763 355.2 159.371 364.92 160.259 370.644C161.147 376.368 161.843 379.62 167.843 384.492C173.843 389.364 179.303 396.492 195.035 389.424L192.839 387.684L296.399 352.8L315.011 297.24Z" fill="#495464"/>
<path opacity="0.05" d="M315.011 297.24C315.011 297.24 313.055 277.884 309.935 272.448L262.559 262.8V259.128C262.559 259.128 263.651 252.744 253.091 248.748C242.531 244.752 220.523 249.948 214.847 254.244C209.171 258.54 211.247 265.932 211.247 265.932C211.247 265.932 192.167 275.568 183.599 279.24C176.585 282.476 169.748 286.081 163.115 290.04C163.115 290.04 159.227 334.536 159.995 344.868C160.763 355.2 159.371 364.92 160.259 370.644C161.147 376.368 161.843 379.62 167.843 384.492C173.843 389.364 179.303 396.492 195.035 389.424L192.839 387.684L296.399 352.8L315.011 297.24Z" fill="black"/>
<path opacity="0.1" d="M310.559 274.8H290.735C288.871 274.803 287.069 275.466 285.647 276.673C284.226 277.879 283.278 279.549 282.971 281.388L273.203 340.188C273.203 340.188 259.751 341.304 250.223 348.252C240.695 355.2 217.259 305.628 180.227 305.604C180.227 305.604 190.883 329.964 193.247 349.404C193.247 349.404 170.099 346.884 166.259 355.944C162.419 365.004 167.999 381.984 177.791 375.408C187.583 368.832 196.799 357.864 203.339 364.8C209.879 371.736 239.099 375.468 239.099 375.468L284.063 352.8L301.499 344.604L310.559 274.8Z" fill="black"/>
<path opacity="0.4" d="M247.619 245.652C247.619 245.652 258.875 248.772 260.699 252.552C262.523 256.332 262.331 265.896 262.331 265.896C259.6 272.288 255.461 277.982 250.223 282.552L241.823 265.896L242.579 284.784C242.579 284.784 226.643 282.132 219.875 277.044L213.119 271.944C213.119 271.944 210.203 262.344 210.623 259.092C211.043 255.84 223.199 249.24 223.199 249.24L247.619 245.652Z" fill="white"/>
<path d="M435.108 536.904C434.796 536.22 439.728 527.508 435.864 518.64C432 509.772 425.844 513.192 425.844 513.192C425.844 513.192 408.311 502.032 400.943 498.504C395.635 495.838 390.522 492.798 385.643 489.408L377.855 499.896L385.055 522.168L435.108 536.904Z" fill="#495464"/>
<path d="M425.207 512.652L447.719 526.404C447.719 526.404 463.547 516.252 471.095 509.244C478.643 502.236 495.599 487.308 495.599 487.308L506.399 472.776C506.399 472.776 498.911 463.512 486.431 470.952C470.303 480.552 450.635 494.496 437.519 494.364C437.519 494.364 440.099 510.48 425.291 512.652" fill="#495464"/>
<path d="M243.804 187.476C243.804 187.476 254.016 202.932 255.876 207.936C257.736 212.94 259.236 220.344 258.864 223.908C258.492 227.472 254.748 246.564 252.864 247.116L251.052 249.168L252.252 257.256C252.252 257.256 244.26 271.068 220.764 260.94C220.764 260.94 219.852 244.812 216.996 239.748C214.14 234.684 209.868 240.708 205.584 226.08C201.3 211.452 214.944 196.08 214.944 196.08L243.804 187.476Z" fill="white"/>
<path opacity="0.5" d="M496.595 468.264C496.595 468.264 485.015 470.28 481.259 477.132C477.503 483.984 470.291 496.716 467.831 502.872C465.371 509.028 445.031 523.896 445.031 523.896L447.731 526.404C447.731 526.404 464.291 516.168 474.287 506.436C484.283 496.704 506.327 472.224 506.327 472.224C506.327 472.224 504.743 470.652 496.595 468.264Z" fill="white"/>
<path opacity="0.5" d="M380.723 496.044L377.855 499.896L386.663 518.16L435.107 535.572L437.351 528.48C437.351 528.48 438.095 521.28 421.091 515.808C404.087 510.336 393.719 506.724 388.883 502.968C384.047 499.212 380.723 496.044 380.723 496.044Z" fill="white"/>
<path d="M220.799 360.396C220.799 360.396 205.967 358.164 199.043 370.296C192.119 382.428 192.827 387.684 192.827 387.684C192.827 387.684 202.631 396.588 216.107 396.084C229.583 395.58 249.203 380.148 255.599 375.12C261.995 370.092 278.123 355.704 289.127 358.68L290.327 348.276C290.327 348.276 289.247 343.608 279.839 344.868C270.431 346.128 266.735 351.492 263.699 351.492C260.663 351.492 257.795 348.576 251.699 358.992C251.687 358.992 230.291 362.784 220.799 360.396Z" fill="white"/>
<path d="M240.072 209.7C240.388 211.645 240.837 213.565 241.416 215.448C241.633 216.367 242.042 217.23 242.616 217.98C243.744 219.18 245.568 219.492 247.236 219.744C247.512 219.764 247.773 219.873 247.98 220.056C248.115 220.271 248.178 220.523 248.16 220.776C248.15 222.666 247.583 224.511 246.528 226.08" stroke="#263238" stroke-linecap="round" stroke-linejoin="round"/>
<path opacity="0.1" d="M390.671 483.6L380.723 495.996C380.723 495.996 391.643 506.088 402.947 509.832C414.251 513.576 434.039 520.632 437.351 526.068L436.079 519.6C436.079 519.6 405.131 500.616 398.027 496.08C395.926 494.702 394.171 492.861 392.895 490.697C391.62 488.533 390.859 486.105 390.671 483.6Z" fill="black"/>
<path opacity="0.1" d="M425.207 512.652L445.019 523.896C445.019 523.896 454.799 517.2 459.599 512.268C464.399 507.336 470.315 501.864 473.999 490.812C479.027 475.536 493.427 468.264 493.427 468.264C493.427 468.264 473.399 477.696 462.971 485.064C452.543 492.432 442.379 495.552 436.475 495.048C436.415 495.084 441.155 510.084 425.207 512.652Z" fill="black"/>
<path d="M233.088 228.804C233.088 228.804 240.876 234.912 248.964 232.62C248.964 232.62 241.332 247.74 233.088 228.804Z" fill="white" stroke="#263238" stroke-linecap="round" stroke-linejoin="round"/>
<path d="M232.799 215.604C233.027 217.284 232.511 218.736 231.671 218.856C230.831 218.976 229.955 217.656 229.727 216.012C229.499 214.368 230.003 212.88 230.855 212.76C231.707 212.64 232.619 213.924 232.799 215.604Z" fill="#263238"/>
<path d="M249.756 212.544C249.972 214.236 249.468 215.688 248.628 215.796C247.788 215.904 246.9 214.596 246.684 212.964C246.468 211.332 246.96 209.82 247.812 209.712C248.664 209.604 249.528 210.864 249.756 212.544Z" fill="#263238"/>
<path d="M231.6 208.476C231.6 208.476 227.064 206.136 223.836 211.152" stroke="#263238" stroke-linecap="round" stroke-linejoin="round"/>
<path d="M243.227 205.356C243.227 205.356 248.027 201.24 250.799 205.356" stroke="#263238" stroke-linecap="round" stroke-linejoin="round"/>
<path d="M216.191 223.92C216.191 223.92 213.275 219.612 210.191 219.744C207.107 219.876 205.883 224.196 206.987 228.372C208.091 232.548 212.687 238.38 216.167 237.828C218.13 237.575 219.921 236.579 221.171 235.044" stroke="#263238" stroke-linecap="round" stroke-linejoin="round"/>
<path d="M244.152 190.956C247.428 193.68 250.896 196.644 252.552 200.652C254.016 204.06 254.34 207.852 255.684 211.296C257.112 214.98 258.672 218.832 258.792 222.852C258.728 226.571 258.241 230.271 257.34 233.88C256.841 237.009 256.099 240.095 255.12 243.108C253.5 247.416 250.512 250.068 246.504 252.108C243.588 253.596 238.728 255.708 235.572 253.716C233.736 252.516 230.976 249.084 228.684 245.928" stroke="#263238" stroke-linecap="round" stroke-linejoin="round"/>
<path d="M216.191 237.828C216.191 237.828 221.351 250.476 220.103 259.368" stroke="#263238" stroke-linecap="round" stroke-linejoin="round"/>
<path d="M214.871 221.796C215.558 221.288 216.102 220.611 216.451 219.831C216.8 219.051 216.942 218.195 216.863 217.344C216.671 215.4 215.327 213.6 215.591 211.656C215.812 210.725 216.159 209.829 216.623 208.992C217.322 207.378 217.63 205.621 217.521 203.865C217.413 202.109 216.891 200.404 215.999 198.888C215.999 198.888 232.391 199.656 240.071 194.772C247.751 189.888 253.607 177.396 248.963 171.432C244.319 165.468 235.271 173.604 228.563 174.504C221.855 175.404 197.999 179.208 194.195 188.4C190.391 197.592 196.187 200.892 196.367 209.664C196.547 218.436 196.547 235.056 209.663 233.532C209.663 233.532 204.755 227.184 208.163 220.644C210.479 217.896 214.871 221.796 214.871 221.796Z" fill="#263238"/>
<path d="M247.02 181.8C249.246 183.534 251.091 185.707 252.441 188.184C253.791 190.661 254.617 193.39 254.868 196.2C255.6 202.776 267.264 215.556 258.852 222.84C258.852 222.84 256.896 215.1 255.744 211.284C254.592 207.468 253.116 200.484 251.184 198.084C249.252 195.684 239.004 187.284 239.004 187.284L247.02 181.8Z" fill="#263238"/>
<path d="M217.704 259.092C217.704 259.092 225.792 264.42 240.816 264.636L242.58 284.784C242.58 284.784 225.684 283.5 213.12 271.944C213.12 271.944 209.724 262.956 210.624 259.092C211.524 255.228 219.6 251.4 219.6 251.4" stroke="#263238" stroke-linecap="round" stroke-linejoin="round"/>
<path d="M251.686 250.08L252.166 257.28C248.999 260.579 245.115 263.104 240.814 264.66L250.222 282.576C250.222 282.576 261.442 273.84 262.558 264.66C262.558 264.66 262.654 255.264 260.698 252.576C258.742 249.888 251.614 248.628 251.614 248.628" stroke="#263238" stroke-linecap="round" stroke-linejoin="round"/>
<path opacity="0.8" d="M206.16 194.4C207.36 191.388 210.648 189.6 213.852 189.12C217.056 188.64 220.344 188.976 223.584 188.892C228.071 188.856 232.464 187.612 236.304 185.292C238.212 184.13 239.872 182.604 241.19 180.8C242.508 178.996 243.457 176.951 243.984 174.78" stroke="white" stroke-linecap="round" stroke-linejoin="round"/>
<path opacity="0.8" d="M198.42 193.812C200.448 187.656 207.024 183.852 213.492 183.312C216.696 183.036 219.936 183.408 223.092 183.036C226.248 182.664 229.608 181.344 231.276 178.596" stroke="white" stroke-linecap="round" stroke-linejoin="round"/>
<path d="M195.012 389.424C179.412 397.512 173.868 389.184 165.18 382.296C156.492 375.408 162.192 363.096 160.38 343.356C158.568 323.616 163.08 290.04 163.08 290.04C163.08 290.04 166.968 289.152 177.756 282.552C188.544 275.952 211.248 265.896 211.248 265.896" stroke="#263238" stroke-linecap="round" stroke-linejoin="round"/>
<path d="M210.468 359.544C210.468 359.544 207.996 351.708 201.012 351.504C194.028 351.3 183.012 354.444 175.164 369.288" stroke="#263238" stroke-linecap="round" stroke-linejoin="round"/>
<path d="M199.415 351.036C198.981 351.008 198.555 350.906 198.155 350.736C192.397 348.664 186.148 348.38 180.227 349.92" stroke="#263238" stroke-linecap="round" stroke-linejoin="round"/>
<path d="M176.207 300.756C188.915 314.796 195.107 333.372 200.975 351.372" stroke="#263238" stroke-linecap="round" stroke-linejoin="round"/>
<path d="M262.559 262.8C262.559 262.8 285.599 268.296 296.855 269.604C308.111 270.912 309.935 272.484 309.935 272.484L312.035 280.332" stroke="#263238" stroke-linecap="round" stroke-linejoin="round"/>
<path d="M369.923 276.456L291.455 279.468L285.047 360.168H298.487L366.623 344.916L375.191 278.388L369.923 276.456Z" fill="white"/>
<path d="M289.127 362.556L374.951 280.296L366.623 344.916L289.127 362.556Z" fill="#495464"/>
<path opacity="0.7" d="M289.127 362.556L374.951 280.296L366.623 344.916L289.127 362.556Z" fill="white"/>
<path d="M289.127 360.396L295.991 282.552L375.191 278.388L366.623 344.916L289.127 360.396Z" stroke="#263238" stroke-linecap="round" stroke-linejoin="round"/>
<path d="M341.808 316.104C341.28 320.844 338.748 324.444 336.156 324.156C333.564 323.868 331.908 319.776 332.436 315.036C332.964 310.296 335.508 306.696 338.1 306.984C340.692 307.272 342.348 311.364 341.808 316.104Z" fill="#263238"/>
<path d="M366.624 344.916C366.624 344.916 402.888 343.884 414.228 351.372C425.568 358.86 432.228 396.408 430.656 416.352C429.084 436.296 415.404 482.064 415.404 482.064L389.196 452.4C389.196 452.4 376.284 405.456 383.328 387.072C383.328 387.072 348.528 389.028 334.824 384.732C334.824 384.732 322.548 364.632 301.5 357.984L366.624 344.916Z" fill="#263238"/>
<path d="M420.935 482.844C411.626 474.154 403.267 464.5 395.999 454.044C383.315 434.448 365.783 415.644 347.747 400.968C333.215 389.184 329.927 369.984 311.999 360.348C282.299 344.424 256.619 376.068 247.019 382.476C237.419 388.884 220.799 396.144 220.799 396.144C220.799 396.144 226.871 418.944 244.703 421.644C262.535 424.344 280.571 412.044 289.103 417.984C297.635 423.924 303.947 450.444 332.123 465.984C355.151 478.68 386.531 491.064 402.719 499.416C406.319 501.288 409.007 503.256 411.047 504.372C416.639 507.42 422.615 511.008 428.255 514.56L447.683 526.392C447.683 526.392 467.183 514.86 474.671 504.228C475.667 502.8 477.743 498.996 479.687 495.324C483.923 487.296 489.287 480.096 496.715 476.124C501.851 473.352 506.423 472.524 506.315 472.236C505.823 471.324 496.511 466.56 490.187 469.164C476.795 474.696 450.023 495.948 437.387 494.364C431.51 491.119 425.994 487.257 420.935 482.844V482.844Z" stroke="#263238" stroke-miterlimit="10"/>
<path d="M420.935 482.844C409.259 487.56 404.555 494.844 402.755 499.428C386.567 491.028 355.187 478.692 332.159 465.996C303.983 450.396 297.719 423.924 289.139 417.996C280.559 412.068 262.511 424.404 244.739 421.656C226.967 418.908 220.799 396.132 220.799 396.132C220.799 396.132 237.431 388.932 247.031 382.524C256.631 376.116 278.771 344.46 311.999 360.396C330.347 369.192 333.215 389.196 347.747 401.016C365.747 415.644 383.315 434.496 395.999 454.092C403.25 464.547 411.61 474.187 420.935 482.844Z" fill="#263238"/>
<path d="M333.191 381.108C333.191 381.108 324.203 362.844 309.791 359.304" stroke="white" stroke-linecap="round" stroke-linejoin="round"/>
<path d="M286.078 344.748C276.166 342.588 265.282 353.544 260.698 351.492C257.29 349.968 251.686 358.992 251.686 358.992C242.462 360.324 233.134 360.794 223.822 360.396C210.466 359.544 204.142 362.148 199.414 369.288L192.814 386.772C192.814 386.772 210.226 402.372 228.814 393.288C247.402 384.204 272.098 356.796 289.114 356.892" stroke="#263238" stroke-linecap="round" stroke-linejoin="round"/>
<path d="M424.451 512.184C424.451 512.184 440.723 513.516 436.907 494.076" stroke="#263238" stroke-miterlimit="10"/>
<path d="M501.132 482.064C499.932 484.464 485.016 497.16 472.164 508.26C472.164 508.092 475.764 501.312 477.252 498.42C480.672 492.036 489.504 474.528 506.316 472.224C508.704 473.664 501.132 482.064 501.132 482.064Z" fill="#263238"/>
<path d="M494.735 468.396C477.731 471.78 473.867 493.596 467.831 502.872C461.795 512.148 445.031 524.76 445.031 524.76" stroke="#263238" stroke-miterlimit="10"/>
<path d="M435.863 519.192C438.635 524.256 437.327 530.136 435.863 533.82C435.146 535.65 434.254 537.406 433.199 539.064C409.127 535.104 385.055 522.168 385.055 522.168L378.851 502.968L377.855 499.896L387.203 487.308" stroke="#263238" stroke-miterlimit="10"/>
<path d="M435.864 533.82C435.146 535.65 434.254 537.406 433.2 539.064C409.128 535.104 385.056 522.168 385.056 522.168L378.852 502.968C381.96 507.024 387.72 512.964 396.36 515.4C408.084 518.724 429.72 522.612 435.864 533.82Z" fill="#263238"/>
<path d="M285.047 357.36L291.455 279.468L369.923 276.456L375.191 278.388" stroke="#263238" stroke-linecap="round" stroke-linejoin="round"/>
<path d="M436.799 502.872C436.799 502.872 447.527 504.792 455.771 498.072C464.015 491.352 477.299 476.148 477.299 476.148" stroke="#263238" stroke-miterlimit="10"/>
<path d="M447.72 493.2C447.72 493.2 445.128 497.1 447.72 504.924" stroke="#263238" stroke-linecap="round" stroke-linejoin="round"/>
<path d="M455.328 489.468C454.149 493.357 454.496 497.55 456.3 501.192" stroke="#263238" stroke-linecap="round" stroke-linejoin="round"/>
<path d="M464.399 484.212C464.399 484.212 462.227 490.728 464.399 496.476" stroke="#263238" stroke-linecap="round" stroke-linejoin="round"/>
<path d="M389.327 485.688L380.723 496.044C380.723 496.044 389.387 505.512 401.615 509.448C413.843 513.384 435.683 520.068 437.495 527.184" stroke="#263238" stroke-miterlimit="10"/>
</svg>
