<svg width="400" height="294" viewBox="0 0 400 294" fill="none" xmlns="http://www.w3.org/2000/svg">
<path opacity="0.1" d="M232.405 48.4196C206.763 47.439 182.338 38.3588 159.018 28.4207C135.698 18.4825 112.593 7.48361 87.5624 2.21752C71.4624 -1.16749 53.0547 -1.64837 40.0817 7.82305C27.6024 16.9315 23.5667 32.6637 21.3986 47.2551C19.7671 58.2352 18.8082 69.7951 23.2769 80.0727C26.3824 87.2104 31.8922 93.2073 35.7025 100.043C48.9653 123.833 39.5916 153.162 25.2196 176.385C18.4791 187.28 10.6616 197.676 5.45956 209.273C0.257474 220.871 -2.14322 234.171 2.40414 245.99C6.91572 257.715 17.6634 266.522 29.309 272.716C52.9581 285.299 80.829 288.901 108.02 290.938C168.159 295.459 228.623 293.498 288.955 291.541C311.277 290.82 333.678 290.085 355.656 286.299C367.849 284.196 380.439 280.858 389.287 272.801C400.528 262.571 403.312 245.254 395.781 232.426C383.151 210.914 348.225 205.554 339.395 182.486C334.536 169.78 339.527 155.613 346.59 143.827C361.738 118.548 387.133 96.366 388.471 67.452C389.391 47.604 377.183 27.7277 358.307 18.3364C338.522 8.49251 311.08 9.73242 296.487 26.0257C281.46 42.8282 255.049 49.2823 232.405 48.4196Z" fill="#495464"/>
<path opacity="0.5" d="M61.6488 271.901C58.8152 270.576 61.2123 256.188 67.3732 234.006C71.3088 219.775 76.8114 202.336 83.4732 183.089C83.9526 181.708 84.4392 180.323 84.9258 178.924C85.4744 177.356 86.0301 175.775 86.593 174.181L86.6431 174.05C86.7218 173.821 86.8041 173.596 86.8828 173.371C89.0152 167.368 91.2441 161.226 93.5697 154.945C93.6126 154.818 93.6591 154.694 93.7057 154.57L93.8237 154.251C94.3819 152.75 94.9471 151.25 95.516 149.723C95.5768 149.565 95.6341 149.4 95.6949 149.242C95.7772 149.021 95.8595 148.807 95.9382 148.589C95.9668 148.522 95.9883 148.451 96.0169 148.391C96.0634 148.259 96.1135 148.132 96.16 148.015C96.7325 146.515 97.3013 144.995 97.8702 143.513C98.8004 141.087 99.7235 138.684 100.639 136.306C100.799 135.888 100.96 135.475 101.122 135.067C101.583 133.869 102.044 132.68 102.507 131.499C102.686 131.049 102.865 130.595 103.037 130.149C103.172 129.807 103.305 129.462 103.437 129.124C104.89 125.44 106.333 121.827 107.766 118.285C107.77 118.273 107.77 118.26 107.766 118.248C113.222 104.767 118.5 92.3891 123.401 81.5685C123.43 81.5123 123.451 81.4522 123.48 81.396L123.999 80.2479C136.578 52.5923 146.474 35.5247 149.82 37.1005C153.261 38.7063 148.975 59.6647 139.583 90.4757C139.462 90.8846 139.337 91.2861 139.208 91.695C139.188 91.7752 139.164 91.8541 139.136 91.9314C138.659 93.5272 138.157 95.1531 137.63 96.8089C137.601 96.9065 137.569 97.004 137.537 97.1016C136.344 100.929 135.075 104.881 133.73 108.958C133.548 109.506 133.372 110.065 133.179 110.62C131.104 116.919 128.886 123.478 126.507 130.239C126.364 130.655 126.217 131.068 126.07 131.488C123.691 138.26 121.183 145.232 118.557 152.345C118.389 152.795 118.221 153.249 118.056 153.703C118.02 153.801 117.984 153.895 117.945 153.992C117.289 155.756 116.63 157.527 115.967 159.305C115.777 159.8 115.609 160.296 115.408 160.787C114.936 162.044 114.464 163.301 113.977 164.539C113.938 164.652 113.895 164.764 113.852 164.873C113.809 164.982 113.784 165.049 113.748 165.136C113.67 165.353 113.587 165.567 113.505 165.781C113.283 166.362 113.065 166.944 112.843 167.518C112.46 168.524 112.078 169.518 111.695 170.52L111.577 170.82C111.578 170.833 111.578 170.847 111.577 170.861C110.022 174.891 108.471 178.851 106.926 182.743C106.406 184.057 105.887 185.361 105.369 186.657C104.986 187.613 104.607 188.566 104.224 189.508C101.384 196.551 98.5929 203.293 95.8738 209.682C79.4303 248.264 65.706 273.799 61.6488 271.901Z" fill="#495464"/>
<path opacity="0.5" d="M68.3641 245.118C66.6181 244.33 68.7863 234.095 73.7021 218.194C76.8506 207.996 81.1332 195.465 86.2244 181.605L87.3371 178.604C87.7545 177.476 88.179 176.338 88.6107 175.189C88.6242 175.158 88.6362 175.125 88.6465 175.092L88.8326 174.604C90.4569 170.269 92.1515 165.842 93.9166 161.322C93.9488 161.229 93.9846 161.142 94.0203 161.052C94.0561 160.962 94.0776 160.898 94.1098 160.823C94.532 159.735 94.9577 158.651 95.387 157.555L95.5266 157.206L95.709 156.737C95.7305 156.689 95.7484 156.636 95.7663 156.591C95.7842 156.546 95.8414 156.407 95.8772 156.317C96.3113 155.222 96.7418 154.135 97.1688 153.057C97.87 151.306 98.5653 149.571 99.2546 147.853L99.6124 146.96C99.9702 146.093 100.306 145.238 100.654 144.382L101.051 143.407C101.154 143.159 101.251 142.912 101.351 142.656C102.441 139.998 103.523 137.386 104.596 134.822C104.598 134.814 104.598 134.805 104.596 134.796C108.675 125.041 112.596 116.089 116.195 108.244C116.217 108.202 116.235 108.157 116.256 108.116L116.635 107.283C125.888 87.2214 132.957 74.7387 135.018 75.6729C137.14 76.6334 133.469 91.5774 126.109 113.699L125.816 114.577C125.798 114.633 125.78 114.689 125.759 114.746C125.377 115.891 124.985 117.056 124.582 118.239L124.51 118.449C123.573 121.2 122.586 124.04 121.551 126.97C121.412 127.367 121.272 127.769 121.126 128.166C119.523 132.695 117.809 137.419 115.999 142.289L115.666 143.185C113.848 148.063 111.94 153.073 109.941 158.216C109.816 158.542 109.691 158.869 109.562 159.195C109.534 159.266 109.505 159.334 109.48 159.405L107.981 163.236L107.559 164.305C107.201 165.213 106.843 166.121 106.485 167.018C106.457 167.1 106.424 167.179 106.392 167.258C106.36 167.337 106.342 167.385 106.314 167.449L106.131 167.911C105.963 168.331 105.798 168.751 105.63 169.168L104.789 171.351L104.7 171.569V171.599C103.526 174.51 102.363 177.371 101.208 180.18C100.819 181.13 100.429 182.073 100.038 183.009C99.7519 183.704 99.4657 184.392 99.1795 185.072C97.0543 190.16 94.9756 195.041 92.9577 199.663C80.7396 227.63 70.865 246.251 68.3641 245.118Z" fill="#495464"/>
<path d="M183.468 169.194C183.468 168.147 182.492 168.688 182.356 168.733C181.963 168.395 181.536 168.104 181.082 167.866C178.903 166.676 175.611 165.952 172.989 165.528C172.98 165.525 172.97 165.525 172.96 165.528C170.649 165.153 168.867 165.026 168.867 165.026L167.504 165.044H166.996C167.175 164.766 167.437 164.559 167.74 164.455C168.12 164.407 166.138 164.253 165.197 164.185H165.157L164.721 164.155C162.653 164.665 158.778 161.878 158.778 161.878L158.327 159.499C159.859 157.762 159.637 153.421 159.637 153.421C159.637 153.421 159.766 151.965 161.068 149.962C162.37 147.958 160.85 146.69 160.85 146.69L163.1 144.172C163.003 143.738 162.99 143.288 163.06 142.848C163.13 142.408 163.282 141.988 163.508 141.61C163.645 141.396 163.816 141.209 164.012 141.055V141.036L164.048 141.002C165.519 139.82 166.76 135.716 166.76 135.716C166.76 135.716 166.474 134.984 168.084 132.999V132.977C168.299 132.714 168.549 132.433 168.839 132.117C168.839 132.091 168.882 132.069 168.903 132.042C171.486 129.326 170.47 127.825 170.47 127.825L167.333 123.826C168.073 122.527 162.127 113.211 162.127 113.211C162.127 113.211 161.368 111.294 161.798 109.459C161.918 109.027 161.93 108.57 161.833 108.131C161.777 107.884 161.661 107.655 161.497 107.467C161.396 107.354 161.275 107.263 161.139 107.201L160.925 107.182L161.179 106.987C161.282 106.916 161.383 106.837 161.486 106.762C161.708 106.852 161.93 106.931 162.155 107.002C164.339 107.742 166.665 107.894 168.92 107.444C171.174 106.994 173.285 105.957 175.057 104.428C175.146 104.357 175.232 104.278 175.315 104.199C175.397 104.12 175.54 103.997 175.651 103.888C175.701 103.839 175.751 103.794 175.794 103.745C175.837 103.697 175.962 103.573 176.044 103.483C176.069 103.565 176.094 103.644 176.123 103.727C176.235 104.059 176.37 104.383 176.527 104.695C176.541 104.723 176.556 104.751 176.574 104.777C176.573 104.788 176.573 104.8 176.574 104.811C176.599 104.867 176.631 104.92 176.66 104.972C176.864 105.33 177.111 105.658 177.397 105.948C177.467 106.02 177.541 106.088 177.619 106.15C177.73 106.25 177.85 106.339 177.976 106.417C177.995 106.434 178.016 106.449 178.037 106.462C178.059 106.479 178.081 106.494 178.105 106.507V106.507C178.198 106.334 178.288 106.158 178.374 105.981C179.133 104.427 179.576 102.724 179.672 100.98C179.677 100.768 179.693 100.556 179.722 100.346C179.742 100.186 179.786 100.03 179.855 99.8846C179.987 99.5994 180.201 99.3646 180.467 99.213C180.896 98.9839 181.347 98.8028 181.812 98.6727L181.923 98.6314L182.059 98.5826L182.323 98.4738L182.366 98.4513C182.445 98.4175 182.517 98.3763 182.592 98.3388C182.614 98.3216 182.638 98.3065 182.663 98.2937C182.749 98.2436 182.83 98.1859 182.907 98.1211L182.942 98.0911C183.012 98.0358 183.076 97.9743 183.136 97.9073C183.164 97.8773 183.182 97.8397 183.211 97.8097C183.25 97.7643 183.286 97.7153 183.318 97.6634L183.404 97.5321C183.422 97.4904 183.444 97.4503 183.468 97.412C183.742 96.8303 183.865 96.1834 183.826 95.5361C183.776 94.6056 183.515 93.7051 183.526 92.7709C183.558 90.5385 185.093 88.4074 184.957 86.19C184.835 84.269 183.486 82.7757 182.094 81.5826C180.703 80.3895 179.157 79.2752 178.395 77.568C177.826 76.2886 177.747 74.7991 177.236 73.4934C176.162 70.7583 173.014 69.2162 170.17 70.0304C168.467 70.5219 166.985 71.7038 165.329 72.3604C164.234 72.7918 163.086 72.9869 161.994 73.4259C160.706 73.9482 159.551 74.778 158.621 75.8497C158.456 76.0373 158.302 76.2248 158.152 76.435L158.012 76.6338C157.909 76.7839 157.805 76.934 157.712 77.0915C157.669 77.1591 157.63 77.2229 157.59 77.2942C157.46 77.5113 157.34 77.7355 157.232 77.9657C157.129 78.1796 157.039 78.3972 156.95 78.6186C156.453 79.8792 156.145 81.2224 155.547 82.423C155.415 82.6964 155.264 82.9597 155.097 83.211C154.864 83.5599 154.596 83.8863 154.331 84.2165C154.259 84.3065 154.188 84.3966 154.116 84.4791C154.087 84.5229 154.055 84.5643 154.02 84.6029C153.97 84.6742 153.912 84.7417 153.859 84.813C153.805 84.8843 153.794 84.8993 153.766 84.9406C153.737 84.9819 153.658 85.0944 153.612 85.1732C153.565 85.252 153.558 85.2445 153.533 85.2858C153.461 85.4021 153.397 85.5221 153.333 85.6422V85.6685C153.132 86.0724 153.022 86.5189 153.011 86.9741C153.006 87.1994 153.038 87.4238 153.104 87.6382C153.121 87.6932 153.141 87.7471 153.165 87.7996C153.218 87.9203 153.29 88.0316 153.376 88.1297C153.333 88.2536 153.283 88.3811 153.243 88.5049C153.15 88.7901 153.064 89.0827 152.986 89.3716C152.936 89.5705 152.896 89.7468 152.853 89.9532C152.686 90.713 152.58 91.4861 152.535 92.2644V92.2644L152.306 92.3882C151.903 92.598 151.488 92.7822 151.064 92.9397V92.9397H151.021C150.664 93.0223 148.195 93.5625 147.329 93.405L144.242 92.8384C144.242 92.8384 143.526 92.527 142.742 92.1331C142.151 91.8621 141.599 91.5046 141.104 91.0713C140.514 90.4034 136.431 87.6495 135.573 87.6532C135.222 87.5958 134.903 87.4096 134.671 87.128C134.412 86.7953 134.173 86.4456 133.955 86.0812C133.955 86.0812 133.873 86.0362 133.744 85.9536C133.583 85.7172 133.483 85.5409 133.483 85.5409C133.483 85.5409 132.27 84.843 131.036 84.0401L130.51 85.1657C130.481 85.222 130.456 85.282 130.428 85.3421C125.447 96.1101 120.002 108.405 114.328 121.758C114.33 121.771 114.33 121.783 114.328 121.796C112.832 125.298 111.324 128.876 109.802 132.53L109.383 133.543L108.825 134.879L107.369 138.406L106.861 139.633C105.895 141.981 104.922 144.357 103.941 146.761C103.34 148.234 102.737 149.721 102.131 151.222C102.085 151.346 102.031 151.474 101.981 151.597C101.952 151.661 101.927 151.729 101.899 151.796C101.816 152.01 101.727 152.224 101.641 152.442C101.577 152.595 101.512 152.761 101.448 152.914C100.847 154.415 100.249 155.916 99.6589 157.387L99.387 157.533L99.5336 157.702C99.4836 157.826 99.4335 157.946 99.387 158.077C96.9183 164.26 94.5331 170.32 92.2314 176.255L91.9738 176.923L91.9201 177.054C91.3143 178.623 90.718 180.18 90.1312 181.726C89.6065 183.106 89.0853 184.474 88.5678 185.83C81.3728 204.785 75.287 221.897 70.7612 235.81C70.5465 235.963 70.3175 236.14 70.085 236.339C70.3175 236.155 70.5429 235.963 70.7504 235.832C70.9295 235.704 71.1159 235.587 71.3086 235.483C71.7297 235.249 72.1165 234.952 72.457 234.602C72.6109 234.451 72.7611 234.298 72.9078 234.136C73.7471 233.15 74.5081 232.093 75.1833 230.977C75.2922 230.842 75.4119 230.716 75.5411 230.602L75.7307 230.422L75.7593 230.396C75.8631 230.302 75.974 230.197 76.0992 230.088L76.1207 230.069L76.3067 229.908L76.3282 229.889L76.5285 229.713C77.1403 229.187 77.8881 228.568 78.6001 227.983L78.8577 227.777L79.7271 227.071L80.1564 226.73L81.1045 225.98C81.1132 225.964 81.1228 225.949 81.1331 225.935C81.219 225.818 81.4158 225.559 81.6913 225.203C81.6964 225.195 81.7039 225.188 81.7127 225.184C81.7451 225.137 81.7798 225.092 81.8165 225.049C82.1957 224.584 82.6895 224.002 83.2476 223.425C83.3156 223.357 83.3836 223.282 83.4587 223.214L83.6626 223.008L83.9954 222.697C84.3226 222.392 84.6666 222.107 85.0258 221.845C85.4853 221.497 85.925 221.121 86.3424 220.719L86.4318 220.637C86.4926 220.573 86.5606 220.506 86.6322 220.442C86.6837 220.396 86.7326 220.347 86.7789 220.295L86.9327 220.145L87.1867 219.894L87.3477 219.733L87.727 219.357L88.1527 218.915L88.2171 218.847C88.4354 218.615 88.6572 218.378 88.8826 218.146L89.1438 217.868C89.2511 217.752 89.3584 217.632 89.4658 217.519C89.6482 217.328 89.8236 217.144 90.0096 216.937L90.4067 216.502C90.5355 216.356 90.6643 216.221 90.786 216.086C90.9828 215.872 91.1688 215.669 91.3441 215.47L91.3835 215.425L91.8378 214.923C91.8378 214.923 91.8378 214.923 91.8593 214.896C91.9702 214.78 92.0668 214.671 92.1598 214.562L92.2493 214.461C92.3387 214.371 92.4174 214.277 92.4854 214.202C92.7538 213.906 92.9076 213.73 92.9076 213.73L96.1276 209.884L99.4084 205.865L99.5551 205.693C99.5551 205.693 100.392 204.372 101.247 203.28L101.362 203.134C101.654 202.75 101.981 202.397 102.339 202.08C102.627 201.826 102.892 201.545 103.129 201.239C103.147 201.239 103.162 201.198 103.183 201.176C104.149 199.99 105.398 198.148 105.798 197.544L105.931 197.349C106.263 197.059 106.57 196.737 106.847 196.388C107.183 195.98 107.453 195.518 107.648 195.019C107.837 194.571 108.077 194.149 108.364 193.762C108.365 193.756 108.365 193.749 108.364 193.743L108.421 193.66L108.625 193.383C108.878 193.434 109.133 193.467 109.39 193.48C110.566 193.527 111.741 193.37 112.868 193.015C112.901 193.006 112.933 192.995 112.965 192.981V192.981C113.258 192.91 113.48 192.842 113.598 192.805L113.702 192.771L115.923 189.357L115.977 189.278C115.977 189.278 117.151 188.111 118.274 186.862C118.396 186.727 118.514 186.592 118.632 186.46C119.433 185.552 120.142 184.66 120.281 184.187C120.639 183.005 122.61 180.604 122.61 180.604C122.61 180.604 125.991 176.071 127.311 174.36C127.365 174.289 127.419 174.218 127.465 174.162L127.644 173.933C127.685 173.962 127.723 173.995 127.759 174.03C127.858 174.134 127.948 174.247 128.027 174.368C128.034 174.384 128.043 174.399 128.052 174.413L128.163 174.248C128.238 174.143 128.342 173.982 128.481 173.783C128.589 173.889 128.684 174.009 128.764 174.139L128.796 174.188C128.796 174.188 136.274 163.36 137.44 160.306C137.709 159.669 138.046 159.066 138.446 158.509C139.973 156.291 142.549 153.732 143.759 152.573L144.116 152.239C144.302 152.059 144.413 151.961 144.413 151.961L144.542 152.254C144.542 152.277 144.542 152.299 144.567 152.325C144.875 153.057 145.497 154.678 145.165 155.124C144.739 155.71 143.598 161.619 143.598 161.619C143.598 161.619 142.041 164.215 143.05 168.204C144.059 172.192 148.274 173.584 149.215 173.501C149.819 173.445 155.107 175.752 158.853 177.445L159.776 177.861L160.706 178.277L162.155 178.942L162.238 178.979C162.356 179.039 162.477 179.095 162.596 179.144L162.671 179.039L162.706 178.983L163.064 179.159L162.706 178.945C162.853 178.728 163.107 178.334 163.422 177.797C163.438 177.76 163.457 177.725 163.479 177.692L163.579 177.516L163.748 177.216C163.765 177.174 163.787 177.141 163.805 177.107L163.977 176.784C163.987 176.769 163.997 176.753 164.005 176.735C164.241 176.285 164.488 175.782 164.721 175.235C164.757 175.163 164.792 175.085 164.824 175.01L165.748 174.927L166.384 174.871L166.742 174.841L167.207 174.792L167.426 174.837L176.241 175.505L176.885 175.557C177.725 175.635 178.57 175.527 179.368 175.242C180.166 174.957 180.898 174.5 181.518 173.901C182.137 173.302 182.631 172.574 182.967 171.764C183.303 170.953 183.474 170.078 183.468 169.194V169.194Z" fill="url(#paint0_linear)"/>
<path d="M161.884 179.37C161.884 179.37 168.589 169.84 164.005 164.564L153.133 168.027L153.705 172.211C153.705 172.211 158.417 177.918 161.884 179.37Z" fill="#65617D"/>
<path opacity="0.1" d="M153.133 168.027L153.705 172.211C153.705 172.211 157.032 176.225 160.145 178.379C160.696 178.768 161.282 179.1 161.895 179.37C161.895 179.37 161.934 179.321 162.002 179.216C162.01 179.204 162.017 179.191 162.023 179.178C162.834 177.946 163.543 176.643 164.141 175.284C164.363 174.77 164.581 174.218 164.782 173.659C165.497 171.524 165.941 169.108 165.318 166.969C165.094 166.177 164.719 165.441 164.217 164.805C164.174 164.752 164.131 164.696 164.081 164.643C164.061 164.615 164.04 164.589 164.016 164.564L163.776 164.639L160.098 165.81L153.133 168.027Z" fill="black"/>
<path d="M107.741 138.787L106.829 139.638L107.337 138.411L107.741 138.787Z" fill="#65617D"/>
<path opacity="0.1" d="M107.741 138.787L106.829 139.638L107.337 138.411L107.741 138.787Z" fill="black"/>
<path d="M165.186 165.462C165.186 165.462 160.456 170.869 163.325 174.295C163.325 174.295 164.706 174.715 166.742 175.109C171.433 176.009 179.579 176.76 182.191 171.83C185.926 164.768 168.102 165.406 168.102 165.406L166.753 165.432L165.186 165.462Z" fill="#FBBEBE"/>
<path opacity="0.1" d="M165.186 165.463C165.186 165.463 160.456 170.869 163.325 174.295C163.325 174.295 164.706 174.715 166.742 175.109L167.343 175.053C166.559 174.76 165.846 174.292 165.254 173.679C164.495 172.858 163.959 171.623 164.581 169.89C164.928 168.899 165.333 167.932 165.794 166.993C166.06 166.439 166.381 165.916 166.753 165.433L165.186 165.463Z" fill="black"/>
<path d="M157.197 175.914L158.785 175.771L164.13 175.284L166.857 175.032C166.074 174.74 165.362 174.272 164.771 173.659C164.012 172.834 163.472 171.603 164.095 169.87C164.443 168.878 164.848 167.91 165.308 166.969C166.073 165.469 166.663 164.898 166.989 164.853C167.315 164.808 165.404 164.658 164.485 164.594H164.449C164.188 164.572 164.016 164.564 164.016 164.564L163.765 164.639L160.202 165.72L160.088 165.806C159.215 166.47 153.955 170.781 157.197 175.914Z" fill="#E7EFFD"/>
<path d="M116.013 177.986L110.51 191.174C110.51 191.174 109.555 192.225 108.696 193.332C108.683 193.353 108.667 193.374 108.65 193.392L108.442 193.673C108.42 193.698 108.4 193.724 108.381 193.752C108.383 193.758 108.383 193.765 108.381 193.771C108.013 194.235 107.705 194.748 107.466 195.298C107.312 195.691 107.109 196.061 106.861 196.397C106.551 196.819 106.199 197.207 105.813 197.553C105.796 197.571 105.778 197.587 105.759 197.601C105.759 197.601 104.328 199.751 103.197 201.185C103.176 201.207 103.162 201.233 103.144 201.248C102.855 201.626 102.536 201.977 102.188 202.295C101.893 202.55 101.621 202.834 101.376 203.143L101.262 203.289C100.364 204.415 99.4227 205.874 99.4227 205.874L96.1455 209.788L92.8074 213.746L92.489 214.121L92.2529 214.38L92.1634 214.481L91.8629 214.815C91.8629 214.815 91.845 214.815 91.8414 214.842L91.387 215.344L91.3477 215.389C91.1688 215.581 90.9899 215.787 90.7896 216.005C90.6679 216.14 90.5391 216.275 90.4103 216.421L90.0132 216.856C89.8343 217.048 89.6554 217.232 89.4694 217.438C89.362 217.551 89.2547 217.671 89.1474 217.787L88.8862 218.065C88.6608 218.297 88.439 218.534 88.2207 218.766L88.1563 218.834L87.7306 219.276L87.3513 219.652L87.1903 219.813L86.9363 220.064L86.7824 220.214C86.7362 220.266 86.6873 220.315 86.6358 220.361C86.5678 220.432 86.4998 220.496 86.4354 220.556L86.346 220.638C85.9183 221.065 85.4641 221.461 84.9864 221.824C84.523 222.168 84.0819 222.544 83.6662 222.95V222.95L83.4623 223.156C83.3871 223.223 83.3192 223.298 83.2512 223.366C82.6966 223.944 82.2029 224.525 81.8201 224.991C81.7833 225.034 81.7487 225.079 81.7163 225.126C81.7075 225.129 81.7 225.136 81.6948 225.144C81.4194 225.493 81.2226 225.76 81.1367 225.876L81.0902 225.936L80.1421 226.686L79.7128 227.028L78.8434 227.733L78.5858 227.94C77.8702 228.525 77.126 229.144 76.5142 229.669L76.3139 229.846L76.2924 229.864L76.1064 230.026L76.0849 230.044C75.9597 230.153 75.8488 230.258 75.745 230.352L75.7164 230.378L75.5268 230.558C75.4134 230.662 75.3093 230.777 75.2155 230.9C74.532 232.028 73.7589 233.094 72.9042 234.085C72.7576 234.247 72.6073 234.4 72.4534 234.551C72.1328 234.874 71.7718 235.151 71.3801 235.372C71.1683 235.483 70.9639 235.608 70.7683 235.747C75.2942 221.835 81.38 204.723 88.5749 185.768C89.0901 184.41 89.6113 183.041 90.1384 181.663C90.7323 180.117 91.3286 178.56 91.9273 176.992L91.981 176.861L92.2386 176.193C94.5283 170.265 96.9135 164.205 99.3941 158.015C99.4406 157.891 99.4907 157.771 99.5408 157.64L99.3941 157.471L99.666 157.324C100.26 155.824 100.857 154.353 101.455 152.852C101.519 152.698 101.584 152.533 101.648 152.379C101.734 152.162 101.823 151.948 101.906 151.734C101.934 151.666 101.959 151.599 101.988 151.535C102.038 151.408 102.092 151.28 102.138 151.16C102.746 149.659 103.35 148.172 103.949 146.699L110.253 154.09L110.517 154.394L114.918 159.478L115.186 159.782L116.557 161.365L117.297 162.221L117.655 162.63L122.063 167.721L122.12 167.789L122.328 168.025L116.013 177.986Z" fill="#3F3D56"/>
<path d="M147.544 94.9923L146.664 107.94C146.664 107.94 157.233 113.193 157.544 111.265C157.669 110.514 159.047 109.276 160.692 108.045C163.286 106.098 166.546 104.158 166.546 104.158C166.546 104.158 155.916 87.3534 154.653 90.8652C154.191 92.1484 153.122 93.0451 151.948 93.6641C150.557 94.3514 149.07 94.7999 147.544 94.9923V94.9923Z" fill="#FBBEBE"/>
<path opacity="0.1" d="M154.653 90.8652C154.191 92.1484 154.295 92.4448 153.125 93.0638C152.857 96.8683 152.864 101.374 155.533 104.395C156.958 106.016 158.725 107.266 160.692 108.045C163.286 106.098 166.545 104.158 166.545 104.158C166.545 104.158 155.916 87.3534 154.653 90.8652Z" fill="black"/>
<path d="M156.524 83.9831C155.212 85.2565 154.152 86.7885 153.404 88.4916C152.656 90.1947 152.236 92.0356 152.166 93.9091C152.097 95.7826 152.381 97.6521 153 99.4108C153.62 101.17 154.564 102.783 155.778 104.159C156.992 105.535 158.453 106.647 160.077 107.431C161.701 108.215 163.457 108.656 165.243 108.729C167.03 108.802 168.813 108.504 170.49 107.855C172.167 107.205 173.705 106.215 175.018 104.941L175.157 104.799C177.788 102.208 179.329 98.6267 179.442 94.8436C179.556 91.0606 178.231 87.3854 175.76 84.6265C173.289 81.8677 169.874 80.2512 166.267 80.1326C162.659 80.0141 159.155 81.4032 156.524 83.9943V83.9831Z" fill="#FBBEBE"/>
<path opacity="0.1" d="M116.721 174.496C116.271 175.115 115.523 174.98 114.321 173.333C113.762 172.615 113.153 171.942 112.5 171.318C112.378 171.198 112.249 171.075 112.124 170.943C110.789 169.656 109.079 168.122 107.237 166.381L107.119 166.272C106.299 165.495 105.444 164.674 104.593 163.822L104.085 163.312C102.918 162.13 101.748 160.877 100.632 159.56L100.582 159.507C100.171 159.027 99.7627 158.539 99.3584 158.067C99.4049 157.943 99.455 157.823 99.5051 157.691L99.3584 157.523L99.6303 157.376C100.224 155.876 100.822 154.405 101.419 152.904C101.484 152.75 101.548 152.585 101.612 152.431C101.698 152.214 101.788 152 101.87 151.786C101.899 151.718 101.924 151.651 101.952 151.587L102.371 152.135C103.051 153.028 103.745 153.924 104.446 154.814L104.507 154.893C104.904 155.392 105.298 155.891 105.695 156.393C105.713 156.393 105.727 156.435 105.745 156.45C106.185 157.001 106.636 157.541 107.09 158.059L107.355 158.356C107.841 158.907 108.328 159.425 108.814 159.928C109.959 161.106 111.09 162.179 112.131 163.079C112.231 163.169 112.328 163.256 112.432 163.342C113.351 164.145 114.199 164.843 114.936 165.39L115.269 165.653L115.684 165.964C116.65 166.692 117.24 167.09 117.24 167.09C117.24 167.09 117.294 167.604 117.337 168.362C117.362 168.801 117.387 169.322 117.398 169.863C117.412 171.619 117.308 173.69 116.721 174.496Z" fill="black"/>
<path d="M116.721 174.497C116.26 174.786 115.569 174.463 114.575 173.094C113.993 172.347 113.358 171.648 112.675 171.004L112.639 170.97L112.299 170.632C111.011 169.394 109.39 167.931 107.648 166.28C107.607 166.247 107.569 166.211 107.534 166.171C106.571 165.271 105.576 164.295 104.575 163.297C104.407 163.132 104.238 162.96 104.067 162.783C102.993 161.688 101.92 160.532 100.89 159.328L100.843 159.272L99.5122 157.711L99.3655 157.542L99.6374 157.396C100.231 155.895 100.829 154.424 101.426 152.923C101.491 152.769 101.555 152.604 101.619 152.451C101.705 152.233 101.795 152.019 101.877 151.805C101.906 151.738 101.931 151.67 101.959 151.606C102.009 151.479 102.063 151.351 102.11 151.231C102.85 152.203 103.612 153.197 104.382 154.18C104.39 154.187 104.398 154.196 104.403 154.206L104.761 154.672C105.172 155.193 105.584 155.707 105.995 156.225C106.353 156.687 106.739 157.133 107.115 157.568C107.179 157.647 107.247 157.722 107.315 157.797C107.383 157.872 107.491 158 107.576 158.097C109.074 159.767 110.667 161.341 112.346 162.81C112.442 162.9 112.542 162.986 112.643 163.072C113.53 163.845 114.349 164.517 115.05 165.068C115.183 165.166 115.308 165.267 115.43 165.361L115.845 165.672C116.857 166.423 117.476 166.847 117.476 166.847C117.476 166.847 117.562 167.71 117.609 168.862C117.626 169.338 117.637 169.86 117.634 170.392C117.623 172.178 117.43 174.054 116.721 174.497Z" fill="#5F5D7E"/>
<path opacity="0.1" d="M158.96 121.334L122.063 167.712L118.875 171.723L118.406 172.312C118.185 171.656 117.927 171.014 117.634 170.391C117.555 170.226 117.473 170.049 117.379 169.869C116.829 168.712 116.085 167.667 115.183 166.785C115.05 166.665 114.914 166.552 114.778 166.451L114.553 166.294C114.336 166.151 114.106 166.032 113.866 165.937C113.048 165.544 112.304 165 111.669 164.331V164.331L111.383 164.054C109.822 162.395 108.387 160.611 107.09 158.718C107.008 158.602 106.929 158.489 106.857 158.381C106.435 157.777 106.185 157.394 106.185 157.394C106.185 157.394 105.913 157.049 105.469 156.535C105.111 156.099 104.65 155.544 104.152 154.981C103.383 154.053 102.531 153.204 101.609 152.445C101.695 152.227 101.784 152.014 101.866 151.8C101.895 151.732 101.92 151.665 101.949 151.601C101.999 151.473 102.052 151.346 102.099 151.226C102.707 149.725 103.31 148.238 103.909 146.765C104.889 144.363 105.863 141.987 106.829 139.636L107.337 138.409L108.793 134.882L109.351 133.547L109.77 132.534C111.294 128.887 112.802 125.309 114.295 121.799L137.648 100.038L140.46 98.6347L143.168 97.2915L145.107 97.8768L145.397 97.9593L147.279 98.5296H147.304L147.758 98.6685L148.692 98.9499L149.154 105.437V105.493V105.673L150.005 106.957L150.535 107.763L150.764 107.857L151.733 108.251L152.027 108.367L152.134 108.412L152.982 108.757L155.39 109.737L155.966 111.613L156.324 112.821L156.52 113.47L156.71 113.943L158.96 121.334Z" fill="black"/>
<path d="M159.461 120.85L122.12 167.783L118.9 171.823L118.868 171.726C118.525 170.735 118.102 169.777 117.601 168.863C117.512 168.698 117.412 168.529 117.311 168.364C116.836 167.541 116.238 166.802 115.54 166.177C115.404 166.064 115.268 165.959 115.129 165.865C115.025 165.792 114.918 165.724 114.807 165.663C114.665 165.584 114.518 165.515 114.367 165.456C113.519 165.047 112.749 164.479 112.095 163.779L111.805 163.498C110.737 162.378 109.736 161.19 108.807 159.941C108.31 159.277 107.87 158.665 107.515 158.163L107.283 157.825C107.218 157.735 107.161 157.649 107.108 157.566C106.828 157.161 106.668 156.913 106.668 156.913C106.668 156.913 105.594 155.54 104.388 154.204C104.383 154.194 104.376 154.185 104.367 154.178C103.745 153.456 103.076 152.78 102.363 152.156C102.206 152.026 102.038 151.909 101.863 151.807C101.891 151.739 101.916 151.672 101.945 151.608C101.995 151.48 102.049 151.353 102.095 151.233C102.703 149.732 103.307 148.245 103.905 146.772C104.886 144.37 105.859 141.994 106.825 139.643L107.333 138.416L108.789 134.889L109.347 133.554L109.766 132.541C111.29 128.894 112.799 125.316 114.292 121.806C114.294 121.794 114.294 121.781 114.292 121.769L138.138 99.5423L140.545 98.3417L143.658 96.7921L145.522 97.3549L145.812 97.4412L147.333 97.9027L147.69 98.0077L148.112 98.1353L149.186 98.4617L149.665 105.185L149.909 105.56L149.948 105.62L149.998 105.699L150.739 106.825L151.039 107.283L152.234 107.77L153.722 108.374L155.898 109.26L156.642 111.702L156.774 112.138L156.967 112.768L157.06 113.076L157.121 113.267L159.461 120.85Z" fill="#E7EFFD"/>
<path opacity="0.1" d="M153.898 111.455C153.898 111.455 149.197 111.691 148.689 112.266C148.181 112.84 146.961 114.19 146.961 114.19L145.115 119.248C145.115 119.248 141.73 124.332 140.85 125.187C139.97 126.043 133.694 134.995 133.694 134.995L123.576 148.25L110.238 165.532L104.238 166.946L104.017 161.93L128.156 131.539L132.868 125.495C132.868 125.495 141.862 115.207 142.886 114.239C143.909 113.271 146.964 111.181 146.964 111.181C146.964 111.181 148.975 108.18 147.465 105.216C145.955 102.252 147.744 105.272 147.744 105.272L149.998 105.617L150.585 107.253C150.585 107.253 154.449 109.613 153.898 111.455Z" fill="black"/>
<path d="M154.381 111.475C154.381 111.475 149.68 111.711 149.172 112.285C148.664 112.859 147.444 114.21 147.444 114.21L145.619 119.268C145.619 119.268 142.217 124.351 141.326 125.199C140.435 126.047 134.17 135.011 134.17 135.011L124.056 148.263L110.718 165.548L104.718 166.959L104.503 161.968L128.639 131.578L133.354 125.53C133.354 125.53 142.349 115.242 143.354 114.274C144.36 113.306 147.433 111.216 147.433 111.216C147.433 111.216 149.444 108.214 147.934 105.254C146.424 102.294 148.216 105.307 148.216 105.307L150.47 105.652L151.057 107.288C151.057 107.288 154.921 109.633 154.381 111.475Z" fill="#495464"/>
<path opacity="0.1" d="M160.148 108.74C160.148 108.74 160.206 109.337 158.606 111.055C157.007 112.773 154.313 117.67 154.313 117.67C154.313 117.67 153.293 110.166 150.939 108.2L160.148 108.74Z" fill="black"/>
<path d="M160.646 108.251C160.646 108.251 160.707 108.848 159.107 110.563C157.508 112.277 154.814 117.181 154.814 117.181C154.814 117.181 153.794 109.677 151.437 107.707L160.646 108.251Z" fill="#E7EFFD"/>
<path opacity="0.1" d="M150.456 94.9388L150.785 108.022C150.785 108.022 141.984 105.29 140.445 105.313C138.907 105.335 147.272 95.7455 147.272 95.7455L150.456 94.9388Z" fill="black"/>
<path d="M150.728 94.1865L151.057 107.27C151.057 107.27 142.256 104.538 140.717 104.561C139.179 104.583 147.54 94.9932 147.54 94.9932L150.728 94.1865Z" fill="#E7EFFD"/>
<path opacity="0.1" d="M159.93 108.472C159.93 108.472 161.003 108.9 160.578 110.723C160.152 112.547 160.889 114.427 160.889 114.427C160.889 114.427 166.742 123.615 166.005 124.902L169.096 128.845C169.096 128.845 170.095 130.327 167.569 133.025C165.043 135.723 165.422 136.672 165.422 136.672C165.422 136.672 164.18 140.739 162.721 141.924C161.261 143.11 161.758 145.069 161.758 145.069L143.265 152.809C143.265 152.809 137.458 158.062 136.317 161.067C135.175 164.072 127.73 174.81 127.73 174.81C127.73 174.81 127.197 173.854 126.732 174.386C126.267 174.919 121.587 181.181 121.587 181.181C121.587 181.181 119.641 183.564 119.272 184.734C118.904 185.905 115 189.784 115 189.784L112.771 193.255C112.771 193.255 107.727 195.048 105.974 192.005C104.221 188.963 109.644 175.099 109.644 175.099L117.322 162.17L125.455 150.025L131.752 142.682L146.063 126.838L154.775 115.522C154.775 115.522 158.656 108.551 159.93 108.472Z" fill="black"/>
<path d="M160.646 108.251C160.646 108.251 161.719 108.675 161.293 110.484C160.867 112.292 161.601 114.187 161.601 114.187C161.601 114.187 167.458 123.375 166.721 124.662L169.812 128.605C169.812 128.605 170.81 130.087 168.284 132.785C165.758 135.483 166.138 136.432 166.138 136.432C166.138 136.432 164.896 140.499 163.436 141.685C161.977 142.87 162.474 144.829 162.474 144.829L143.973 152.554C143.973 152.554 138.195 157.84 137.032 160.842C135.87 163.844 128.446 174.582 128.446 174.582C128.446 174.582 127.913 173.625 127.447 174.158C126.982 174.69 122.303 180.952 122.303 180.952C122.303 180.952 120.356 183.335 119.988 184.509C119.619 185.684 115.716 189.556 115.716 189.556L113.483 193.03C113.483 193.03 108.442 194.82 106.686 191.777C104.929 188.734 110.381 174.87 110.381 174.87L118.07 161.945L126.202 149.8L132.489 142.458L146.8 126.613L155.512 115.297C155.512 115.297 159.393 108.315 160.646 108.251Z" fill="#65617D"/>
<path opacity="0.1" d="M153.133 168.028L153.705 172.211C153.705 172.211 157.032 176.226 160.145 178.379L162.002 179.216L162.36 179.385L162.002 179.179C160.288 178.109 159.279 176.954 158.782 175.772C156.753 171.037 162.789 165.912 164.202 164.805C164.342 164.692 164.431 164.621 164.471 164.595H164.488H164.435C164.317 164.621 164.197 164.637 164.077 164.644C163.976 164.649 163.874 164.649 163.773 164.644V164.644L160.202 165.72L160.088 165.807L153.133 168.028Z" fill="black"/>
<path d="M161.719 143.258L162.474 144.815L160.238 147.314C160.238 147.314 161.726 148.559 160.442 150.544C159.157 152.529 159.011 153.966 159.011 153.966C159.011 153.966 159.218 158.262 157.698 159.969L158.141 162.344C158.141 162.344 161.966 165.086 164.005 164.576C164.005 164.576 151.783 173.502 161.884 179.381C161.884 179.381 149.59 173.753 148.646 173.843C147.701 173.934 143.551 172.575 142.564 168.632C141.576 164.689 143.125 162.122 143.125 162.122C143.125 162.122 144.274 156.269 144.699 155.692C145.125 155.114 143.962 152.566 143.962 152.566L149.351 140.309L161.719 143.258Z" fill="#65617D"/>
<path opacity="0.1" d="M150.725 94.1898V94.2123L150.202 94.9965L148.124 98.1293L147.766 98.6621L147.251 99.4463L146.335 100.842L142.474 104.849L141.83 105.517L135.68 111.895L122.106 125.995L112.217 131.998C112.217 131.998 110.804 132.749 109.355 133.536L109.773 132.523C111.297 128.877 112.806 125.298 114.299 121.789C114.301 121.777 114.301 121.764 114.299 121.752C119.984 108.398 125.43 96.1033 130.399 85.3352C130.483 85.3742 130.563 85.4206 130.639 85.474C131.759 86.2582 133.083 87.0461 133.587 87.35L133.798 87.4738C134.015 87.8384 134.254 88.188 134.514 88.5206C134.925 89.0421 135.437 89.5524 135.859 89.5524C136.71 89.5524 140.739 92.25 141.322 92.9291C141.589 93.187 141.889 93.4042 142.213 93.5745C143.154 94.126 144.413 94.67 144.413 94.67L147.354 95.1916L147.469 95.2141H147.505C148.295 95.3229 150.009 94.5387 150.535 94.2761L150.685 94.2048L150.725 94.1898Z" fill="black"/>
<path d="M150.732 94.1875L150.08 95.0054L147.719 97.9657L147.336 98.4497L147.308 98.476L145.877 100.273L141.669 104.64L141.011 105.323L136.288 110.227L121.648 125.43L111.759 131.433L109.795 132.487C111.319 128.84 112.827 125.262 114.321 121.753C114.323 121.741 114.323 121.728 114.321 121.715C120.006 108.362 125.451 96.0672 130.421 85.2991C130.449 85.2391 130.474 85.1791 130.503 85.1228C131.852 86.042 133.365 86.905 133.365 86.905C133.365 86.905 133.462 87.0738 133.619 87.3102C133.894 87.7309 134.206 88.123 134.553 88.4808C134.781 88.7518 135.092 88.9298 135.433 88.9835C136.285 88.9835 140.313 91.6812 140.896 92.3603C141.325 92.7485 141.808 93.066 142.327 93.302C143.15 93.7373 143.987 94.0974 143.987 94.0974L147.039 94.6452C147.848 94.7878 150.077 94.3075 150.617 94.1837C150.647 94.1869 150.677 94.1869 150.707 94.1837C150.707 94.1837 150.707 94.1837 150.707 94.1837H150.728L150.732 94.1875Z" fill="#65617D"/>
<path opacity="0.1" d="M92.2419 177.458L91.8845 177.052L91.9381 176.921C92.0273 177.107 92.1288 177.287 92.2419 177.458Z" fill="black"/>
<path opacity="0.1" d="M91.5121 181.855L88.5354 185.847C89.0506 184.489 89.5718 183.121 90.0989 181.742L91.5121 181.855Z" fill="black"/>
<path d="M105.988 156.22L105.691 156.4L105.469 156.535L100.875 159.342L100.829 159.285L99.498 157.725L99.3513 157.556L99.6232 157.409L104.153 155.001L104.442 154.847L104.757 154.682C105.169 155.188 105.577 155.702 105.988 156.22Z" fill="#3F3D56"/>
<path opacity="0.1" d="M164.721 134.045C164.721 134.045 162.173 132.918 160.61 133.624C159.046 134.331 164.721 134.045 164.721 134.045Z" fill="black"/>
<path opacity="0.1" d="M157.426 152.248C157.426 152.248 156.638 158.251 154.37 158.318C152.102 158.386 157.426 152.248 157.426 152.248Z" fill="black"/>
<path opacity="0.1" d="M110.914 149.355C110.932 148.845 114.134 134.463 112.131 133.788L110.914 149.355Z" fill="black"/>
<path opacity="0.1" d="M156.524 83.9784C154.878 85.5743 153.635 87.5721 152.903 89.7939L152.986 89.8614C153.701 90.3942 154.749 90.0228 155.658 90.0828C156.216 90.1204 156.748 90.3399 157.18 90.7107C157.613 91.0814 157.924 91.5847 158.07 92.1501C158.19 92.7485 158.15 93.3703 157.952 93.9456C157.754 94.5209 157.407 95.027 156.95 95.4068C158.588 94.4351 159.923 92.9455 161.558 91.9663C163.193 90.987 165.426 90.6456 166.642 91.9663C167.164 92.5366 167.547 93.422 168.334 93.4408C168.807 93.4408 169.25 93.1219 169.722 93.0131C172.059 92.5328 173.898 96.1985 174.191 98.1382C174.481 100.014 174.499 102.641 175.157 104.775C176.46 103.492 177.509 101.953 178.244 100.245C178.979 98.5366 179.386 96.6933 179.442 94.8202C179.498 92.947 179.202 91.0806 178.57 89.3276C177.938 87.5745 176.983 85.9691 175.76 84.6031C174.536 83.2371 173.068 82.1371 171.44 81.366C169.811 80.595 168.053 80.1679 166.267 80.1092C164.481 80.0505 162.701 80.3613 161.029 81.0239C159.358 81.6865 157.827 82.6879 156.524 83.9709V83.9784Z" fill="black"/>
<path d="M169.973 92.7791C169.501 92.8842 169.061 93.2181 168.585 93.2069C167.801 93.2069 167.415 92.3026 166.893 91.7323C165.68 90.4042 163.447 90.7418 161.812 91.7323C160.177 92.7229 158.843 94.2049 157.2 95.1766C157.659 94.7979 158.007 94.292 158.205 93.7163C158.403 93.1407 158.443 92.5183 158.32 91.9199C158.174 91.3546 157.863 90.8512 157.431 90.4805C156.998 90.1098 156.466 89.8902 155.909 89.8526C155 89.7926 153.959 90.164 153.24 89.6275C152.521 89.091 152.564 87.8641 153.018 86.9786C153.472 86.0932 154.22 85.3953 154.771 84.5661C155.816 82.9978 156.098 81.0618 156.918 79.3584C157.91 77.2997 159.592 75.6968 161.64 74.8561C162.714 74.4209 163.866 74.222 164.946 73.7906C166.589 73.1377 168.055 71.9596 169.741 71.4719C172.56 70.6539 175.669 72.1697 176.721 74.8711C177.225 76.158 177.293 77.6325 177.851 78.8932C178.603 80.5816 180.13 81.6809 181.497 82.8515C182.864 84.0221 184.195 85.4779 184.306 87.3951C184.434 89.5862 182.91 91.6986 182.875 93.9047C182.875 94.8314 183.114 95.7207 183.157 96.6399C183.2 97.5591 182.982 98.6059 182.256 99.1987C181.318 99.9679 179.751 99.8403 179.229 100.951C179.1 101.296 179.036 101.664 179.043 102.035C178.93 103.968 178.391 105.847 177.469 107.524C174.689 105.851 174.914 100.895 174.456 97.9193C174.148 95.9645 172.313 92.2989 169.973 92.7791Z" fill="#7C5C5C"/>
<path opacity="0.1" d="M153.88 141.18C153.88 141.18 144.313 150.47 144.127 152.245C143.941 154.019 153.88 141.18 153.88 141.18Z" fill="black"/>
<g opacity="0.1">
<path opacity="0.1" d="M179.919 100.01C180.42 98.9258 181.937 99.0196 182.878 98.3068C182.741 98.6507 182.523 98.9527 182.245 99.1847C181.558 99.7475 180.531 99.8338 179.826 100.273C179.849 100.182 179.88 100.094 179.919 100.01V100.01Z" fill="black"/>
<path opacity="0.1" d="M157.987 94.1808C159.587 93.2128 160.907 91.757 162.513 90.8041C164.12 89.8511 166.381 89.4834 167.594 90.8041C168.116 91.3744 168.502 92.2598 169.286 92.2786C169.762 92.2786 170.202 91.9559 170.674 91.8508C173.014 91.3706 174.849 95.0362 175.146 96.976C175.594 99.8838 175.39 104.671 177.969 106.453C177.812 106.829 177.647 107.163 177.458 107.508C174.678 105.834 174.903 100.878 174.445 97.9027C174.148 95.963 172.298 92.2973 169.973 92.7776C169.501 92.8826 169.061 93.2166 168.585 93.2053C167.801 93.2053 167.415 92.3011 166.892 91.7308C165.68 90.4026 163.447 90.7403 161.812 91.7308C160.177 92.7213 158.842 94.2033 157.2 95.1751C157.523 94.9013 157.79 94.5634 157.987 94.1808V94.1808Z" fill="black"/>
<path opacity="0.1" d="M153.719 86.0401C153.265 86.9256 153.208 88.145 153.941 88.689C154.675 89.233 155.701 88.8541 156.61 88.9141C157.168 88.952 157.7 89.1716 158.133 89.5423C158.566 89.9129 158.878 90.416 159.025 90.9814C159.139 91.551 159.107 92.1422 158.931 92.6942C158.754 93.2461 158.441 93.7389 158.023 94.1218C158.379 93.4474 158.485 92.6592 158.32 91.9082C158.174 91.3428 157.863 90.8394 157.431 90.4687C156.998 90.098 156.466 89.8784 155.909 89.8408C155 89.7808 153.959 90.1523 153.24 89.6157C152.521 89.0792 152.564 87.8523 153.018 86.9669C153.299 86.4598 153.632 85.9856 154.009 85.5524C153.904 85.709 153.807 85.8719 153.719 86.0401V86.0401Z" fill="black"/>
<path opacity="0.1" d="M157.608 78.4215C156.799 80.1248 156.535 82.0608 155.461 83.6291C155.25 83.9481 155.01 84.2445 154.771 84.5409C155.808 82.9763 156.091 81.0441 156.896 79.3482C157.26 78.5846 157.725 77.8786 158.277 77.2509C158.025 77.6221 157.801 78.0135 157.608 78.4215V78.4215Z" fill="black"/>
</g>
<path d="M212.966 130.684C213.434 130.563 213.911 130.502 214.396 130.502C214.951 130.502 215.341 130.597 215.566 130.788C215.791 130.979 215.904 131.308 215.904 131.776C215.904 133.683 215.297 136.239 214.084 139.446C212.871 142.635 211.631 145.036 210.366 146.648C209.915 147.22 209.508 147.601 209.144 147.792C208.797 147.983 208.373 148.078 207.87 148.078C207.419 148.078 207.081 148.052 206.856 148C206.301 145.209 205.357 142.02 204.022 138.432C202.705 134.844 201.578 132.591 200.642 131.672C201.561 130.996 202.332 130.658 202.956 130.658C203.58 130.658 204.057 130.979 204.386 131.62C205.079 133.041 205.859 135.061 206.726 137.678C207.61 140.295 208.329 142.696 208.884 144.88C210.028 143.216 211.007 141.11 211.822 138.562C212.654 136.014 213.07 133.813 213.07 131.958C213.07 131.351 213.035 130.927 212.966 130.684ZM219.131 135.572C220.379 135.572 221.003 136.031 221.003 136.95C221.003 137.054 220.977 137.409 220.925 138.016C220.873 138.605 220.821 139.342 220.769 140.226C220.735 141.11 220.717 141.951 220.717 142.748C220.717 145.071 220.943 146.761 221.393 147.818C220.96 148.009 220.466 148.104 219.911 148.104C219.149 148.104 218.629 147.948 218.351 147.636C218.091 147.324 217.961 146.795 217.961 146.05C217.961 145.773 217.97 145.105 217.987 144.048C218.005 142.973 218.013 142.15 218.013 141.578C218.013 139.065 217.935 137.097 217.779 135.676C218.195 135.607 218.646 135.572 219.131 135.572ZM219.261 134.48C218.741 134.48 218.299 134.307 217.935 133.96C217.571 133.613 217.389 133.171 217.389 132.634C217.389 132.114 217.58 131.681 217.961 131.334C218.343 130.97 218.793 130.788 219.313 130.788C219.816 130.788 220.249 130.97 220.613 131.334C220.977 131.681 221.159 132.114 221.159 132.634C221.159 133.154 220.969 133.596 220.587 133.96C220.206 134.307 219.764 134.48 219.261 134.48ZM230.624 147.48C230.035 146.752 229.168 145.435 228.024 143.528C226.551 145.712 225.727 147.289 225.554 148.26C223.942 148.26 223.136 147.913 223.136 147.22C223.136 146.717 223.587 145.885 224.488 144.724C225.389 143.563 226.291 142.549 227.192 141.682C225.251 138.822 223.899 137.141 223.136 136.638C223.933 135.806 224.592 135.39 225.112 135.39C225.736 135.39 226.23 135.633 226.594 136.118C227.01 136.655 227.729 137.791 228.752 139.524C229.844 137.617 230.451 136.231 230.572 135.364C232.219 135.399 233.042 135.745 233.042 136.404C233.042 136.82 232.678 137.548 231.95 138.588C231.239 139.611 230.468 140.547 229.636 141.396C230.52 142.765 231.378 144.005 232.21 145.114C233.059 146.206 233.692 146.899 234.108 147.194C233.415 147.905 232.713 148.26 232.002 148.26C231.499 148.26 231.04 148 230.624 147.48ZM237.463 135.572C238.711 135.572 239.335 136.031 239.335 136.95C239.335 137.054 239.309 137.409 239.257 138.016C239.205 138.605 239.153 139.342 239.101 140.226C239.067 141.11 239.049 141.951 239.049 142.748C239.049 145.071 239.275 146.761 239.725 147.818C239.292 148.009 238.798 148.104 238.243 148.104C237.481 148.104 236.961 147.948 236.683 147.636C236.423 147.324 236.293 146.795 236.293 146.05C236.293 145.773 236.302 145.105 236.319 144.048C236.337 142.973 236.345 142.15 236.345 141.578C236.345 139.065 236.267 137.097 236.111 135.676C236.527 135.607 236.978 135.572 237.463 135.572ZM237.593 134.48C237.073 134.48 236.631 134.307 236.267 133.96C235.903 133.613 235.721 133.171 235.721 132.634C235.721 132.114 235.912 131.681 236.293 131.334C236.675 130.97 237.125 130.788 237.645 130.788C238.148 130.788 238.581 130.97 238.945 131.334C239.309 131.681 239.491 132.114 239.491 132.634C239.491 133.154 239.301 133.596 238.919 133.96C238.538 134.307 238.096 134.48 237.593 134.48ZM243.938 135.572C245.186 135.572 245.81 136.031 245.81 136.95C245.81 137.054 245.784 137.409 245.732 138.016C245.68 138.605 245.628 139.342 245.576 140.226C245.541 141.11 245.524 141.951 245.524 142.748C245.524 145.071 245.749 146.761 246.2 147.818C245.767 148.009 245.273 148.104 244.718 148.104C243.955 148.104 243.435 147.948 243.158 147.636C242.898 147.324 242.768 146.795 242.768 146.05C242.768 145.773 242.777 145.105 242.794 144.048C242.811 142.973 242.82 142.15 242.82 141.578C242.82 139.065 242.742 137.097 242.586 135.676C243.002 135.607 243.453 135.572 243.938 135.572ZM244.068 134.48C243.548 134.48 243.106 134.307 242.742 133.96C242.378 133.613 242.196 133.171 242.196 132.634C242.196 132.114 242.387 131.681 242.768 131.334C243.149 130.97 243.6 130.788 244.12 130.788C244.623 130.788 245.056 130.97 245.42 131.334C245.784 131.681 245.966 132.114 245.966 132.634C245.966 133.154 245.775 133.596 245.394 133.96C245.013 134.307 244.571 134.48 244.068 134.48ZM252.344 144.568C252.864 144.568 253.306 144.741 253.67 145.088C254.034 145.435 254.216 145.877 254.216 146.414C254.216 146.934 254.025 147.376 253.644 147.74C253.262 148.087 252.812 148.26 252.292 148.26C251.789 148.26 251.356 148.087 250.992 147.74C250.628 147.376 250.446 146.934 250.446 146.414C250.446 145.894 250.636 145.461 251.018 145.114C251.399 144.75 251.841 144.568 252.344 144.568ZM253.8 131.386C253.782 132.045 253.704 133.076 253.566 134.48C253.427 135.867 253.358 137.037 253.358 137.99C253.358 139.931 253.488 141.249 253.748 141.942C253.245 142.167 252.794 142.28 252.396 142.28C251.425 142.28 250.931 141.847 250.914 140.98C250.896 140.443 250.879 139.515 250.862 138.198C250.862 136.881 250.853 135.823 250.836 135.026C250.818 134.211 250.775 133.327 250.706 132.374C250.636 131.421 250.532 130.684 250.394 130.164C251.156 130.025 251.754 129.956 252.188 129.956C253.262 129.956 253.8 130.433 253.8 131.386ZM266.318 140.044V142.904C266.318 145.209 266.482 146.908 266.812 148C266.326 148.173 265.789 148.26 265.2 148.26C264.558 148.26 264.116 148.147 263.874 147.922C263.648 147.697 263.536 147.315 263.536 146.778C263.536 146.501 263.544 145.816 263.562 144.724C263.579 143.632 263.588 142.783 263.588 142.176V136.768C263.588 134.376 263.466 132.426 263.224 130.918C265.113 130.762 267.046 130.684 269.022 130.684C271.587 130.684 273.034 130.814 273.364 131.074C273.52 131.23 273.598 131.507 273.598 131.906C273.598 132.426 273.528 132.894 273.39 133.31C272.436 132.946 270.928 132.764 268.866 132.764C268.034 132.764 267.15 132.79 266.214 132.842C266.283 133.379 266.318 134.541 266.318 136.326V137.99H268.268C269.654 137.99 270.642 137.955 271.232 137.886C271.301 138.042 271.336 138.319 271.336 138.718C271.336 139.203 271.249 139.541 271.076 139.732C270.902 139.905 270.625 140.001 270.244 140.018C269.81 140.035 269.23 140.044 268.502 140.044H266.318ZM280.691 144.282C280.691 143.485 280.708 142.869 280.743 142.436C280.223 142.505 279.841 142.557 279.599 142.592C279.373 142.627 279.061 142.679 278.663 142.748C278.264 142.817 277.969 142.895 277.779 142.982C277.605 143.069 277.415 143.173 277.207 143.294C276.999 143.415 276.851 143.571 276.765 143.762C276.678 143.935 276.634 144.143 276.634 144.386C276.634 145.079 276.808 145.591 277.155 145.92C277.501 146.249 277.943 146.414 278.481 146.414C279.365 146.414 280.119 146.085 280.743 145.426C280.708 145.201 280.691 144.819 280.691 144.282ZM280.795 140.85C280.795 140.261 280.777 139.81 280.743 139.498C280.725 139.186 280.656 138.831 280.535 138.432C280.431 138.033 280.24 137.747 279.963 137.574C279.703 137.383 279.347 137.288 278.897 137.288C278.325 137.288 277.779 137.479 277.259 137.86C276.756 138.224 276.392 138.735 276.167 139.394C274.624 139.377 273.853 138.917 273.853 138.016C273.853 137.271 274.373 136.647 275.413 136.144C276.47 135.641 277.666 135.39 279.001 135.39C280.595 135.39 281.757 135.719 282.485 136.378C283.23 137.037 283.603 138.215 283.603 139.914C283.603 139.966 283.594 140.373 283.577 141.136C283.559 141.899 283.551 142.644 283.551 143.372C283.551 145.348 283.715 146.83 284.045 147.818C283.542 148.009 283.048 148.104 282.563 148.104C281.592 148.104 281.011 147.705 280.821 146.908C279.781 147.809 278.611 148.26 277.311 148.26C276.305 148.26 275.465 147.948 274.789 147.324C274.13 146.7 273.801 145.781 273.801 144.568C273.801 143.597 274.009 142.878 274.425 142.41C274.841 141.942 275.395 141.595 276.089 141.37C277.129 141.041 278.697 140.867 280.795 140.85ZM287.907 128.682C289.137 128.682 289.753 129.159 289.753 130.112C289.753 130.216 289.727 130.623 289.675 131.334C289.623 132.027 289.571 133.033 289.519 134.35C289.484 135.667 289.467 137.132 289.467 138.744C289.467 142.072 289.501 144.213 289.571 145.166C289.64 146.119 289.839 146.986 290.169 147.766C289.666 147.991 289.155 148.104 288.635 148.104C287.889 148.104 287.387 147.948 287.127 147.636C286.867 147.307 286.737 146.761 286.737 145.998C286.771 142.739 286.789 140.347 286.789 138.822C286.789 133.57 286.711 130.233 286.555 128.812C287.04 128.725 287.491 128.682 287.907 128.682ZM299.378 144.282C299.378 143.485 299.395 142.869 299.43 142.436C298.91 142.505 298.529 142.557 298.286 142.592C298.061 142.627 297.749 142.679 297.35 142.748C296.951 142.817 296.657 142.895 296.466 142.982C296.293 143.069 296.102 143.173 295.894 143.294C295.686 143.415 295.539 143.571 295.452 143.762C295.365 143.935 295.322 144.143 295.322 144.386C295.322 145.079 295.495 145.591 295.842 145.92C296.189 146.249 296.631 146.414 297.168 146.414C298.052 146.414 298.806 146.085 299.43 145.426C299.395 145.201 299.378 144.819 299.378 144.282ZM299.482 140.85C299.482 140.261 299.465 139.81 299.43 139.498C299.413 139.186 299.343 138.831 299.222 138.432C299.118 138.033 298.927 137.747 298.65 137.574C298.39 137.383 298.035 137.288 297.584 137.288C297.012 137.288 296.466 137.479 295.946 137.86C295.443 138.224 295.079 138.735 294.854 139.394C293.311 139.377 292.54 138.917 292.54 138.016C292.54 137.271 293.06 136.647 294.1 136.144C295.157 135.641 296.353 135.39 297.688 135.39C299.283 135.39 300.444 135.719 301.172 136.378C301.917 137.037 302.29 138.215 302.29 139.914C302.29 139.966 302.281 140.373 302.264 141.136C302.247 141.899 302.238 142.644 302.238 143.372C302.238 145.348 302.403 146.83 302.732 147.818C302.229 148.009 301.735 148.104 301.25 148.104C300.279 148.104 299.699 147.705 299.508 146.908C298.468 147.809 297.298 148.26 295.998 148.26C294.993 148.26 294.152 147.948 293.476 147.324C292.817 146.7 292.488 145.781 292.488 144.568C292.488 143.597 292.696 142.878 293.112 142.41C293.528 141.942 294.083 141.595 294.776 141.37C295.816 141.041 297.385 140.867 299.482 140.85ZM226.228 178.388C226.696 178.388 227.181 178.267 227.684 178.024C228.187 177.781 228.559 177.435 228.802 176.984C229.651 177.435 230.076 177.92 230.076 178.44C230.076 179.029 229.669 179.48 228.854 179.792C228.039 180.104 227.129 180.26 226.124 180.26C225.379 180.26 224.642 180.139 223.914 179.896C223.203 179.636 222.536 179.263 221.912 178.778C221.288 178.293 220.785 177.634 220.404 176.802C220.04 175.97 219.858 175.017 219.858 173.942C219.858 171.793 220.482 170.163 221.73 169.054C222.978 167.945 224.399 167.39 225.994 167.39C226.965 167.39 227.883 167.624 228.75 168.092C229.634 168.543 230.076 169.175 230.076 169.99C230.076 170.354 229.894 170.649 229.53 170.874C229.166 171.099 228.672 171.247 228.048 171.316C227.909 170.692 227.597 170.207 227.112 169.86C226.627 169.513 226.133 169.34 225.63 169.34C224.798 169.34 224.105 169.739 223.55 170.536C222.995 171.333 222.718 172.373 222.718 173.656C222.718 175.303 223.039 176.507 223.68 177.27C224.339 178.015 225.188 178.388 226.228 178.388ZM241.149 174.15C241.149 172.763 240.854 171.611 240.265 170.692C239.693 169.756 238.913 169.288 237.925 169.288C236.919 169.288 236.139 169.669 235.585 170.432C235.03 171.195 234.753 172.209 234.753 173.474C234.753 174.878 235.03 176.039 235.585 176.958C236.157 177.877 236.937 178.336 237.925 178.336C238.947 178.336 239.736 177.955 240.291 177.192C240.863 176.429 241.149 175.415 241.149 174.15ZM237.925 180.26C236.122 180.26 234.666 179.679 233.557 178.518C232.465 177.339 231.919 175.771 231.919 173.812C231.919 171.853 232.465 170.293 233.557 169.132C234.666 167.971 236.122 167.39 237.925 167.39C239.745 167.39 241.209 167.971 242.319 169.132C243.428 170.293 243.983 171.853 243.983 173.812C243.983 175.771 243.428 177.339 242.319 178.518C241.209 179.679 239.745 180.26 237.925 180.26ZM246.298 167.858L246.402 167.78C246.87 167.641 247.286 167.572 247.65 167.572C248.152 167.572 248.542 167.65 248.82 167.806C249.097 167.962 249.27 168.309 249.34 168.846C250.57 167.875 251.957 167.39 253.5 167.39C255.008 167.39 256.048 167.945 256.62 169.054C257.833 167.945 259.289 167.39 260.988 167.39C262.045 167.39 262.903 167.702 263.562 168.326C264.238 168.95 264.576 169.955 264.576 171.342C264.576 171.394 264.558 172.035 264.524 173.266C264.506 174.479 264.498 175.363 264.498 175.918C264.498 177.339 264.723 178.622 265.174 179.766C264.636 179.991 264.142 180.104 263.692 180.104C262.981 180.104 262.478 179.957 262.184 179.662C261.889 179.367 261.742 178.813 261.742 177.998C261.742 177.391 261.759 176.36 261.794 174.904C261.828 173.448 261.846 172.512 261.846 172.096C261.846 171.143 261.655 170.432 261.274 169.964C260.91 169.496 260.424 169.262 259.818 169.262C258.882 169.262 257.92 169.713 256.932 170.614C256.966 172.937 256.984 174.705 256.984 175.918C256.984 177.478 257.036 178.821 257.14 179.948C256.672 180.017 256.247 180.052 255.866 180.052C254.722 180.052 254.15 179.705 254.15 179.012C254.15 178.717 254.184 177.859 254.254 176.438C254.323 174.999 254.358 173.552 254.358 172.096C254.358 171.143 254.167 170.432 253.786 169.964C253.404 169.496 252.91 169.262 252.304 169.262C251.35 169.262 250.397 169.713 249.444 170.614C249.478 172.937 249.496 174.627 249.496 175.684C249.496 177.348 249.548 178.769 249.652 179.948C249.184 180.017 248.75 180.052 248.352 180.052C247.225 180.052 246.662 179.705 246.662 179.012C246.662 178.613 246.679 177.842 246.714 176.698C246.766 175.537 246.792 174.488 246.792 173.552C246.792 170.657 246.627 168.759 246.298 167.858ZM282.307 174.15C282.307 172.763 282.012 171.611 281.423 170.692C280.851 169.756 280.071 169.288 279.083 169.288C278.078 169.288 277.298 169.669 276.743 170.432C276.188 171.195 275.911 172.209 275.911 173.474C275.911 174.878 276.188 176.039 276.743 176.958C277.315 177.877 278.095 178.336 279.083 178.336C280.106 178.336 280.894 177.955 281.449 177.192C282.021 176.429 282.307 175.415 282.307 174.15ZM279.083 180.26C277.28 180.26 275.824 179.679 274.715 178.518C273.623 177.339 273.077 175.771 273.077 173.812C273.077 171.853 273.623 170.293 274.715 169.132C275.824 167.971 277.28 167.39 279.083 167.39C280.903 167.39 282.368 167.971 283.477 169.132C284.586 170.293 285.141 171.853 285.141 173.812C285.141 175.771 284.586 177.339 283.477 178.518C282.368 179.679 280.903 180.26 279.083 180.26ZM214.52 203.134C214.173 202.007 213.211 201.444 211.634 201.444C211.183 201.444 210.793 201.574 210.464 201.834C210.134 202.077 209.97 202.415 209.97 202.848C209.97 203.368 210.195 203.775 210.646 204.07C211.114 204.365 211.677 204.581 212.336 204.72C212.994 204.859 213.653 205.023 214.312 205.214C214.97 205.405 215.525 205.76 215.976 206.28C216.444 206.8 216.678 207.493 216.678 208.36C216.678 209.625 216.175 210.596 215.17 211.272C214.182 211.931 213.012 212.26 211.66 212.26C210.464 212.26 209.406 212.061 208.488 211.662C207.569 211.263 207.11 210.769 207.11 210.18C207.11 209.435 207.647 208.837 208.722 208.386C209.242 209.599 210.368 210.206 212.102 210.206C213.419 210.206 214.078 209.764 214.078 208.88C214.078 208.36 213.844 207.97 213.376 207.71C212.925 207.433 212.37 207.233 211.712 207.112C211.053 206.973 210.394 206.8 209.736 206.592C209.077 206.384 208.514 206.003 208.046 205.448C207.595 204.893 207.37 204.148 207.37 203.212C207.37 201.964 207.864 201.019 208.852 200.378C209.857 199.719 211.036 199.39 212.388 199.39C212.908 199.39 213.445 199.451 214 199.572C214.572 199.676 215.118 199.91 215.638 200.274C216.175 200.621 216.444 201.063 216.444 201.6C216.444 201.947 216.27 202.259 215.924 202.536C215.577 202.796 215.109 202.995 214.52 203.134ZM227.039 210.778C225.895 211.766 224.578 212.26 223.087 212.26C220.539 212.26 219.265 211.029 219.265 208.568C219.265 208.447 219.274 207.788 219.291 206.592C219.326 205.379 219.343 204.503 219.343 203.966C219.343 202.181 219.196 200.785 218.901 199.78C219.369 199.624 219.846 199.546 220.331 199.546C220.973 199.546 221.432 199.65 221.709 199.858C221.987 200.066 222.125 200.413 222.125 200.898C222.125 201.799 222.099 203.03 222.047 204.59C221.995 206.15 221.969 207.155 221.969 207.606C221.969 208.49 222.151 209.166 222.515 209.634C222.897 210.102 223.382 210.336 223.971 210.336C224.977 210.336 225.939 209.894 226.857 209.01C226.84 208.299 226.831 207.199 226.831 205.708C226.831 203.108 226.771 201.089 226.649 199.65C227.135 199.581 227.568 199.546 227.949 199.546C229.059 199.546 229.613 199.884 229.613 200.56C229.613 200.872 229.596 201.739 229.561 203.16C229.527 204.581 229.509 205.76 229.509 206.696C229.509 208.863 229.674 210.561 230.003 211.792C229.639 211.983 229.206 212.078 228.703 212.078C228.374 212.078 228.114 212.052 227.923 212C227.733 211.965 227.551 211.853 227.377 211.662C227.204 211.454 227.091 211.159 227.039 210.778ZM238.643 201.288C237.672 201.288 236.728 201.669 235.809 202.432C235.844 206.696 235.861 209.097 235.861 209.634C236.537 210.102 237.386 210.336 238.409 210.336C239.068 210.336 239.622 210.085 240.073 209.582C240.524 209.079 240.836 208.481 241.009 207.788C241.2 207.077 241.295 206.306 241.295 205.474C241.295 204.035 241.044 202.978 240.541 202.302C240.056 201.626 239.423 201.288 238.643 201.288ZM235.731 200.924C236.996 199.901 238.288 199.39 239.605 199.39C240.94 199.39 242.023 199.858 242.855 200.794C243.704 201.73 244.129 203.169 244.129 205.11C244.129 207.103 243.644 208.793 242.673 210.18C241.702 211.567 240.307 212.26 238.487 212.26C237.568 212.26 236.676 212.017 235.809 211.532C235.809 215.033 235.982 217.287 236.329 218.292C235.809 218.465 235.315 218.552 234.847 218.552C234.154 218.552 233.686 218.431 233.443 218.188C233.2 217.963 233.079 217.573 233.079 217.018C233.079 215.718 233.088 213.699 233.105 210.96C233.14 208.221 233.157 206.401 233.157 205.5C233.157 202.675 232.992 200.794 232.663 199.858C233.096 199.667 233.582 199.572 234.119 199.572C235.124 199.572 235.662 200.023 235.731 200.924ZM255.342 206.15C255.342 204.763 255.047 203.611 254.458 202.692C253.886 201.756 253.106 201.288 252.118 201.288C251.113 201.288 250.333 201.669 249.778 202.432C249.223 203.195 248.946 204.209 248.946 205.474C248.946 206.878 249.223 208.039 249.778 208.958C250.35 209.877 251.13 210.336 252.118 210.336C253.141 210.336 253.929 209.955 254.484 209.192C255.056 208.429 255.342 207.415 255.342 206.15ZM252.118 212.26C250.315 212.26 248.859 211.679 247.75 210.518C246.658 209.339 246.112 207.771 246.112 205.812C246.112 203.853 246.658 202.293 247.75 201.132C248.859 199.971 250.315 199.39 252.118 199.39C253.938 199.39 255.403 199.971 256.512 201.132C257.621 202.293 258.176 203.853 258.176 205.812C258.176 207.771 257.621 209.339 256.512 210.518C255.403 211.679 253.938 212.26 252.118 212.26ZM261.843 199.572C262.467 199.572 262.909 199.685 263.169 199.91C263.446 200.135 263.585 200.491 263.585 200.976V201.288C264.59 200.023 265.57 199.39 266.523 199.39C267.528 199.39 268.031 199.754 268.031 200.482C268.031 200.967 267.719 201.6 267.095 202.38C266.731 202.068 266.324 201.912 265.873 201.912C264.989 201.912 264.192 202.389 263.481 203.342C263.429 204.451 263.403 205.578 263.403 206.722C263.403 208.993 263.637 210.674 264.105 211.766C263.637 211.991 263.126 212.104 262.571 212.104C261.826 212.104 261.323 211.939 261.063 211.61C260.803 211.281 260.673 210.752 260.673 210.024C260.673 209.816 260.682 209.227 260.699 208.256C260.716 207.285 260.725 206.523 260.725 205.968C260.725 203.073 260.647 200.985 260.491 199.702C260.994 199.615 261.444 199.572 261.843 199.572ZM269.757 199.676C269.913 199.659 270.303 199.65 270.927 199.65C270.893 198.627 270.841 197.752 270.771 197.024C271.135 196.955 271.56 196.92 272.045 196.92C273.241 196.92 273.839 197.241 273.839 197.882C273.839 198.298 273.813 198.896 273.761 199.676C275.633 199.676 276.933 199.624 277.661 199.52C277.765 199.711 277.817 199.979 277.817 200.326C277.817 200.794 277.713 201.115 277.505 201.288C277.297 201.444 276.968 201.531 276.517 201.548C275.997 201.565 275.061 201.574 273.709 201.574C273.675 203.203 273.657 204.963 273.657 206.852C273.657 207.407 273.675 207.866 273.709 208.23C273.744 208.594 273.822 208.958 273.943 209.322C274.065 209.686 274.247 209.963 274.489 210.154C274.732 210.327 275.044 210.414 275.425 210.414C275.963 210.414 276.517 210.111 277.089 209.504C277.54 210.007 277.765 210.431 277.765 210.778C277.765 211.281 277.505 211.653 276.985 211.896C276.483 212.139 275.911 212.26 275.269 212.26C272.375 212.26 270.927 210.683 270.927 207.528C270.927 206.713 270.927 205.587 270.927 204.148C270.945 202.692 270.953 201.825 270.953 201.548C269.844 201.617 269.055 201.687 268.587 201.756C268.518 201.565 268.483 201.279 268.483 200.898C268.483 200.447 268.579 200.144 268.769 199.988C268.977 199.832 269.307 199.728 269.757 199.676ZM283.955 206.878C283.487 206.878 282.855 206.861 282.057 206.826C282.231 208.057 282.621 208.958 283.227 209.53C283.851 210.102 284.614 210.388 285.515 210.388C285.983 210.388 286.469 210.267 286.971 210.024C287.474 209.781 287.847 209.435 288.089 208.984C288.939 209.435 289.363 209.92 289.363 210.44C289.363 211.029 288.956 211.48 288.141 211.792C287.327 212.104 286.417 212.26 285.411 212.26C283.782 212.26 282.326 211.723 281.043 210.648C279.778 209.573 279.145 208.022 279.145 205.994C279.145 203.862 279.752 202.233 280.965 201.106C282.196 199.962 283.643 199.39 285.307 199.39C286.642 199.39 287.717 199.754 288.531 200.482C289.363 201.21 289.779 202.077 289.779 203.082C289.779 203.897 289.623 204.573 289.311 205.11C289.017 205.63 288.575 206.011 287.985 206.254C287.396 206.497 286.798 206.661 286.191 206.748C285.585 206.835 284.839 206.878 283.955 206.878ZM285.073 201.288C284.259 201.288 283.565 201.6 282.993 202.224C282.421 202.848 282.083 203.836 281.979 205.188C283.089 205.188 283.903 205.162 284.423 205.11C286.105 204.902 286.945 204.243 286.945 203.134C286.945 202.631 286.763 202.198 286.399 201.834C286.053 201.47 285.611 201.288 285.073 201.288ZM294.936 208.568C295.456 208.568 295.898 208.741 296.262 209.088C296.626 209.435 296.808 209.877 296.808 210.414C296.808 210.934 296.618 211.376 296.236 211.74C295.855 212.087 295.404 212.26 294.884 212.26C294.382 212.26 293.948 212.087 293.584 211.74C293.22 211.376 293.038 210.934 293.038 210.414C293.038 209.894 293.229 209.461 293.61 209.114C293.992 208.75 294.434 208.568 294.936 208.568ZM296.392 195.386C296.375 196.045 296.297 197.076 296.158 198.48C296.02 199.867 295.95 201.037 295.95 201.99C295.95 203.931 296.08 205.249 296.34 205.942C295.838 206.167 295.387 206.28 294.988 206.28C294.018 206.28 293.524 205.847 293.506 204.98C293.489 204.443 293.472 203.515 293.454 202.198C293.454 200.881 293.446 199.823 293.428 199.026C293.411 198.211 293.368 197.327 293.298 196.374C293.229 195.421 293.125 194.684 292.986 194.164C293.749 194.025 294.347 193.956 294.78 193.956C295.855 193.956 296.392 194.433 296.392 195.386Z" fill="#495464"/>
<defs>
<linearGradient id="paint0_linear" x1="96.2291" y1="250.592" x2="189.815" y2="78.794" gradientUnits="userSpaceOnUse">
<stop stop-color="#808080" stop-opacity="0.25"/>
<stop offset="0.54" stop-color="#808080" stop-opacity="0.12"/>
<stop offset="1" stop-color="#808080" stop-opacity="0.1"/>
</linearGradient>
</defs>
</svg>
